<?xml version="1.0" encoding="UTF-8" standalone="no"?>
<svg
   xmlns:shaper="http://www.shapertools.com/namespaces/shaper"
   xmlns:dc="http://purl.org/dc/elements/1.1/"
   xmlns:cc="http://creativecommons.org/ns#"
   xmlns:rdf="http://www.w3.org/1999/02/22-rdf-syntax-ns#"
   xmlns:svg="http://www.w3.org/2000/svg"
   xmlns="http://www.w3.org/2000/svg"
   xmlns:sodipodi="http://sodipodi.sourceforge.net/DTD/sodipodi-0.dtd"
   xmlns:inkscape="http://www.inkscape.org/namespaces/inkscape"
   enable-background="new 0 0 7.6000038 4.7"
   height="4.7cm"
   shaper:fusionaddin="version:1.5.0"
   version="1.1"
   viewBox="0 0 7.6000038 4.7"
   width="7.6000038cm"
   x="0cm"
   xml:space="preserve"
   y="0cm"
   id="svg5736"
   sodipodi:docname="linkv1.svg"
   inkscape:version="1.0.1 (3bc2e813f5, 2020-09-07)"><metadata
     id="metadata5742"><rdf:RDF><cc:Work
         rdf:about=""><dc:format>image/svg+xml</dc:format><dc:type
           rdf:resource="http://purl.org/dc/dcmitype/StillImage" /></cc:Work></rdf:RDF></metadata><defs
     id="defs5740"><mask
       maskUnits="userSpaceOnUse"
       id="mask50"><g
         id="g62"><path
           d="m -0.3000038,2.3500662 a 0.45,0.45 0 1 1 0.9,0 0.45,0.45 0 1 1 -0.9,0 z"
           fill="#000000"
           shaper:cutDepth="0"
           shaper:pathType="exterior"
           transform="matrix(1,0,0,-1,1.0000038,4.7)"
           vector-effect="non-scaling-stroke"
           id="path52" /><path
           d="m -3.8e-6,4.7 a 1,1 90 0 1 -1,-1.0000024 L -1,0.9999986 A 1,1 -179.99992 0 1 0,0 h 5.6 a 1,1 -90 0 1 1,1.0000014 l -3.8e-6,2.7000017 a 1,1 1.801e-4 0 1 -1,0.9999969 z"
           fill="rgb(0,0,0)"
           shaper:cutDepth="0"
           shaper:pathType="exterior"
           transform="matrix(1,0,0,-1,1.0000038,4.7)"
           vector-effect="non-scaling-stroke"
           id="path54"
           style="fill:#ffffff" /><path
           d="m 4.3099962,3.115 v -1.53 h -3.02 v 1.53 z"
           fill="rgb(255,255,255)"
           shaper:cutDepth="0"
           shaper:pathType="interior"
           stroke="#000000"
           transform="matrix(1,0,0,-1,1.0000038,4.7)"
           vector-effect="non-scaling-stroke"
           id="path56"
           style="fill:#000000" /><path
           d="m -0.3300038,2.3500662 a 0.48,0.48 0 1 1 0.96,0 0.48,0.48 0 1 1 -0.96,0 z"
           fill="#ffffff"
           shaper:cutDepth="0"
           shaper:pathType="interior"
           stroke="#000000"
           transform="matrix(1,0,0,-1,1.0000038,4.7)"
           vector-effect="non-scaling-stroke"
           id="path58" /><ellipse
           style="opacity:1;fill:#000000;fill-opacity:1;stroke:none;stroke-width:0.589554;stroke-miterlimit:4;stroke-dasharray:none;stroke-opacity:1"
           id="ellipse60"
           cx="1.1520144"
           cy="2.3485355"
           rx="0.40103957"
           ry="0.39793855" /></g></mask></defs><sodipodi:namedview
     pagecolor="#ffffff"
     bordercolor="#666666"
     borderopacity="1"
     objecttolerance="10"
     gridtolerance="10"
     guidetolerance="10"
     inkscape:pageopacity="0"
     inkscape:pageshadow="2"
     inkscape:window-width="1920"
     inkscape:window-height="1017"
     id="namedview5738"
     showgrid="false"
     inkscape:zoom="2.32"
     inkscape:cx="179.24771"
     inkscape:cy="216.36516"
     inkscape:window-x="1912"
     inkscape:window-y="-8"
     inkscape:window-maximized="1"
     inkscape:current-layer="svg5736"
     inkscape:document-rotation="0" /><path
     d="M 1,0 A 0.99999999,0.99999999 0 0 0 -9.9999999e-8,1.0000024 L 3.7e-6,3.7000015 A 0.99999999,0.99999999 0 0 0 1.0000038,4.7 H 6.6000036 A 0.99999999,0.99999999 0 0 0 7.6000037,3.6999985 l -3.9e-6,-2.7000016 A 0.99999999,0.99999999 0 0 0 6.5999999,0 Z"
     fill="#000000"
     shaper:cutDepth="0"
     shaper:pathType="exterior"
     vector-effect="non-scaling-stroke"
     id="path5730-6"
     style="fill:#ffffff;stroke-width:1"
     mask="url(#mask50)" /></svg>
