<?xml version="1.0" encoding="UTF-8" standalone="no"?>
<svg
   xmlns:shaper="http://www.shapertools.com/namespaces/shaper"
   xmlns:dc="http://purl.org/dc/elements/1.1/"
   xmlns:cc="http://creativecommons.org/ns#"
   xmlns:rdf="http://www.w3.org/1999/02/22-rdf-syntax-ns#"
   xmlns:svg="http://www.w3.org/2000/svg"
   xmlns="http://www.w3.org/2000/svg"
   xmlns:sodipodi="http://sodipodi.sourceforge.net/DTD/sodipodi-0.dtd"
   xmlns:inkscape="http://www.inkscape.org/namespaces/inkscape"
   enable-background="new 0 0 8.5 8.5"
   height="8.5cm"
   shaper:fusionaddin="version:1.5.0"
   version="1.1"
   viewBox="0 0 8.5 8.5"
   width="8.5cm"
   x="0cm"
   xml:space="preserve"
   y="0cm"
   id="svg26"
   sodipodi:docname="WTMV3.svg"
   inkscape:version="1.0.1 (3bc2e813f5, 2020-09-07)"><metadata
     id="metadata32"><rdf:RDF><cc:Work
         rdf:about=""><dc:format>image/svg+xml</dc:format><dc:type
           rdf:resource="http://purl.org/dc/dcmitype/StillImage" /></cc:Work></rdf:RDF></metadata><defs
     id="defs30"><mask
       maskUnits="userSpaceOnUse"
       id="mask106"><g
         id="g112"><path
           d="M 7.45,4.83 A 1.95,1.95 0 0 1 5.5,6.78 H 0.9 A 1.95,1.95 90 0 1 -1.05,4.83 V 0.23 A 1.95,1.95 -180 0 1 0.9,-1.72 h 4.6 a 1.95,1.95 -90 0 1 1.95,1.95 z"
           fill="rgb(0,0,0)"
           shaper:cutDepth="0"
           shaper:pathType="exterior"
           vector-effect="non-scaling-stroke"
           id="path108"
           transform="matrix(1,0,0,-1,1.05,6.78)"
           style="fill:#ffffff" /><path
           d="m 0.39,0.22 a 0.2,0.2 -90 0 0 -0.2,0.2 v 4.22 a 0.2,0.2 -180 0 0 0.2,0.2 h 5.62 a 0.2,0.2 90 0 0 0.2,-0.2 V 0.42 a 0.2,0.2 0 0 0 -0.2,-0.2 z"
           fill="rgb(255,255,255)"
           shaper:cutDepth="0"
           shaper:pathType="interior"
           stroke="#000000"
           vector-effect="non-scaling-stroke"
           id="path110"
           transform="matrix(1,0,0,-1,1.05,6.78)"
           style="fill:#000000" /></g></mask></defs><sodipodi:namedview
     pagecolor="#ffffff"
     bordercolor="#666666"
     borderopacity="1"
     objecttolerance="10"
     gridtolerance="10"
     guidetolerance="10"
     inkscape:pageopacity="0"
     inkscape:pageshadow="2"
     inkscape:window-width="1920"
     inkscape:window-height="1017"
     id="namedview28"
     showgrid="false"
     inkscape:zoom="0.66145833"
     inkscape:cx="-232.45153"
     inkscape:cy="317.99061"
     inkscape:window-x="1912"
     inkscape:window-y="-8"
     inkscape:window-maximized="1"
     inkscape:current-layer="svg26" /><path
     d="M 8.5,1.95 A 1.95,1.95 0 0 0 6.5499996,7e-8 H 1.9499993 A 1.95,1.95 0 0 0 -7e-7,1.95 v 4.5999998 a 1.95,1.95 0 0 0 1.95,1.95 H 6.5499996 A 1.95,1.95 0 0 0 8.5,6.5499998 Z"
     fill="#000000"
     shaper:cutDepth="0"
     shaper:pathType="exterior"
     vector-effect="non-scaling-stroke"
     id="path22-4"
     style="fill:#ffffff;stroke-width:1"
     mask="url(#mask106)" /></svg>
