<?xml version="1.0" encoding="UTF-8" standalone="no"?>
<svg
   xmlns:shaper="http://www.shapertools.com/namespaces/shaper"
   xmlns:dc="http://purl.org/dc/elements/1.1/"
   xmlns:cc="http://creativecommons.org/ns#"
   xmlns:rdf="http://www.w3.org/1999/02/22-rdf-syntax-ns#"
   xmlns:svg="http://www.w3.org/2000/svg"
   xmlns="http://www.w3.org/2000/svg"
   xmlns:sodipodi="http://sodipodi.sourceforge.net/DTD/sodipodi-0.dtd"
   xmlns:inkscape="http://www.inkscape.org/namespaces/inkscape"
   enable-background="new 0 0 5.84 5.84"
   height="5.84cm"
   shaper:fusionaddin="version:1.5.0"
   version="1.1"
   viewBox="0 0 5.84 5.84"
   width="5.84cm"
   x="0cm"
   xml:space="preserve"
   y="0cm"
   id="svg5161"
   sodipodi:docname="wtnv3.svg"
   inkscape:version="1.0.1 (3bc2e813f5, 2020-09-07)"><metadata
     id="metadata5167"><rdf:RDF><cc:Work
         rdf:about=""><dc:format>image/svg+xml</dc:format><dc:type
           rdf:resource="http://purl.org/dc/dcmitype/StillImage" /></cc:Work></rdf:RDF></metadata><defs
     id="defs5165"><mask
       maskUnits="userSpaceOnUse"
       id="mask75"><g
         id="g85"><path
           d="M 1.42,5.84 A 1.42,1.42 0 0 1 0,4.42 v -3 A 1.42,1.42 0 0 1 1.42,-2.9999999e-8 H 4.4200005 A 1.42,1.42 0 0 1 5.8400005,1.42 v 3 a 1.42,1.42 0 0 1 -1.42,1.42 z"
           shaper:cutDepth="0"
           shaper:pathType="exterior"
           id="path77"
           inkscape:connector-curvature="0"
           style="vector-effect:non-scaling-stroke;fill:#ffffff;stroke-width:1" /><path
           d="m 1.6447458,4.1288136 v 0.01 a 0.04,0.04 0 0 0 0.04,0.04 h 0.46 a 0.26,0.26 0 0 1 0.26,0.26 v 0.31 a 0.04,0.04 0 0 0 0.04,0.04 h 0.01 a 0.04,0.04 0 0 0 0.04,-0.04 V 4.4494023 L 2.4945903,4.4492468 A 0.35,0.35 0 0 0 2.1447458,4.0888136 h -0.46 a 0.04,0.04 0 0 0 -0.04,0.04 z"
           shaper:cutDepth="0"
           shaper:pathType="interior"
           id="path79"
           inkscape:connector-curvature="0"
           style="vector-effect:non-scaling-stroke;fill:#000000;stroke:#000000" /><path
           d="m 3.4347459,4.7888136 h 0.01 a 0.04,0.04 0 0 0 0.04,-0.04 v -0.31 a 0.26,0.26 0 0 1 0.26,-0.26 h 0.46 a 0.04,0.04 0 0 0 0.04,-0.04 v -0.01 a 0.04,0.04 0 0 0 -0.04,-0.04 h -0.46 a 0.35,0.35 0 0 0 -0.349845,0.3604332 l -1.55e-4,1.555e-4 v 0.2994113 a 0.04,0.04 0 0 0 0.04,0.04 z"
           shaper:cutDepth="0"
           shaper:pathType="interior"
           id="path81"
           inkscape:connector-curvature="0"
           style="vector-effect:non-scaling-stroke;fill:#000000;stroke:#000000" /><path
           d="m 1.3847458,1.7288136 v 1.63 h 3.1200001 v -1.63 z"
           shaper:cutDepth="0"
           shaper:pathType="interior"
           id="path83"
           inkscape:connector-curvature="0"
           style="vector-effect:non-scaling-stroke;fill:#000000;stroke:#000000" /></g></mask></defs><sodipodi:namedview
     pagecolor="#ffffff"
     bordercolor="#666666"
     borderopacity="1"
     objecttolerance="10"
     gridtolerance="10"
     guidetolerance="10"
     inkscape:pageopacity="0"
     inkscape:pageshadow="2"
     inkscape:window-width="1920"
     inkscape:window-height="1017"
     id="namedview5163"
     showgrid="false"
     inkscape:zoom="1.0692066"
     inkscape:cx="231.91034"
     inkscape:cy="256.3727"
     inkscape:window-x="1912"
     inkscape:window-y="-8"
     inkscape:window-maximized="1"
     inkscape:current-layer="svg5161"
     inkscape:document-rotation="0" /><path
     d="M 1.42,5.84 A 1.42,1.42 0 0 1 0,4.42 v -3 A 1.42,1.42 0 0 1 1.42,0 h 3 a 1.42,1.42 0 0 1 1.42,1.42 v 3 A 1.42,1.42 0 0 1 4.42,5.84 Z"
     shaper:cutDepth="0"
     shaper:pathType="exterior"
     id="path5153"
     inkscape:connector-curvature="0"
     style="vector-effect:non-scaling-stroke;fill:#ffffff"
     mask="url(#mask75)" /></svg>
