<?xml version="1.0" encoding="UTF-8" standalone="no"?>
<svg
   xmlns:shaper="http://www.shapertools.com/namespaces/shaper"
   xmlns:dc="http://purl.org/dc/elements/1.1/"
   xmlns:cc="http://creativecommons.org/ns#"
   xmlns:rdf="http://www.w3.org/1999/02/22-rdf-syntax-ns#"
   xmlns:svg="http://www.w3.org/2000/svg"
   xmlns="http://www.w3.org/2000/svg"
   xmlns:sodipodi="http://sodipodi.sourceforge.net/DTD/sodipodi-0.dtd"
   xmlns:inkscape="http://www.inkscape.org/namespaces/inkscape"
   enable-background="new 0 0 5.84 5.84"
   height="5.84cm"
   shaper:fusionaddin="version:1.5.0"
   version="1.1"
   viewBox="0 0 5.84 5.84"
   width="5.84cm"
   x="0cm"
   xml:space="preserve"
   y="0cm"
   id="svg4586"
   sodipodi:docname="WTNV1.svg"
   inkscape:version="1.0.1 (3bc2e813f5, 2020-09-07)"><metadata
     id="metadata4592"><rdf:RDF><cc:Work
         rdf:about=""><dc:format>image/svg+xml</dc:format><dc:type
           rdf:resource="http://purl.org/dc/dcmitype/StillImage" /></cc:Work></rdf:RDF></metadata><defs
     id="defs4590"><mask
       maskUnits="userSpaceOnUse"
       id="mask59"><g
         id="g69"><path
           d="M 1.42,5.7115829 A 1.42,1.42 0 0 1 0,4.2915829 V 1.291583 a 1.42,1.42 0 0 1 1.42,-1.42 h 3.0000004 a 1.42,1.42 0 0 1 1.42,1.42 v 2.9999999 a 1.42,1.42 0 0 1 -1.42,1.42 z"
           shaper:cutDepth="0"
           shaper:pathType="exterior"
           id="path61"
           inkscape:connector-curvature="0"
           style="vector-effect:non-scaling-stroke;fill:#ffffff;stroke-width:1" /><path
           d="m 4.1663207,1.5869219 h -2.46 v 1.32 h 2.46 z"
           shaper:cutDepth="0"
           shaper:pathType="interior"
           id="path63"
           inkscape:connector-curvature="0"
           style="vector-effect:non-scaling-stroke;fill:#000000;stroke:#000000" /><path
           d="m 3.6972197,4.4181545 -0.324739,0.3247398 a 0.04500028,0.04500028 0 1 0 0.06364,0.06364 L 3.7308877,4.5117664 A 0.35,0.35 0 1 0 3.3914757,4.1723551 l -0.294767,0.2947675 a 0.04500028,0.04500028 0 1 0 0.06364,0.06364 l 0.324739,-0.3247401 a 0.26,0.26 0 1 1 0.212132,0.212132 z"
           shaper:cutDepth="0"
           shaper:pathType="interior"
           id="path65"
           inkscape:connector-curvature="0"
           style="vector-effect:non-scaling-stroke;fill:#000000;stroke:#000000" /><path
           d="m 2.3975537,4.2060225 0.324739,0.3247398 a 0.04500028,0.04500028 0 0 0 0.06364,-0.06364 L 2.4911647,4.1723551 a 0.35,0.35 0 1 0 -0.339411,0.3394113 l 0.294768,0.2947675 a 0.04500028,0.04500028 0 0 0 0.06364,-0.06364 l -0.32474,-0.3247394 a 0.26,0.26 0 1 1 0.212132,-0.212132 z"
           shaper:cutDepth="0"
           shaper:pathType="interior"
           id="path67"
           inkscape:connector-curvature="0"
           style="vector-effect:non-scaling-stroke;fill:#000000;stroke:#000000" /></g></mask></defs><sodipodi:namedview
     pagecolor="#ffffff"
     bordercolor="#666666"
     borderopacity="1"
     objecttolerance="10"
     gridtolerance="10"
     guidetolerance="10"
     inkscape:pageopacity="0"
     inkscape:pageshadow="2"
     inkscape:window-width="1920"
     inkscape:window-height="1017"
     id="namedview4588"
     showgrid="false"
     inkscape:zoom="1.0692066"
     inkscape:cx="110.36221"
     inkscape:cy="110.36221"
     inkscape:window-x="1912"
     inkscape:window-y="-8"
     inkscape:window-maximized="1"
     inkscape:current-layer="svg4586"
     inkscape:document-rotation="0" /><path
     d="m 1.42,5.7115829 a 1.42,1.42 0 0 1 -1.42,-1.42 v -3 a 1.42,1.42 0 0 1 1.42,-1.42000001 h 3 A 1.42,1.42 0 0 1 5.84,1.2915829 v 3 a 1.42,1.42 0 0 1 -1.42,1.42 z"
     shaper:cutDepth="0"
     shaper:pathType="exterior"
     id="path4578"
     inkscape:connector-curvature="0"
     style="vector-effect:non-scaling-stroke;fill:#ffffff"
     mask="url(#mask59)" /></svg>
