<?xml version="1.0" encoding="UTF-8"?><svg id="Battery_middle" xmlns="http://www.w3.org/2000/svg" viewBox="0 0 36.01 20"><defs><style>.cls-1{fill:#fff;}.cls-2{fill:#ff0a7c;}</style></defs><path id="_路径_771" class="cls-1" d="M35.1,4.5h-1.11v-.56C33.99,1.76,32.23,0,30.05,0H3.94C1.76,0,0,1.76,0,3.94v12.12c0,2.17,1.76,3.94,3.94,3.94H30.05c2.17,0,3.94-1.76,3.94-3.94v-.61h1.11c.5,0,.91-.4,.91-.9,0,0,0,0,0,0V5.46c.02-.51-.37-.94-.88-.96-.01,0-.02,0-.03,0Zm-2.98,11.57c0,1.17-.95,2.11-2.12,2.12H3.89c-1.17,0-2.11-.95-2.12-2.12V3.94c0-1.17,.95-2.11,2.12-2.12H30c1.17,0,2.11,.95,2.12,2.12v12.12h0Z"/><path class="cls-2" d="M4.57,3.06c-.89,0-1.6,.71-1.6,1.59V15.36c0,.88,.72,1.59,1.6,1.59h.28V3.06h-.28Z"/></svg>