<svg id="Battery_middle" data-name="Battery middle" xmlns="http://www.w3.org/2000/svg" width="36.01" height="20" viewBox="0 0 36.01 20">
  <path id="路径_771" data-name="路径 771" d="M146.9,4.895H145.79V4.339A3.944,3.944,0,0,0,141.851.4H115.739A3.944,3.944,0,0,0,111.8,4.339V16.461a3.944,3.944,0,0,0,3.939,3.939h26.111a3.944,3.944,0,0,0,3.939-3.939v-.606H146.9a.905.905,0,0,0,.909-.909V5.855A.918.918,0,0,0,146.9,4.895Zm-2.98,11.566a2.134,2.134,0,0,1-2.121,2.121H115.689a2.134,2.134,0,0,1-2.121-2.121V4.339a2.134,2.134,0,0,1,2.121-2.121H141.8a2.134,2.134,0,0,1,2.121,2.121V16.461Z" transform="translate(-111.8 -0.4)" fill="#fff"/>
  <path id="路径_772" data-name="路径 772" d="M123.17,6.2h-4.155A1.488,1.488,0,0,0,117.5,7.715V18.826a1.488,1.488,0,0,0,1.515,1.515h4.155a1.488,1.488,0,0,0,1.515-1.515V7.715A1.459,1.459,0,0,0,123.17,6.2Z" transform="translate(-114.621 -3.271)" fill="#fff"/>
</svg>
