<svg id="bluetooth" xmlns="http://www.w3.org/2000/svg" width="14.9" height="19.867" viewBox="0 0 14.9 19.867">
  <g id="组_602" data-name="组 602">
    <path id="路径_734" data-name="路径 734" d="M256.009,150.81v2.611l1.865-1.132Z" transform="translate(-248.559 -144.958)" fill="#a9adb0"/>
    <path id="路径_735" data-name="路径 735" d="M71.45,0A7.459,7.459,0,0,0,64,7.45v4.967a7.45,7.45,0,1,0,14.9,0V7.45A7.459,7.459,0,0,0,71.45,0Zm3.831,13.032-4.139,3.34a.828.828,0,0,1-1.348-.644v-3.8l-1.055,1.056a.828.828,0,0,1-1.171-1.171L69.455,9.93,67.55,8a.828.828,0,1,1,1.177-1.165l1.067,1.08V4.139a.828.828,0,0,1,1.342-.649l4.139,3.282a.827.827,0,0,1-.084,1.356L72.249,9.914l2.939,1.763a.828.828,0,0,1,.094,1.354Z" transform="translate(-64)" fill="#a9adb0"/>
    <path id="路径_736" data-name="路径 736" d="M256.009,295.554l1.869-1.508-1.869-1.122Z" transform="translate(-248.559 -281.558)" fill="#a9adb0"/>
  </g>
</svg>
