<?xml version="1.0" encoding="UTF-8"?><svg id="Battery_middle" xmlns="http://www.w3.org/2000/svg" viewBox="0 0 36.01 20"><defs><style>.cls-1{fill:#fff;}.cls-2{fill:#62c471;}</style></defs><path class="cls-2" d="M4.57,3.06c-.89,0-1.6,.71-1.6,1.59V15.36c0,.88,.72,1.59,1.6,1.59H24.13V3.06H4.57Z"/><g><path id="_路径_771" class="cls-1" d="M35.13,4.49h-1.14v-.55c0-2.18-1.76-3.94-3.94-3.94h-9.11c.2,.35,.28,.76,.23,1.18l-.08,.63h8.91c1.17,.01,2.11,.96,2.12,2.13v12.12c-.01,1.17-.95,2.11-2.12,2.12h-11.77l-1.14,1.82h12.96c2.17-.01,3.94-1.77,3.94-3.94v-.61h1.11c.5,0,.91-.4,.91-.9h0V5.45c.02-.5-.37-.93-.88-.96ZM3.89,1.81h12.93l1.1-1.81H3.94C1.76,0,0,1.76,0,3.94v12.12c0,2.17,1.76,3.93,3.94,3.94H14.16c-.25-.42-.33-.92-.22-1.41l.08-.41H3.89c-1.17-.01-2.12-.95-2.12-2.12V3.94c0-1.17,.95-2.12,2.12-2.13Z"/><g id="_路径_770"><path class="cls-1" d="M22.81,8.53l-5.99,9.57-.81,1.26c-.08,.14-.23,.24-.4,.25-.1,0-.15,0-.2-.05-.21-.17-.31-.44-.25-.7l.15-.76,1.56-6.95h-3.28c-.21-.02-.38-.16-.45-.35-.09-.2-.07-.42,.05-.6L18.28,1.84l.76-1.26c.13-.2,.38-.28,.6-.2,.21,.15,.33,.4,.3,.66l-.1,.81-.76,5.74h3.33c.21,.02,.38,.16,.45,.35,.11,.19,.09,.43-.04,.6Z"/></g></g></svg>