<svg id="Battery_100percent" xmlns="http://www.w3.org/2000/svg" width="36.01" height="20" viewBox="0 0 36.01 20">
  <path id="路径_819" data-name="路径 819" d="M35.1,101.335H33.99v-.556a3.945,3.945,0,0,0-3.939-3.939H3.939A3.945,3.945,0,0,0,0,100.779V112.9a3.945,3.945,0,0,0,3.939,3.939H30.05a3.945,3.945,0,0,0,3.939-3.939v-.606H35.1a.9.9,0,0,0,.909-.9v-9.1a.919.919,0,0,0-.875-.959H35.1M32.12,112.9A2.134,2.134,0,0,1,30,115.022H3.889A2.134,2.134,0,0,1,1.768,112.9V100.779a2.134,2.134,0,0,1,2.121-2.121H30a2.134,2.134,0,0,1,2.121,2.121V112.9Z" transform="translate(0 -96.84)" fill="#272d3b"/>
  <path id="路径_820" data-name="路径 820" d="M29.432,99.895H4.561a1.591,1.591,0,0,0-1.6,1.586V112.2a1.591,1.591,0,0,0,1.6,1.586H29.432a1.591,1.591,0,0,0,1.6-1.586V101.481a1.591,1.591,0,0,0-1.6-1.586" transform="translate(0 -96.84)" fill="#62c471"/>
</svg>
