<svg id="Battery_10percent" xmlns="http://www.w3.org/2000/svg" width="36.01" height="20" viewBox="0 0 36.01 20">
  <path id="路径_811" data-name="路径 811" d="M35.1,4.495H33.99V3.939A3.945,3.945,0,0,0,30.051,0H3.939A3.945,3.945,0,0,0,0,3.939V16.061A3.945,3.945,0,0,0,3.939,20H30.05a3.945,3.945,0,0,0,3.939-3.939v-.606H35.1a.9.9,0,0,0,.909-.9v-9.1a.919.919,0,0,0-.875-.959H35.1M32.12,16.061A2.134,2.134,0,0,1,30,18.182H3.889a2.134,2.134,0,0,1-2.121-2.121V3.939A2.134,2.134,0,0,1,3.889,1.818H30a2.134,2.134,0,0,1,2.121,2.121V16.061Z" fill="#272d3b"/>
  <path id="路径_812" data-name="路径 812" d="M4.57,3.055A1.6,1.6,0,0,0,2.965,4.641V15.359A1.6,1.6,0,0,0,4.57,16.945h.276V3.055Z" fill="#ff007c"/>
</svg>
