<svg id="wifi" xmlns="http://www.w3.org/2000/svg" width="25.699" height="21.131" viewBox="0 0 25.699 21.131">
  <g id="组_204" data-name="组 204" transform="translate(11.143 17.818)">
    <g id="组_203" data-name="组 203">
      <circle id="椭圆_203" data-name="椭圆 203" cx="1.656" cy="1.656" r="1.656" fill="#272d3b"/>
    </g>
  </g>
  <g id="组_206" data-name="组 206" transform="translate(0 0)">
    <g id="组_205" data-name="组 205" transform="translate(0)">
      <path id="路径_290" data-name="路径 290" d="M25.43,50.989a17.159,17.159,0,0,0-25.16,0,1,1,0,1,0,1.469,1.369,15.152,15.152,0,0,1,22.222,0,1,1,0,1,0,1.469-1.369Z" transform="translate(0 -45.5)" fill="#272d3b"/>
    </g>
  </g>
  <g id="组_208" data-name="组 208" transform="translate(3.664 5.825)">
    <g id="组_207" data-name="组 207" transform="translate(0 0)">
      <path id="路径_291" data-name="路径 291" d="M91.077,165.357a12.286,12.286,0,0,0-17.788,0,1,1,0,1,0,1.425,1.414,10.279,10.279,0,0,1,14.938,0,1,1,0,0,0,1.425-1.414Z" transform="translate(-72.998 -161.547)" fill="#272d3b"/>
    </g>
  </g>
  <g id="组_210" data-name="组 210" transform="translate(7.583 11.695)">
    <g id="组_209" data-name="组 209" transform="translate(0 0)">
      <path id="路径_292" data-name="路径 292" d="M161.219,280.6a7.244,7.244,0,0,0-4.886-2.1h-.074a7.244,7.244,0,0,0-4.886,2.1,1,1,0,1,0,1.413,1.426,5.242,5.242,0,0,1,3.473-1.516h.074a5.242,5.242,0,0,1,3.473,1.516,1,1,0,1,0,1.413-1.426Z" transform="translate(-151.076 -278.5)" fill="#272d3b"/>
    </g>
  </g>
</svg>
