<svg id="Battery_75percent" xmlns="http://www.w3.org/2000/svg" width="36.01" height="20" viewBox="0 0 36.01 20">
  <path id="路径_817" data-name="路径 817" d="M35.1,76.57H33.99v-.556a3.945,3.945,0,0,0-3.939-3.939H3.939A3.945,3.945,0,0,0,0,76.014V88.136a3.945,3.945,0,0,0,3.939,3.939H30.05a3.945,3.945,0,0,0,3.939-3.939V87.53H35.1a.9.9,0,0,0,.909-.9v-9.1a.919.919,0,0,0-.875-.959H35.1M32.12,88.136A2.134,2.134,0,0,1,30,90.257H3.889a2.134,2.134,0,0,1-2.121-2.121V76.014a2.134,2.134,0,0,1,2.121-2.121H30a2.134,2.134,0,0,1,2.121,2.121V88.136Z" transform="translate(0 -72.075)" fill="#272d3b"/>
  <path id="路径_818" data-name="路径 818" d="M4.57,75.131a1.6,1.6,0,0,0-1.605,1.586V87.435A1.6,1.6,0,0,0,4.57,89.021H24.131V75.131Z" transform="translate(0 -72.075)" fill="#62c471"/>
</svg>
