<svg id="Battery_50percent" xmlns="http://www.w3.org/2000/svg" width="36.01" height="20" viewBox="0 0 36.01 20">
  <path id="路径_815" data-name="路径 815" d="M35.1,52.462H33.99v-.556a3.945,3.945,0,0,0-3.939-3.939H3.939A3.945,3.945,0,0,0,0,51.906V64.028a3.945,3.945,0,0,0,3.939,3.939H30.05a3.945,3.945,0,0,0,3.939-3.939v-.606H35.1a.9.9,0,0,0,.909-.9v-9.1a.919.919,0,0,0-.875-.959H35.1M32.12,64.028A2.134,2.134,0,0,1,30,66.149H3.889a2.134,2.134,0,0,1-2.121-2.121V51.906a2.134,2.134,0,0,1,2.121-2.121H30a2.134,2.134,0,0,1,2.121,2.121V64.028Z" transform="translate(0 -47.967)" fill="#272d3b"/>
  <path id="路径_816" data-name="路径 816" d="M4.57,51.022a1.6,1.6,0,0,0-1.605,1.586V63.326A1.6,1.6,0,0,0,4.57,64.912H17.076V51.022Z" transform="translate(0 -47.967)" fill="#62c471"/>
</svg>
