<svg id="BatteryCharge_100percent" xmlns="http://www.w3.org/2000/svg" width="36.011" height="20" viewBox="0 0 36.011 20">
  <path id="路径_833" data-name="路径 833" d="M70.362,99.895H45.491a1.591,1.591,0,0,0-1.6,1.586V112.2a1.591,1.591,0,0,0,1.6,1.586H70.362a1.591,1.591,0,0,0,1.6-1.586V101.481a1.591,1.591,0,0,0-1.6-1.586" transform="translate(-40.93 -96.84)" fill="#62c471"/>
  <path id="路径_834" data-name="路径 834" d="M76.06,101.33H74.92v-.55a3.935,3.935,0,0,0-3.94-3.94H61.87a1.91,1.91,0,0,1,.23,1.18l-.08.63h8.91a2.143,2.143,0,0,1,2.12,2.13V112.9a2.134,2.134,0,0,1-2.12,2.12H59.16l-1.14,1.82H70.98a3.954,3.954,0,0,0,3.94-3.94v-.61h1.11a.9.9,0,0,0,.91-.9v-9.1a.931.931,0,0,0-.88-.96M44.82,98.65H57.75l1.1-1.81H44.87a3.935,3.935,0,0,0-3.94,3.94V112.9a3.948,3.948,0,0,0,3.94,3.94H55.09a1.921,1.921,0,0,1-.22-1.41l.08-.41H44.82a2.128,2.128,0,0,1-2.12-2.12V100.78a2.136,2.136,0,0,1,2.12-2.13" transform="translate(-40.93 -96.84)" fill="#272d3b"/>
  <path id="路径_835" data-name="路径 835" d="M63.738,105.375l-5.995,9.572-.806,1.259a.514.514,0,0,1-.4.252c-.1,0-.151,0-.2-.05a.7.7,0,0,1-.252-.7l.151-.756L57.8,108H54.52a.538.538,0,0,1-.453-.353.637.637,0,0,1,.05-.6l5.088-8.363.756-1.259a.5.5,0,0,1,.6-.2.693.693,0,0,1,.3.655l-.1.806-.756,5.743H63.33a.539.539,0,0,1,.453.353.527.527,0,0,1-.045.6" transform="translate(-40.93 -96.84)" fill="#ffd524"/>
</svg>
