<svg id="Battery_25percent" xmlns="http://www.w3.org/2000/svg" width="36.01" height="20" viewBox="0 0 36.01 20">
  <path id="路径_813" data-name="路径 813" d="M35.1,28.23H33.99v-.556a3.945,3.945,0,0,0-3.939-3.939H3.939A3.945,3.945,0,0,0,0,27.674V39.8a3.945,3.945,0,0,0,3.939,3.939H30.05A3.945,3.945,0,0,0,33.989,39.8V39.19H35.1a.9.9,0,0,0,.909-.9v-9.1a.919.919,0,0,0-.875-.959H35.1M32.12,39.8A2.134,2.134,0,0,1,30,41.917H3.889A2.134,2.134,0,0,1,1.768,39.8V27.674a2.134,2.134,0,0,1,2.121-2.121H30a2.134,2.134,0,0,1,2.121,2.121V39.8Z" transform="translate(0 -23.735)" fill="#272d3b"/>
  <path id="路径_814" data-name="路径 814" d="M8.61,26.79H4.571a1.6,1.6,0,0,0-1.605,1.587V39.094a1.6,1.6,0,0,0,1.605,1.587h5.45V26.79Z" transform="translate(0 -23.735)" fill="#62c471"/>
</svg>
