<svg id="BatteryCharge_10percent" xmlns="http://www.w3.org/2000/svg" width="36.011" height="20" viewBox="0 0 36.011 20">
  <path id="路径_821" data-name="路径 821" d="M45.5,3.055a1.6,1.6,0,0,0-1.6,1.586V15.359a1.6,1.6,0,0,0,1.6,1.586h.276V3.055Z" transform="translate(-40.93 -0.004)" fill="#62c471"/>
  <path id="路径_822" data-name="路径 822" d="M76.06,4.494H74.92v-.55A3.935,3.935,0,0,0,70.98,0H61.87a1.91,1.91,0,0,1,.23,1.18l-.08.63h8.91a2.143,2.143,0,0,1,2.12,2.13v12.12a2.134,2.134,0,0,1-2.12,2.12H59.16L58.02,20H70.98a3.954,3.954,0,0,0,3.94-3.94v-.61h1.11a.9.9,0,0,0,.91-.9v-9.1a.931.931,0,0,0-.88-.96M44.82,1.814H57.75L58.85,0H44.87a3.935,3.935,0,0,0-3.94,3.94v12.12A3.948,3.948,0,0,0,44.87,20H55.09a1.921,1.921,0,0,1-.22-1.41l.08-.41H44.82a2.128,2.128,0,0,1-2.12-2.12V3.944a2.136,2.136,0,0,1,2.12-2.13" transform="translate(-40.93 -0.004)" fill="#272d3b"/>
  <path id="路径_823" data-name="路径 823" d="M63.738,8.538,57.743,18.11l-.806,1.259a.514.514,0,0,1-.4.252c-.1,0-.151,0-.2-.05a.7.7,0,0,1-.252-.7l.151-.756L57.8,11.158H54.52a.538.538,0,0,1-.453-.353.637.637,0,0,1,.05-.6l5.088-8.363L59.961.583a.5.5,0,0,1,.6-.2.693.693,0,0,1,.3.655l-.1.806-.756,5.743H63.33a.538.538,0,0,1,.453.353.527.527,0,0,1-.045.6" transform="translate(-40.93 -0.004)" fill="#ffd524"/>
</svg>
