<svg id="pitmaster-b" xmlns="http://www.w3.org/2000/svg" width="24.916" height="31.238" viewBox="0 0 24.916 31.238">
  <g id="flame" transform="translate(0 0.428)" opacity="0.6">
    <path id="pitmaster" d="M29.8,17.3a10.246,10.246,0,0,0-2.3-4.8.765.765,0,0,0-.9-.2.735.735,0,0,0-.4.8,5.98,5.98,0,0,1-.2,3.2,11.215,11.215,0,0,1-.5,1.3,17.624,17.624,0,0,0-1.9-3.9,7.018,7.018,0,0,0-.6-.9h0a18.1,18.1,0,0,1-2.2-4.4,5.281,5.281,0,0,1,.9-5.2.633.633,0,0,0,.1-.9.806.806,0,0,0-.9-.3,20.729,20.729,0,0,0-8.3,5.2,12.616,12.616,0,0,0-2.4,4.4l-.3,1.2V12a.752.752,0,0,0-.5-.7.959.959,0,0,0-.9.2A14,14,0,0,0,5.4,18a12.415,12.415,0,0,0,3,10.6,11.839,11.839,0,0,0,3.3,3h.1a1.4,1.4,0,0,0,1.8-.4,1.5,1.5,0,0,0,0-1.8,4.623,4.623,0,0,1-1.5-2.7,5.734,5.734,0,0,1,.6-2.5A4.644,4.644,0,0,0,14.3,26a.746.746,0,0,0,.9,0,.765.765,0,0,0,.2-.9,7.315,7.315,0,0,1-.6-5,6.726,6.726,0,0,1,1.6-3,9.105,9.105,0,0,0,1.3,3.3c.4.6.8,1.2,1.1,1.6.4.6.9,1.2,1.3,1.9a5.2,5.2,0,0,1,.1,4.4.806.806,0,0,0,.3.9.633.633,0,0,0,.9-.1,7.082,7.082,0,0,0,2-2.4,4.2,4.2,0,0,1-.6,2.1A5.1,5.1,0,0,1,20.9,31a1.1,1.1,0,0,0-.4,1.5,1.213,1.213,0,0,0,1.2.7H22a12.115,12.115,0,0,0,6.1-4.4,13.235,13.235,0,0,0,2-5.9A30.35,30.35,0,0,0,29.8,17.3ZM24.4,28.1a6.425,6.425,0,0,0-.6-4.9.1.1,0,0,0-.1-.1V23a.822.822,0,0,0-.6-.4H23a.849.849,0,0,0-.7.8,4.289,4.289,0,0,1-.4,2.5,6.007,6.007,0,0,0-.7-2.7h0a17.373,17.373,0,0,0-1.3-2v-.1c-.4-.5-.7-.9-1.1-1.5-1-1.7-1.3-3-1-4.2a.829.829,0,0,0-.3-.8.75.75,0,0,0-.9,0,8.642,8.642,0,0,0-3.4,5.1,6.478,6.478,0,0,0-.2,2,.908.908,0,0,0-.7.3,6.867,6.867,0,0,0-1.8,4.8A5.149,5.149,0,0,0,12,30a14.055,14.055,0,0,1-2.5-2.4,11.112,11.112,0,0,1-2.7-9.4,14.3,14.3,0,0,1,1.7-4.3,6.6,6.6,0,0,0,1.6,2.8.959.959,0,0,0,.9.2.68.68,0,0,0,.4-.8,8.612,8.612,0,0,1,.2-4.2,9.5,9.5,0,0,1,2.1-3.8,16.111,16.111,0,0,1,5.6-4,7.026,7.026,0,0,0,0,4.6,19.6,19.6,0,0,0,2.4,4.8l.6.9c1,1.7,2.1,3.5,2.1,5.4a.858.858,0,0,0,.6.7.68.68,0,0,0,.8-.4.367.367,0,0,0,.1-.3h0c0-.1.1-.2.1-.3a19.542,19.542,0,0,0,1.4-2.9,6.985,6.985,0,0,0,.3-1.2,6.637,6.637,0,0,1,.6,2,17.025,17.025,0,0,1,.1,5.1,12.246,12.246,0,0,1-1.8,5.3A9.639,9.639,0,0,1,22.7,31,6.061,6.061,0,0,0,24.4,28.1Z" transform="translate(-5.184 -2.391)" fill="#fff"/>
  </g>
</svg>
