<svg id="settings-w" xmlns="http://www.w3.org/2000/svg" width="32" height="32" viewBox="0 0 32 32">
  <g id="settings" opacity="0.6">
    <g id="组_35" data-name="组 35" transform="translate(0 0)">
      <path id="路径_70" data-name="路径 70" d="M30.362,12.642l-2.246-.381a12.682,12.682,0,0,0-.9-2.179L28.537,8.23a1.971,1.971,0,0,0-.214-2.547L26.331,3.691a1.962,1.962,0,0,0-1.4-.582,1.942,1.942,0,0,0-1.143.368L21.933,4.8a12.551,12.551,0,0,0-2.259-.929L19.3,1.652A1.975,1.975,0,0,0,17.347,0H14.533a1.975,1.975,0,0,0-1.952,1.651l-.388,2.273a12.37,12.37,0,0,0-2.173.916L8.182,3.517a1.974,1.974,0,0,0-2.547.214l-2,1.992A1.979,1.979,0,0,0,3.423,8.27L4.76,10.148a12.388,12.388,0,0,0-.889,2.186l-2.219.374A1.975,1.975,0,0,0,0,14.661v2.814a1.975,1.975,0,0,0,1.651,1.952l2.273.388a12.37,12.37,0,0,0,.916,2.173L3.523,23.819a1.971,1.971,0,0,0,.214,2.547l1.992,1.992a1.962,1.962,0,0,0,1.4.582,1.942,1.942,0,0,0,1.143-.368l1.878-1.337a12.646,12.646,0,0,0,2.112.869l.374,2.246A1.975,1.975,0,0,0,14.586,32h2.821a1.975,1.975,0,0,0,1.952-1.651L19.74,28.1a12.682,12.682,0,0,0,2.179-.9l1.852,1.324a1.962,1.962,0,0,0,1.15.368h0a1.962,1.962,0,0,0,1.4-.582l1.992-1.992a1.979,1.979,0,0,0,.214-2.547L27.2,21.914a12.591,12.591,0,0,0,.9-2.179l2.246-.374A1.975,1.975,0,0,0,32,17.408V14.594A1.951,1.951,0,0,0,30.362,12.642Zm-.154,4.766a.173.173,0,0,1-.147.174l-2.808.468a.9.9,0,0,0-.722.662,10.7,10.7,0,0,1-1.163,2.8.9.9,0,0,0,.04.983l1.651,2.326a.182.182,0,0,1-.02.227l-1.992,1.992a.17.17,0,0,1-.127.053.164.164,0,0,1-.1-.033L22.5,25.41a.9.9,0,0,0-.983-.04,10.7,10.7,0,0,1-2.8,1.163.887.887,0,0,0-.662.722l-.475,2.808a.173.173,0,0,1-.174.147H14.593a.173.173,0,0,1-.174-.147l-.468-2.808a.9.9,0,0,0-.662-.722,11.112,11.112,0,0,1-2.741-1.123.925.925,0,0,0-.455-.12.88.88,0,0,0-.521.167l-2.34,1.664a.2.2,0,0,1-.1.033.179.179,0,0,1-.127-.053L5.014,25.109a.181.181,0,0,1-.02-.227l1.644-2.306a.915.915,0,0,0,.04-.989A10.6,10.6,0,0,1,5.5,18.792a.915.915,0,0,0-.722-.662l-2.828-.481a.173.173,0,0,1-.147-.174V14.661a.173.173,0,0,1,.147-.174l2.788-.468a.9.9,0,0,0,.729-.668,10.69,10.69,0,0,1,1.143-2.808.893.893,0,0,0-.047-.976L4.9,7.227A.182.182,0,0,1,4.92,7L6.912,5.008a.17.17,0,0,1,.127-.053.164.164,0,0,1,.1.033L9.446,6.632a.915.915,0,0,0,.989.04A10.6,10.6,0,0,1,13.229,5.5a.915.915,0,0,0,.662-.722l.481-2.828a.173.173,0,0,1,.174-.147H17.36a.173.173,0,0,1,.174.147L18,4.734a.9.9,0,0,0,.668.729,10.85,10.85,0,0,1,2.868,1.177.9.9,0,0,0,.983-.04l2.306-1.658a.2.2,0,0,1,.1-.033.179.179,0,0,1,.127.053l1.992,1.992a.181.181,0,0,1,.02.227L25.415,9.5a.9.9,0,0,0-.04.983,10.7,10.7,0,0,1,1.163,2.8.887.887,0,0,0,.722.662l2.808.475a.173.173,0,0,1,.147.174v2.814Z" transform="translate(0 -0.001)" fill="#fff"/>
      <path id="路径_71" data-name="路径 71" d="M143.017,136a6.917,6.917,0,1,0,6.917,6.917A6.922,6.922,0,0,0,143.017,136Zm0,12.027a5.109,5.109,0,1,1,5.109-5.109A5.113,5.113,0,0,1,143.017,148.028Z" transform="translate(-127.014 -126.922)" fill="#fff"/>
    </g>
  </g>
</svg>
