<svg xmlns="http://www.w3.org/2000/svg" width="25.699" height="21.131" viewBox="0 0 25.699 21.131"><defs><style>.a{fill:#fff;}</style></defs><g transform="translate(11.143 17.818)"><circle class="a" cx="1.656" cy="1.656" r="1.656"/></g><g transform="translate(0 0)"><g transform="translate(0)"><path class="a" d="M25.43,50.989a17.159,17.159,0,0,0-25.16,0,1,1,0,1,0,1.469,1.369,15.152,15.152,0,0,1,22.222,0,1,1,0,1,0,1.469-1.369Z" transform="translate(0 -45.5)"/></g></g><g transform="translate(3.664 5.825)"><g transform="translate(0 0)"><path class="a" d="M91.077,165.357a12.286,12.286,0,0,0-17.788,0,1,1,0,1,0,1.425,1.414,10.279,10.279,0,0,1,14.938,0,1,1,0,0,0,1.425-1.414Z" transform="translate(-72.998 -161.547)"/></g></g><g transform="translate(7.583 11.695)"><g transform="translate(0 0)"><path class="a" d="M161.219,280.6a7.244,7.244,0,0,0-4.886-2.1h-.074a7.244,7.244,0,0,0-4.886,2.1,1,1,0,1,0,1.413,1.426,5.242,5.242,0,0,1,3.473-1.516h.074a5.242,5.242,0,0,1,3.473,1.516,1,1,0,1,0,1.413-1.426Z" transform="translate(-151.076 -278.5)"/></g></g></svg>