<?xml version="1.0" encoding="UTF-8" standalone="no"?>
<svg
   xmlns:dc="http://purl.org/dc/elements/1.1/"
   xmlns:cc="http://creativecommons.org/ns#"
   xmlns:rdf="http://www.w3.org/1999/02/22-rdf-syntax-ns#"
   xmlns:svg="http://www.w3.org/2000/svg"
   xmlns="http://www.w3.org/2000/svg"
   xmlns:sodipodi="http://sodipodi.sourceforge.net/DTD/sodipodi-0.dtd"
   xmlns:inkscape="http://www.inkscape.org/namespaces/inkscape"
   width="430"
   height="199"
   version="1.1"
   id="svg34"
   sodipodi:docname="logo_mobile.svg"
   inkscape:version="1.0.2 (e86c8708, 2021-01-15)">
  <metadata
     id="metadata40">
    <rdf:RDF>
      <cc:Work
         rdf:about="">
        <dc:format>image/svg+xml</dc:format>
        <dc:type
           rdf:resource="http://purl.org/dc/dcmitype/StillImage" />
        <dc:title></dc:title>
      </cc:Work>
    </rdf:RDF>
  </metadata>
  <defs
     id="defs38" />
  <sodipodi:namedview
     pagecolor="#ffffff"
     bordercolor="#666666"
     borderopacity="1"
     objecttolerance="10"
     gridtolerance="10"
     guidetolerance="10"
     inkscape:pageopacity="0"
     inkscape:pageshadow="2"
     inkscape:window-width="1440"
     inkscape:window-height="785"
     id="namedview36"
     showgrid="false"
     inkscape:pagecheckerboard="true"
     inkscape:zoom="2.5418605"
     inkscape:cx="215"
     inkscape:cy="99.5"
     inkscape:window-x="0"
     inkscape:window-y="25"
     inkscape:window-maximized="1"
     inkscape:current-layer="g32" />
  <path
     fill="none"
     d="M-1-1h432v201H-1z"
     id="path10" />
  <g
     id="g32">
    <g
       stroke="null"
       id="g30">
      <path
         d="M229.687 82.422a103.576 103.576 0 0110.12-20.305l-2.23-2.754c-3.698 7.227-6.39 14.956-7.89 23.06zM250.726 40.239a93.364 93.364 0 00-8.682 11.364l2.797 3.41a95.386 95.386 0 015.885-6.86V40.24zM304.902 107.954c6.24 0 11.302 5.418 11.302 12.082 0 6.677-5.065 12.092-11.302 12.092-6.253 0-11.312-5.415-11.312-12.092-.003-6.664 5.059-12.082 11.312-12.082zM337.748 122.462a37.177 37.177 0 01-2.463 11.15l89.877 20.331 1.563-6.673-88.977-24.808zM400.992 126.874c.149-2.358.226-4.74.226-7.135 0-54.569-39.944-98.961-89.055-98.961-20.073 0-38.628 7.41-53.526 19.919V32.38C276.427 16.675 300.598 7 327.225 7c33.817 0 64.665 14.805 81.54 39.374 4.838 7.04 8.421 14.99 11.565 23.205 6.073 15.897 9.161 32.756 9.161 50.163 0 3.054-.09 6.105-.288 9.128l.034-.403c-.337 5.894-1.076 11.702-2.156 17.45l-27.422-7.679c.656-3.874 1.132-7.825 1.358-11.819l-.025.455z"
         fill="#E10613"
         id="path12" />
      <path
         d="M374.019 124.423a64.197 64.197 0 01-.653 6.445l13.747 3.821c.482-3.047.823-6.129.98-9.23l-.024.471a98.6 98.6 0 00.2-5.894c.025-23.446-8.69-45.441-24.451-62-14.053-14.75-32.24-23.564-51.794-25.294l-1.247 15.055c35.42 3.144 63.36 34.356 63.36 72.242 0 1.634-.063 3.274-.17 4.898l.052-.514z"
         fill="#FFF"
         id="path14" />
      <path
         d="M347.169 123.034c.08-.993.105-1.992.105-2.998 0-22.93-17.128-41.781-38.842-43.656l1.238-15.05c28.95 2.538 51.768 27.896 51.744 58.706 0 1.33-.056 2.664-.14 3.995l.053-.545a92.399 92.399 0 01-.337 3.874l-13.821-3.874c.025-.331.025-.693.046-1.024l-.046.572z"
         fill="#FFF"
         id="path16" />
      <g
         fill="#FFF"
         id="g20">
        <path
           d="M7.643 11.536h6.67L27.6 61.569l18.598-50.033h1.358l18.407 50.033 13.514-50.033h6.621L67.434 80.97h-1.212L46.937 28.423 27.29 80.97h-1.22L7.644 11.536zM98.164 11.536h6.507V74.29h24.996V81h-31.5V11.536h-.003zM166.498 11.536l30.318 69.435H189.8l-10.204-22.84h-27.992l-10.12 22.84h-7.24l30.683-69.435h1.572zm-.81 14.743l-11.145 25.138h22.227L165.687 26.28zM206.903 80.971V11.536h1.413l43.258 53.244V11.536h6.414V80.97h-1.464l-42.889-52.576v52.576h-6.732z"
           id="path18" />
      </g>
      <path
         d="M 7.188,87.469 H 40.86 V 99.678 H 29.753 v 52.88 H 17.989 V 99.678 H 7.188 v -12.21 z m 41.562,0 h 11.76 v 24.563 H 80.868 V 87.469 h 11.736 v 65.113 H 80.868 V 124.03 H 60.51 v 28.55 H 48.75 V 87.47 Z m 57.79,0 h 33.248 V 99.585 H 118.04 v 11.785 h 21.748 v 11.915 H 118.04 v 17.122 h 21.748 v 12.178 H 106.539 V 87.469 Z m 44.84,0 h 12.3 c 6.729,0 11.509,0.637 14.365,1.933 2.852,1.3 5.145,3.416 6.893,6.414 1.727,2.983 2.605,6.498 2.605,10.57 0,4.297 -0.959,7.864 -2.883,10.736 -1.925,2.868 -4.805,5.04 -8.676,6.519 l 14.421,28.94 h -12.67 l -13.712,-27.579 h -1.07 v 27.58 h -11.59 V 87.469 h 0.018 z m 11.59,25.439 h 3.649 c 3.672,0 6.222,-0.508 7.602,-1.541 1.389,-1.021 2.097,-2.75 2.097,-5.133 0,-1.423 -0.337,-2.661 -1.049,-3.72 -0.65734,-1.03238 -1.62914,-1.82609 -2.772,-2.264 -1.16,-0.452 -3.286,-0.696 -6.364,-0.696 h -3.162 v 13.354 0 z m 42.754,-25.439 h 11.296 l 14.143,45.42 14.25,-45.42 h 11.278 l 10.21,65.088 h -11.225 l -6.531,-41.122 -12.945,41.122 h -10.217 l -12.834,-41.122 -6.695,41.122 h -11.312 z m 99.178,-1.662 c 8.617,0 16.033,3.326 22.218,10.006 6.197,6.67 9.304,14.802 9.304,24.378 0,9.492 -3.06,17.558 -9.196,24.114 -6.098,6.59 -13.536,9.886 -22.27,9.886 -9.137,0 -16.742,-3.391 -22.79,-10.124 -6.05,-6.77 -9.079,-14.78 -9.079,-24.08 0,-6.232 1.417,-11.971 4.24,-17.166 2.833,-5.198 6.704,-9.365 11.623,-12.42 4.945,-3.053 10.235,-4.594 15.95,-4.594 z m -0.142,12.147 c -5.632,0 -10.384,2.086 -14.224,6.284 -3.845,4.199 -5.77,9.517 -5.77,15.978 0,7.196 2.423,12.91 7.265,17.082 3.756,3.26 8.057,4.931 12.927,4.931 5.507,0 10.173,-2.122 14.05,-6.386 3.873,-4.248 5.785,-9.486 5.785,-15.71 0,-6.198 -1.946,-11.452 -5.838,-15.743 -3.874,-4.292 -8.608,-6.436 -14.195,-6.436 z m 123.212,87.926 -141.876,-0.149 2.457,-11.54 139.419,0.105 z M 1.325,173.807 l 287.228,0.384 -2.457,11.54 L 1,184.904 Z"
         fill="#ffffff"
         id="path22"
         sodipodi:nodetypes="cccccccccccccccccccccccccccccccccccccccsccsccccccccccccscsccsccccccccccccccccccscscscsccsscscscscscccccccccc" />
      <g
         id="g28">
        <g
           fill="#FFF"
           id="g26" />
      </g>
    </g>
  </g>
</svg>
