<svg width="430" height="199" xmlns="http://www.w3.org/2000/svg">

 <g>
  <title>background</title>
  <rect fill="none" id="canvas_background" height="201" width="432" y="-1" x="-1"/>
 </g>
 <g>
  <title>Layer 1</title>
  <g id="XMLID_11_"/>
  <g id="XMLID_6_"/>
  <g id="XMLID_56_"/>
  <g id="XMLID_57_"/>
  <g id="XMLID_58_"/>
  <g id="XMLID_59_"/>
  <g id="XMLID_60_"/>
  <g stroke="null" id="svg_1">
   <path stroke="null" d="m229.68674,82.42241c2.66393,-7.22449 6.0828,-14.04985 10.12047,-20.30591l-2.23077,-2.75366c-3.69733,7.22758 -6.38911,14.95639 -7.8897,23.05957z" fill="#E10613" id="XMLID_20_"/>
   <path stroke="null" d="m250.72593,40.23883c-3.19301,3.56429 -6.0828,7.373 -8.68176,11.36426l2.79697,3.40959c1.86568,-2.38547 3.81799,-4.67813 5.88479,-6.8594l0,-7.91445z" fill="#E10613" id="XMLID_24_"/>
   <path stroke="null" d="m304.90185,107.95409c6.2406,0 11.30238,5.41759 11.30238,12.08207c0,6.67685 -5.06488,12.09135 -11.30238,12.09135c-6.25297,0 -11.31166,-5.4145 -11.31166,-12.09135c-0.00309,-6.66447 5.05869,-12.08207 11.31166,-12.08207z" fill="#E10613" id="XMLID_32_"/>
   <path stroke="null" d="m337.74774,122.46185c-0.2568,3.92938 -1.10146,7.67312 -2.46282,11.15077l89.87757,20.33067l1.56247,-6.67376l-88.97722,-24.80768z" fill="#E10613" id="XMLID_27_"/>
   <path stroke="null" d="m400.99217,126.87389c0.14851,-2.35763 0.22586,-4.74001 0.22586,-7.13476c0,-54.56886 -39.94353,-98.96155 -89.05457,-98.96155c-20.07386,0 -38.62858,7.41013 -53.52618,19.91916l0,-8.31667c17.79049,-15.70514 41.96081,-25.38007 68.58777,-25.38007c33.81741,0 64.66458,14.80478 81.53925,39.37423c4.83901,7.03885 8.42186,14.99042 11.56537,23.20499c6.07352,15.89697 9.16133,32.75617 9.16133,50.163c0,3.05378 -0.08973,6.10446 -0.28774,9.1273l0.03403,-0.40222c-0.33725,5.89407 -1.07671,11.7015 -2.15652,17.45015l-27.42211,-7.67931c0.65593,-3.87369 1.1324,-7.82472 1.35827,-11.81908l-0.02475,0.45482z" fill="#E10613" id="XMLID_13_"/>
   <g stroke="null" id="svg_2">
    <path stroke="null" d="m374.01869,124.42345c-0.11138,2.17818 -0.32796,4.32232 -0.65283,6.4448l13.74664,3.82109c0.48266,-3.04759 0.823,-6.12921 0.9808,-9.2294l-0.02475,0.47029c0.11757,-1.9616 0.20111,-3.92938 0.20111,-5.89407c0.02475,-23.44632 -8.69104,-45.44156 -24.45187,-62.00064c-14.05294,-14.74909 -32.23947,-23.5639 -51.79354,-25.29344l-1.24688,15.0554c35.4201,3.1435 63.35891,34.35576 63.35891,72.24178c0,1.63363 -0.06188,3.27345 -0.17017,4.8978l0.0526,-0.5136z" fill="#FFFFFF" id="XMLID_12_"/>
    <g stroke="null" id="svg_3">
     <g stroke="null" id="XMLID_9_">
      <path stroke="null" d="m347.16897,123.03424c0.08044,-0.99317 0.1052,-1.99254 0.1052,-2.99808c0,-22.92963 -17.12838,-41.78136 -38.84206,-43.65632l1.2376,-15.04921c28.95055,2.53708 51.76879,27.89549 51.74404,58.70553c0,1.33042 -0.05569,2.66393 -0.13923,3.99435l0.0526,-0.54454c-0.08354,1.30257 -0.20111,2.59587 -0.33725,3.87369l-13.82089,-3.87369c0.02475,-0.33106 0.02475,-0.69306 0.04641,-1.02411l-0.04641,0.57239z" fill="#FFFFFF" id="XMLID_18_"/>
     </g>
    </g>
    <g stroke="null" id="XMLID_1_">
     <path stroke="null" d="m7.64282,11.5358l6.67066,0l13.28563,50.03306l18.59803,-50.03306l1.35827,0l18.4062,50.03306l13.51459,-50.03306l6.62116,0l-18.663,69.43552l-1.21285,0l-19.28489,-52.54848l-19.64689,52.54848l-1.21904,0l-18.42786,-69.43552z" fill="#FFFFFF" id="XMLID_44_"/>
     <path stroke="null" d="m98.16394,11.5358l6.50668,0l0,62.75558l24.99642,0l0,6.70779l-31.5,0l0,-69.46337l-0.00309,0z" fill="#FFFFFF" id="XMLID_47_"/>
     <path stroke="null" d="m166.498,11.5358l30.31809,69.43552l-7.01719,0l-10.20401,-22.8399l-27.99141,0l-10.12047,22.8399l-7.23996,0l30.68319,-69.43552l1.57175,0zm-0.81063,14.7429l-11.14458,25.13874l22.22729,0l-11.0827,-25.13874z" fill="#FFFFFF" id="XMLID_51_"/>
     <path stroke="null" d="m206.90253,80.97132l0,-69.43552l1.41396,0l43.2572,53.24463l0,-53.24463l6.41386,0l0,69.43552l-1.46346,0l-42.88901,-52.57632l0,52.57632l-6.73254,0z" fill="#FFFFFF" id="XMLID_54_"/>
    </g>
    <path stroke="null" d="m7.188,87.46872l33.67199,0l0,12.20892l-11.10746,0l0,52.87953l-11.76338,0l0,-52.87953l-10.80115,0l0,-12.20892z" fill="#FFFFFF" id="XMLID_16_"/>
    <path stroke="null" d="m48.74968,87.46872l11.76029,0l0,24.56326l20.35851,0l0,-24.56326l11.73554,0l0,65.11321l-11.73554,0l0,-28.55142l-20.35851,0l0,28.55142l-11.76029,0l0,-65.11321z" fill="#FFFFFF" id="XMLID_19_"/>
    <path stroke="null" d="m106.5394,87.46872l33.24811,0l0,12.1161l-21.74772,0l0,11.78504l21.74772,0l0,11.91499l-21.74772,0l0,17.12219l21.74772,0l0,12.17798l-33.24811,0l0,-65.1163z" fill="#FFFFFF" id="XMLID_30_"/>
    <path stroke="null" d="m151.38072,87.46872l12.29865,0c6.72945,0 11.50968,0.63736 14.36544,1.93375c2.85267,1.29948 5.14532,3.41577 6.89343,6.41386c1.72645,2.98261 2.60515,6.4974 2.60515,10.5691c0,4.29756 -0.95914,7.86495 -2.88361,10.73618c-1.92447,2.86814 -4.80498,5.04012 -8.67557,6.51906l14.42113,28.94127l-12.66993,0l-13.7126,-27.57991l-1.07052,0l0,27.57991l-11.59012,0l0,-65.11321l0.01856,0zm11.59012,25.43886l3.64782,0c3.67258,0 6.22203,-0.50742 7.60196,-1.54081c1.38921,-1.02102 2.09773,-2.75056 2.09773,-5.13294c0,-1.42324 -0.33725,-2.66084 -1.04887,-3.71899c-0.67759,-1.05196 -1.61197,-1.80999 -2.77222,-2.26481c-1.16025,-0.45172 -3.28583,-0.69615 -6.36436,-0.69615l-3.16207,0l0,13.3537l0,0z" fill="#FFFFFF" id="XMLID_36_"/>
    <path stroke="null" d="m205.72372,87.46872l11.29619,0l14.14267,45.4199l14.25096,-45.4199l11.27763,0l10.2102,65.08845l-11.22503,0l-6.53143,-41.12234l-12.94529,41.12234l-10.21638,0l-12.83391,-41.12234l-6.69541,41.12234l-11.31166,0l10.58148,-65.08845z" fill="#FFFFFF" id="XMLID_39_"/>
    <path stroke="null" d="m304.90185,85.80725c8.61679,0 16.0331,3.32605 22.21801,10.00599c6.19728,6.67066 9.30365,14.80169 9.30365,24.37762c0,9.49239 -3.05996,17.55844 -9.19536,24.11463c-6.09827,6.59022 -13.53625,9.88533 -22.2706,9.88533c-9.13658,0 -16.74163,-3.39102 -22.7904,-10.12356c-6.04877,-6.76967 -9.07779,-14.78003 -9.07779,-24.08059c0,-6.23131 1.41705,-11.97068 4.23878,-17.16551c2.8341,-5.19792 6.7047,-9.36553 11.62415,-12.41931c4.94421,-3.05378 10.23495,-4.59459 15.94956,-4.59459zm-0.14232,12.14704c-5.63108,0 -10.38346,2.08536 -14.22311,6.28391c-3.84584,4.19856 -5.77031,9.51714 -5.77031,15.97741c0,7.19664 2.4226,12.91126 7.26471,17.08197c3.75611,3.26107 8.05677,4.93183 12.92673,4.93183c5.50732,0 10.17307,-2.12248 14.04985,-6.38601c3.87369,-4.24806 5.78578,-9.4862 5.78578,-15.71133c0,-6.19728 -1.94613,-11.45089 -5.83838,-15.74227c-3.87369,-4.29138 -8.6075,-6.43552 -14.19527,-6.43552z" fill="#FFFFFF" id="XMLID_41_"/>
   </g>
   <polygon stroke="null" id="svg_4" points="427.9718322753906,185.8795623779297 286.0964660644531,185.73110961914062 288.55316162109375,174.19036865234375 427.9718322753906,174.29556274414062 " fill="#FFFFFF"/>
   <polygon stroke="null" id="svg_5" points="1.324902892112732,173.8068389892578 150.02862548828125,173.56228637695312 147.1914520263672,184.39129638671875 1,184.90493774414062 " fill="#FFFFFF"/>
   <g stroke="null" id="svg_6">
    <g stroke="null" id="svg_7">
     <path stroke="null" id="svg_8" d="m202.93912,191.60963l-6.97078,0l5.17626,-20.28116c0.03713,-0.19492 0.05569,-0.38366 0.05569,-0.57858c0,-0.64974 -0.26299,-1.1881 -0.79516,-1.61197s-1.1881,-0.63427 -1.97397,-0.63427l-10.45153,0l-5.91882,23.10289l-6.97078,0l5.91573,-23.10289l-10.5196,0c-0.9282,0 -1.80071,0.28155 -2.61443,0.83847c-0.81372,0.55692 -1.31186,1.22213 -1.4975,1.98944l-5.17626,20.27807l-6.97078,0l5.21958,-20.44514c0.60333,-2.2679 2.13177,-4.24187 4.59149,-5.91882c2.45973,-1.67385 5.05559,-2.51233 7.79378,-2.51233l28.32247,0c2.36382,0 4.32232,0.65283 5.8786,1.9616c1.55319,1.31186 2.32978,2.90836 2.32978,4.79879c0,0.57548 -0.06807,1.1355 -0.2073,1.67076l-5.21648,20.44514z" fill="#FFFFFF"/>
     <path stroke="null" id="svg_9" d="m216.78786,191.60963l-6.97387,0l7.37609,-28.87629l6.97078,0l-7.373,28.87629z" fill="#FFFFFF"/>
     <path stroke="null" id="svg_10" d="m262.99364,191.60963l-6.97078,0l5.17626,-20.28116c0.03713,-0.19492 0.05569,-0.38366 0.05569,-0.57858c0,-0.64974 -0.26608,-1.1881 -0.79825,-1.61197c-0.52907,-0.42388 -1.19119,-0.63427 -1.97707,-0.63427l-17.40684,0l-5.90026,23.10289l-6.97078,0l7.37609,-28.87629l24.63442,0c2.36382,0 4.32232,0.65283 5.8786,1.9616c1.55319,1.31186 2.32978,2.90836 2.32978,4.79879c0,0.57548 -0.06807,1.1355 -0.2073,1.67076l-5.21958,20.44824z" fill="#FFFFFF"/>
     <path stroke="null" id="svg_11" d="m276.83928,191.60963l-6.97078,0l7.37919,-28.87629l6.96769,0l-7.37609,28.87629z" fill="#FFFFFF"/>
    </g>
   </g>
  </g>
 </g>
</svg>