<?xml version="1.0" encoding="utf-8"?>
<!-- Generator: Adobe Illustrator 16.0.3, SVG Export Plug-In . SVG Version: 6.00 Build 0)  -->
<!DOCTYPE svg PUBLIC "-//W3C//DTD SVG 1.1//EN" "http://www.w3.org/Graphics/SVG/1.1/DTD/svg11.dtd">
<svg version="1.1" id="Layer_1" xmlns="http://www.w3.org/2000/svg" xmlns:xlink="http://www.w3.org/1999/xlink" x="0px" y="0px"
	 width="1203.743px" height="500.125px" viewBox="0 0 1203.743 500.125" enable-background="new 0 0 1203.743 500.125"
	 xml:space="preserve">
<path id="XMLID_25_" display="none" fill="none" stroke="#010202" stroke-width="100.025" stroke-miterlimit="10" d="
	M712.179,412.565c-88.217,0-159.713-70.518-159.713-157.508S623.962,97.592,712.179,97.592s159.715,70.516,159.715,157.506"/>
<g id="XMLID_11_">
</g>
<g id="XMLID_6_">
</g>
<g id="XMLID_56_">
</g>
<g id="XMLID_57_">
</g>
<g id="XMLID_58_">
</g>
<g id="XMLID_59_">
</g>
<g id="XMLID_60_">
</g>
<g>
	<g>
		<path id="XMLID_32_" fill="#FF0000" d="M851.888,265.43c17.627,0,31.934,14.233,31.934,31.787s-14.307,31.787-31.934,31.787
			s-31.934-14.233-31.934-31.787S834.261,265.43,851.888,265.43z"/>
		<path id="XMLID_27_" fill="#FF0000" d="M944.661,303.564c-0.732,10.327-3.125,20.19-6.982,29.346l253.809,53.467l4.395-17.578
			L944.661,303.564z"/>
		<g id="XMLID_7_">
			<path id="XMLID_20_" fill="#FF0000" d="M639.51,198.315c7.52-18.994,17.163-36.963,28.589-53.394l-6.299-7.251
				C651.351,156.665,643.758,177.002,639.51,198.315z"/>
			<path id="XMLID_24_" fill="#FF0000" d="M698.909,87.378c-9.033,9.375-17.139,19.385-24.512,29.883l7.91,8.984
				c5.273-6.274,10.791-12.305,16.602-18.042V87.378z"/>
		</g>
		<path id="XMLID_13_" fill="#FF0000" d="M1123.226,315.161c0.439-6.177,0.635-12.476,0.635-18.75
			c0-143.481-112.793-260.181-251.465-260.181c-56.689,0-109.033,19.458-151.123,52.344V66.748C771.468,25.415,839.729,0,914.974,0
			c95.459,0,182.568,38.916,230.225,103.516c13.672,18.506,23.779,39.404,32.666,61.011c17.139,41.797,25.879,86.133,25.879,131.885
			c0,8.032-0.244,16.064-0.83,23.999l0.098-1.025c-0.977,15.479-3.027,30.762-6.055,45.85l-77.441-20.215
			c1.807-10.156,3.174-20.557,3.809-31.03L1123.226,315.161z"/>
		<path id="XMLID_12_" fill="#FFFFFF" d="M1047.054,308.74c-0.293,5.713-0.928,11.353-1.807,16.919l38.818,10.083
			c1.318-8.008,2.295-16.113,2.783-24.292l-0.098,1.27c0.342-5.176,0.586-10.327,0.586-15.503
			c0.049-61.646-24.512-119.482-69.092-163.037c-39.648-38.77-91.016-61.963-146.24-66.479l-3.516,39.551
			c100.049,8.252,178.906,90.332,178.906,189.966c0,4.297-0.146,8.569-0.488,12.866L1047.054,308.74z"/>
		<g>
			<g id="XMLID_9_">
				<path id="XMLID_18_" fill="#FFFFFF" d="M971.224,305.078c0.244-2.612,0.342-5.225,0.342-7.861
					c0-60.303-48.389-109.888-109.717-114.795l3.516-39.575c81.738,6.665,146.191,73.34,146.094,154.37
					c0,3.491-0.146,6.982-0.391,10.498l0.146-1.44c-0.195,3.418-0.537,6.836-0.928,10.156l-39.063-10.156
					c0.098-0.879,0.098-1.831,0.146-2.71L971.224,305.078z"/>
			</g>
		</g>
		<g id="XMLID_1_">
			<path id="XMLID_44_" fill="#FFFFFF" d="M12.483,11.914h18.823l37.524,131.567L121.37,11.914h3.833l51.978,131.567L215.34,11.914
				h18.677l-52.686,182.568h-3.442L123.445,56.323L67.952,194.482h-3.418L12.483,11.914z"/>
			<path id="XMLID_47_" fill="#FFFFFF" d="M268.099,11.914h18.384v165.015h70.557v17.651h-88.94V11.914z"/>
			<path id="XMLID_51_" fill="#FFFFFF" d="M461.067,11.914l85.596,182.568h-19.8l-28.809-60.059h-79.053l-28.589,60.059h-20.435
				L456.6,11.914H461.067z M458.772,50.684l-31.47,66.113h62.769L458.772,50.684z"/>
			<path id="XMLID_54_" fill="#FFFFFF" d="M575.179,194.482V11.914h3.979l122.144,139.99V11.914h18.115v182.568h-4.15L594.173,56.25
				v138.232H575.179z"/>
		</g>
		<path id="XMLID_16_" fill="#FFFFFF" d="M11.189,211.572h95.093v32.104H74.91v139.038H41.683V243.677H11.189V211.572z"/>
		<path id="XMLID_19_" fill="#FFFFFF" d="M128.548,211.572h33.228v64.575h57.471v-64.575h33.13v171.191h-33.13v-75.049h-57.471
			v75.049h-33.228V211.572z"/>
		<path id="XMLID_30_" fill="#FFFFFF" d="M291.756,211.572h93.872v31.86h-61.401v30.981h61.401v31.299h-61.401v45.068h61.401v31.982
			h-93.872V211.572z"/>
		<path id="XMLID_36_" fill="#FFFFFF" d="M418.367,211.572h34.741c18.994,0,32.471,1.66,40.552,5.078
			c8.057,3.418,14.526,8.984,19.458,16.846c4.883,7.861,7.349,17.09,7.349,27.808c0,11.279-2.71,20.654-8.13,28.198
			c-5.42,7.568-13.574,13.281-24.512,17.163l40.723,76.099h-35.767l-38.721-72.51h-3.052v72.51h-32.715V211.572H418.367z
			 M451.106,278.467h10.278c10.4,0,17.578-1.367,21.484-4.053s5.908-7.227,5.908-13.501c0-3.735-0.952-6.982-2.954-9.766
			c-1.904-2.783-4.541-4.785-7.813-5.957c-3.271-1.196-9.277-1.831-17.969-1.831h-8.936V278.467L451.106,278.467z"/>
		<path id="XMLID_39_" fill="#FFFFFF" d="M571.81,211.572h31.934l39.917,119.434l40.259-119.434h31.836l28.809,171.143h-31.689
			l-18.408-108.154l-36.572,108.154h-28.833l-36.255-108.154l-18.921,108.154h-31.934L571.81,211.572z"/>
		<path id="XMLID_41_" fill="#FFFFFF" d="M851.888,207.202c24.365,0,45.264,8.74,62.744,26.294s26.27,38.94,26.27,64.111
			c0,24.951-8.643,46.143-25.928,63.379c-17.285,17.334-38.281,26.025-62.939,26.025c-25.781,0-47.266-8.936-64.355-26.611
			c-17.09-17.822-25.635-38.867-25.635-63.33c0-16.382,4.004-31.47,11.963-45.142c8.008-13.672,18.945-24.634,32.861-32.642
			C820.833,211.255,835.774,207.202,851.888,207.202z M851.497,239.136c-15.918,0-29.346,5.493-40.186,16.528
			s-16.26,25.024-16.26,42.017c0,18.921,6.836,33.911,20.508,44.897c10.596,8.594,22.754,12.939,36.475,12.939
			c15.576,0,28.76-5.566,39.697-16.748c10.938-11.206,16.357-24.951,16.357-41.309c0-16.309-5.518-30.103-16.553-41.406
			C880.647,244.775,867.269,239.136,851.497,239.136z"/>
	</g>
	<g>
		<polygon fill="#FFFFFF" stroke="#FFFFFF" stroke-miterlimit="10" points="-0.5,442.591 384.417,442.09 378.625,467.893 
			-0.5,466.893 		"/>
		<polygon fill="#FFFFFF" stroke="#FFFFFF" stroke-miterlimit="10" points="1203.5,465.088 818.917,465.589 824.541,439.786 
			1203.5,440.786 		"/>
		<g>
			<path fill="#FFFFFF" stroke="#FFFFFF" stroke-width="2" stroke-miterlimit="10" d="M476.778,472.364
				c-1.3,6.284-4.822,11.809-10.563,16.574c-5.743,4.769-11.809,7.15-18.2,7.15h-57.525l17.225-81.25h57.525
				c5.525,0,10.101,1.844,13.731,5.525c3.628,3.684,5.444,8.233,5.444,13.649c0,1.519-0.163,3.034-0.488,4.55L476.778,472.364z
				 M460.604,471.858l6.947-32.835c0.432-2.158,0.028-4.021-1.211-5.586s-2.935-2.349-5.088-2.349h-40.539l-10.499,48.75h40.831
				c2.052,0,4.022-0.813,5.914-2.442C458.848,475.769,460.064,473.923,460.604,471.858z"/>
			<path fill="#FFFFFF" stroke="#FFFFFF" stroke-width="2" stroke-miterlimit="10" d="M569.079,496.089h-57.525
				c-5.525,0-10.103-1.841-13.731-5.525c-3.631-3.682-5.444-8.231-5.444-13.649c0-1.516,0.163-3.032,0.487-4.55l12.188-57.525h81.25
				l-3.412,16.25h-65.003l-8.64,40.782c-0.089,0.544-0.132,1.031-0.132,1.463c0,1.843,0.594,3.39,1.788,4.636
				c1.191,1.247,2.707,1.869,4.55,1.869h57.037L569.079,496.089z M575.904,463.589h-48.75l-4.55-16.25h56.875L575.904,463.589z"/>
			<path fill="#FFFFFF" stroke="#FFFFFF" stroke-width="2" stroke-miterlimit="10" d="M699.24,496.089h-16.279l12.09-57.065
				c0.084-0.538,0.127-1.079,0.127-1.62c0-1.833-0.619-3.344-1.857-4.532c-1.24-1.188-2.775-1.782-4.609-1.782h-24.408l-13.814,65
				h-16.281l13.816-65h-24.568c-2.168,0-4.203,0.784-6.102,2.352c-1.898,1.568-3.064,3.433-3.496,5.596l-12.088,57.053h-16.278
				l12.188-57.525c1.407-6.391,4.981-11.943,10.726-16.656c5.74-4.712,11.807-7.068,18.199-7.068h66.137
				c5.525,0,10.102,1.844,13.732,5.525c3.627,3.684,5.443,8.181,5.443,13.487c0,1.625-0.162,3.196-0.488,4.712L699.24,496.089z"/>
			<path fill="#FFFFFF" stroke="#FFFFFF" stroke-width="2" stroke-miterlimit="10" d="M801.615,472.364
				c-1.299,6.284-4.82,11.809-10.563,16.574c-5.742,4.769-11.809,7.15-18.199,7.15h-33.801c-5.523,0-10.102-1.841-13.73-5.525
				c-3.631-3.682-5.443-8.231-5.443-13.649c0-1.516,0.162-3.032,0.486-4.55l7.15-33.801c1.406-6.391,4.982-11.943,10.725-16.656
				c5.742-4.712,11.807-7.068,18.201-7.068h33.637c5.525,0,10.102,1.844,13.732,5.525c3.627,3.684,5.443,8.233,5.443,13.649
				c0,1.519-0.162,3.034-0.488,4.55L801.615,472.364z M785.441,471.858l6.947-32.835c0.432-2.158,0.025-4.021-1.219-5.586
				s-2.947-2.349-5.111-2.349h-32.787c-2.057,0-4.059,0.784-6.006,2.352c-1.949,1.568-3.139,3.433-3.57,5.596l-6.947,32.835
				c-0.09,0.544-0.133,1.084-0.133,1.625c0,1.737,0.596,3.228,1.785,4.474c1.189,1.247,2.705,1.869,4.543,1.869h32.93
				c2.053,0,4.025-0.813,5.92-2.442C783.686,475.769,784.9,473.923,785.441,471.858z"/>
		</g>
	</g>
</g>
</svg>
