<?xml version="1.0" encoding="UTF-8" standalone="no"?>
<!-- Generator: Adobe Illustrator 16.0.3, SVG Export Plug-In . SVG Version: 6.00 Build 0)  -->

<svg
   xmlns:dc="http://purl.org/dc/elements/1.1/"
   xmlns:cc="http://creativecommons.org/ns#"
   xmlns:rdf="http://www.w3.org/1999/02/22-rdf-syntax-ns#"
   xmlns:svg="http://www.w3.org/2000/svg"
   xmlns="http://www.w3.org/2000/svg"
   xmlns:sodipodi="http://sodipodi.sourceforge.net/DTD/sodipodi-0.dtd"
   xmlns:inkscape="http://www.inkscape.org/namespaces/inkscape"
   version="1.1"
   id="Layer_1"
   x="0px"
   y="0px"
   width="1203.743px"
   height="500.125px"
   viewBox="0 0 1203.743 500.125"
   enable-background="new 0 0 1203.743 500.125"
   xml:space="preserve"
   sodipodi:docname="WLANThermoBone_white.svg"
   inkscape:version="0.92.2 (5c3e80d, 2017-08-06)"><metadata
     id="metadata4616"><rdf:RDF><cc:Work
         rdf:about=""><dc:format>image/svg+xml</dc:format><dc:type
           rdf:resource="http://purl.org/dc/dcmitype/StillImage" /><dc:title></dc:title></cc:Work></rdf:RDF></metadata><defs
     id="defs4614" /><sodipodi:namedview
     pagecolor="#ffffff"
     bordercolor="#666666"
     borderopacity="1"
     objecttolerance="10"
     gridtolerance="10"
     guidetolerance="10"
     inkscape:pageopacity="0"
     inkscape:pageshadow="2"
     inkscape:window-width="1920"
     inkscape:window-height="1001"
     id="namedview4612"
     showgrid="false"
     inkscape:zoom="0.97035431"
     inkscape:cx="534.86978"
     inkscape:cy="244.53257"
     inkscape:window-x="-9"
     inkscape:window-y="-9"
     inkscape:window-maximized="1"
     inkscape:current-layer="Layer_1" /><path
     id="XMLID_25_"
     display="none"
     fill="none"
     stroke="#010202"
     stroke-width="100.025"
     stroke-miterlimit="10"
     d="  M712.179,412.565c-88.217,0-159.713-70.518-159.713-157.508S623.962,97.592,712.179,97.592s159.715,70.516,159.715,157.506" /><g
     id="XMLID_11_" /><g
     id="XMLID_6_" /><g
     id="XMLID_56_" /><g
     id="XMLID_57_" /><g
     id="XMLID_58_" /><g
     id="XMLID_59_" /><g
     id="XMLID_60_" /><g
     id="g4591"><path
       style="fill:#ff0000"
       inkscape:connector-curvature="0"
       d="m 851.888,265.43 c 17.627,0 31.934,14.233 31.934,31.787 0,17.554 -14.307,31.787 -31.934,31.787 -17.627,0 -31.934,-14.233 -31.934,-31.787 0,-17.554 14.307,-31.787 31.934,-31.787 z"
       id="XMLID_32_" /><path
       style="fill:#ff0000"
       inkscape:connector-curvature="0"
       d="m 944.661,303.564 c -0.732,10.327 -3.125,20.19 -6.982,29.346 l 253.809,53.467 4.395,-17.578 z"
       id="XMLID_27_" /><g
       id="XMLID_7_"><path
         style="fill:#ff0000"
         inkscape:connector-curvature="0"
         d="m 639.51,198.315 c 7.52,-18.994 17.163,-36.963 28.589,-53.394 L 661.8,137.67 c -10.449,18.995 -18.042,39.332 -22.29,60.645 z"
         id="XMLID_20_" /><path
         style="fill:#ff0000"
         inkscape:connector-curvature="0"
         d="m 698.909,87.378 c -9.033,9.375 -17.139,19.385 -24.512,29.883 l 7.91,8.984 c 5.273,-6.274 10.791,-12.305 16.602,-18.042 z"
         id="XMLID_24_" /></g><path
       style="fill:#ff0000"
       inkscape:connector-curvature="0"
       d="m 1123.226,315.161 c 0.439,-6.177 0.635,-12.476 0.635,-18.75 0,-143.481 -112.793,-260.181 -251.465,-260.181 -56.689,0 -109.033,19.458 -151.123,52.344 V 66.748 C 771.468,25.415 839.729,0 914.974,0 c 95.459,0 182.568,38.916 230.225,103.516 13.672,18.506 23.779,39.404 32.666,61.011 17.139,41.797 25.879,86.133 25.879,131.885 0,8.032 -0.244,16.064 -0.83,23.999 l 0.098,-1.025 c -0.977,15.479 -3.027,30.762 -6.055,45.85 l -77.441,-20.215 c 1.807,-10.156 3.174,-20.557 3.809,-31.03 z"
       id="XMLID_13_" /><path
       style="fill:#ffffff"
       inkscape:connector-curvature="0"
       d="m 1047.054,308.74 c -0.293,5.713 -0.928,11.353 -1.807,16.919 l 38.818,10.083 c 1.318,-8.008 2.295,-16.113 2.783,-24.292 l -0.098,1.27 c 0.342,-5.176 0.586,-10.327 0.586,-15.503 0.049,-61.646 -24.512,-119.482 -69.092,-163.037 C 978.596,95.41 927.228,72.217 872.004,67.701 l -3.516,39.551 c 100.049,8.252 178.906,90.332 178.906,189.966 0,4.297 -0.146,8.569 -0.488,12.866 z"
       id="XMLID_12_" /><g
       id="g4578"><g
         id="XMLID_9_"><path
           style="fill:#ffffff"
           inkscape:connector-curvature="0"
           d="m 971.224,305.078 c 0.244,-2.612 0.342,-5.225 0.342,-7.861 0,-60.303 -48.389,-109.888 -109.717,-114.795 l 3.516,-39.575 c 81.738,6.665 146.191,73.34 146.094,154.37 0,3.491 -0.146,6.982 -0.391,10.498 l 0.146,-1.44 c -0.195,3.418 -0.537,6.836 -0.928,10.156 l -39.063,-10.156 c 0.098,-0.879 0.098,-1.831 0.146,-2.71 z"
           id="XMLID_18_" /></g></g><g
       id="XMLID_1_"><path
         style="fill:#ffffff"
         inkscape:connector-curvature="0"
         d="M 12.483,11.914 H 31.306 L 68.83,143.481 121.37,11.914 h 3.833 L 177.181,143.481 215.34,11.914 h 18.677 l -52.686,182.568 h -3.442 L 123.445,56.323 67.952,194.482 h -3.418 z"
         id="XMLID_44_" /><path
         style="fill:#ffffff"
         inkscape:connector-curvature="0"
         d="m 268.099,11.914 h 18.384 V 176.929 H 357.04 V 194.58 H 268.1 V 11.914 Z"
         id="XMLID_47_" /><path
         style="fill:#ffffff"
         inkscape:connector-curvature="0"
         d="m 461.067,11.914 85.596,182.568 h -19.8 l -28.809,-60.059 h -79.053 l -28.589,60.059 H 369.977 L 456.6,11.914 Z m -2.295,38.77 -31.47,66.113 h 62.769 z"
         id="XMLID_51_" /><path
         style="fill:#ffffff"
         inkscape:connector-curvature="0"
         d="M 575.179,194.482 V 11.914 h 3.979 l 122.144,139.99 V 11.914 h 18.115 v 182.568 h -4.15 L 594.173,56.25 v 138.232 z"
         id="XMLID_54_" /></g><path
       style="fill:#ffffff"
       inkscape:connector-curvature="0"
       d="m 11.189,211.572 h 95.093 v 32.104 H 74.91 V 382.714 H 41.683 V 243.677 H 11.189 Z"
       id="XMLID_16_" /><path
       style="fill:#ffffff"
       inkscape:connector-curvature="0"
       d="m 128.548,211.572 h 33.228 v 64.575 h 57.471 v -64.575 h 33.13 v 171.191 h -33.13 v -75.049 h -57.471 v 75.049 h -33.228 z"
       id="XMLID_19_" /><path
       style="fill:#ffffff"
       inkscape:connector-curvature="0"
       d="m 291.756,211.572 h 93.872 v 31.86 h -61.401 v 30.981 h 61.401 v 31.299 h -61.401 v 45.068 h 61.401 v 31.982 h -93.872 z"
       id="XMLID_30_" /><path
       style="fill:#ffffff"
       inkscape:connector-curvature="0"
       d="m 418.367,211.572 h 34.741 c 18.994,0 32.471,1.66 40.552,5.078 8.057,3.418 14.526,8.984 19.458,16.846 4.883,7.861 7.349,17.09 7.349,27.808 0,11.279 -2.71,20.654 -8.13,28.198 -5.42,7.568 -13.574,13.281 -24.512,17.163 l 40.723,76.099 h -35.767 l -38.721,-72.51 h -3.052 v 72.51 H 418.293 V 211.572 Z m 32.739,66.895 h 10.278 c 10.4,0 17.578,-1.367 21.484,-4.053 3.906,-2.686 5.908,-7.227 5.908,-13.501 0,-3.735 -0.952,-6.982 -2.954,-9.766 -1.904,-2.783 -4.541,-4.785 -7.813,-5.957 -3.271,-1.196 -9.277,-1.831 -17.969,-1.831 h -8.936 v 35.108 z"
       id="XMLID_36_" /><path
       style="fill:#ffffff"
       inkscape:connector-curvature="0"
       d="m 571.81,211.572 h 31.934 l 39.917,119.434 40.259,-119.434 h 31.836 l 28.809,171.143 H 712.876 L 694.468,274.561 657.896,382.715 H 629.063 L 592.808,274.561 573.887,382.715 h -31.934 z"
       id="XMLID_39_" /><path
       style="fill:#ffffff"
       inkscape:connector-curvature="0"
       d="m 851.888,207.202 c 24.365,0 45.264,8.74 62.744,26.294 17.48,17.554 26.27,38.94 26.27,64.111 0,24.951 -8.643,46.143 -25.928,63.379 -17.285,17.334 -38.281,26.025 -62.939,26.025 -25.781,0 -47.266,-8.936 -64.355,-26.611 -17.09,-17.822 -25.635,-38.867 -25.635,-63.33 0,-16.382 4.004,-31.47 11.963,-45.142 8.008,-13.672 18.945,-24.634 32.861,-32.642 13.964,-8.031 28.905,-12.084 45.019,-12.084 z m -0.391,31.934 c -15.918,0 -29.346,5.493 -40.186,16.528 -10.84,11.035 -16.26,25.024 -16.26,42.017 0,18.921 6.836,33.911 20.508,44.897 10.596,8.594 22.754,12.939 36.475,12.939 15.576,0 28.76,-5.566 39.697,-16.748 10.938,-11.206 16.357,-24.951 16.357,-41.309 0,-16.309 -5.518,-30.103 -16.553,-41.406 -10.888,-11.279 -24.266,-16.918 -40.038,-16.918 z"
       id="XMLID_41_" /></g><polygon
     stroke-miterlimit="10"
     points="-0.5,466.893 -0.5,442.591 384.417,442.09 378.625,467.893 "
     id="polygon4593"
     style="fill:#ffffff;fill-opacity:1;stroke:#ffffff;stroke-miterlimit:10"
     transform="matrix(1.0354602,0,0,1.0302029,0.19106869,-13.742055)" /><polygon
     stroke-miterlimit="10"
     points="818.917,465.589 824.541,439.786 1203.5,440.786 1203.5,465.088 "
     id="polygon4595"
     style="fill:#ffffff;fill-opacity:1;stroke:#ffffff;stroke-miterlimit:10"
     transform="matrix(1.0300642,0,0,1.051412,-36.398682,-23.273583)" /><path
     style="fill:#ffffff;fill-opacity:1;stroke:#ffffff;stroke-width:2;stroke-miterlimit:10"
     inkscape:connector-curvature="0"
     id="path4597"
     d="m 492.30332,474.89565 c -1.3,6.284 -3.39795,9.75203 -9.13895,14.51703 -5.743,4.769 -12.75837,6.67532 -19.14937,6.67532 H 406.49 l 17.225,-81.25 h 57.525 c 5.525,0 9.62632,2.63514 13.25632,6.31614 3.628,3.684 5.28577,6.80895 5.28577,12.22495 0,1.519 -0.163,3.66691 -0.488,5.18291 l -3.19963,8.52203 -3.78853,7.41769 0.0664,10.80502 z M 476.604,471.858 476.86803,454.30188 483.551,439.023 c 0.432,-2.158 0.028,-4.021 -1.211,-5.586 -1.239,-1.565 -2.935,-2.349 -5.088,-2.349 h -40.539 l -10.499,48.75 h 40.831 c 2.052,0 4.022,-0.813 5.914,-2.442 1.889,-1.627 3.105,-3.473 3.645,-5.538 z"
     stroke-miterlimit="10"
     sodipodi:nodetypes="ccsccscsccccccccssccscc" /><path
     style="fill:#ffffff;fill-opacity:1;stroke:#ffffff;stroke-width:2;stroke-miterlimit:10"
     inkscape:connector-curvature="0"
     id="path4599"
     d="m 780.579,496.089 h -57.525 c -5.525,0 -10.103,-1.841 -13.731,-5.525 -3.631,-3.682 -5.444,-8.231 -5.444,-13.649 0,-1.516 0.163,-3.032 0.487,-4.55 l 12.188,-57.525 h 81.25 l -3.412,16.25 h -65.003 l -8.64,40.782 c -0.089,0.544 -0.132,1.031 -0.132,1.463 0,1.843 0.594,3.39 1.788,4.636 1.191,1.247 2.707,1.869 4.55,1.869 h 57.037 z m 6.825,-32.5 h -48.75 l -4.55,-16.25 h 56.875 z"
     stroke-miterlimit="10" /><path
     style="fill:#ffffff;fill-opacity:1;stroke:#ffffff;stroke-width:2;stroke-miterlimit:10"
     inkscape:connector-curvature="0"
     id="path4603"
     d="m 591.115,472.364 c -1.299,6.284 -4.82,11.809 -10.563,16.574 -5.742,4.769 -11.809,7.15 -18.199,7.15 h -33.801 c -5.523,0 -10.102,-1.841 -13.73,-5.525 -3.631,-3.682 -5.443,-8.231 -5.443,-13.649 0,-1.516 0.162,-3.032 0.486,-4.55 l 7.15,-33.801 c 1.406,-6.391 4.982,-11.943 10.725,-16.656 5.742,-4.712 11.807,-7.068 18.201,-7.068 h 33.637 c 5.525,0 10.102,1.844 13.732,5.525 3.627,3.684 5.443,8.233 5.443,13.649 0,1.519 -0.162,3.034 -0.488,4.55 z m -16.174,-0.506 6.947,-32.835 c 0.432,-2.158 0.025,-4.021 -1.219,-5.586 -1.244,-1.565 -2.947,-2.349 -5.111,-2.349 h -32.787 c -2.057,0 -4.059,0.784 -6.006,2.352 -1.949,1.568 -3.139,3.433 -3.57,5.596 l -6.947,32.835 c -0.09,0.544 -0.133,1.084 -0.133,1.625 0,1.737 0.596,3.228 1.785,4.474 1.189,1.247 2.705,1.869 4.543,1.869 h 32.93 c 2.053,0 4.025,-0.813 5.92,-2.442 1.893,-1.628 3.107,-3.474 3.648,-5.539 z"
     stroke-miterlimit="10" /><path
     style="fill:#ffffff;fill-opacity:1;stroke-width:7.61306047"
     inkscape:connector-curvature="0"
     id="path4599-2"
     d="m 681.21325,495.03723 h -15.37392 l 11.41616,-55.67592 c 0.0819,-0.53512 0.12284,-1.05323 0.12284,-1.5883 0,-1.78371 -0.58684,-3.2616 -1.76056,-4.42524 -1.16685,-1.16362 -2.62716,-1.74119 -4.36037,-1.74119 h -38.39054 l -13.01293,63.42213 H 604.48 l 16.26786,-79.2713 h 54.33085 c 5.21334,0 9.53283,1.79219 12.96516,5.38502 3.42552,3.60129 5.13829,7.98404 5.13829,13.17364 0,1.57979 -0.1501,3.11719 -0.45717,4.58655 z" /><path
     style="fill:#ffffff;fill-opacity:1"
     inkscape:connector-curvature="0"
     id="path4599-6"
     d="m 488.39609,463.06209 -42.51499,0.23981 -4.55,-16.25 h 52.07884 z"
     stroke-miterlimit="10"
     sodipodi:nodetypes="ccccc" /></svg>