<svg width="430" height="199" xmlns="http://www.w3.org/2000/svg">

 <g>
  <title>background</title>
  <rect fill="none" id="canvas_background" height="201" width="432" y="-1" x="-1"/>
 </g>
 <g>
  <title>Layer 1</title>
  <path id="svg_1" d="m-1,-1l432,0l0,201l-432,0l0,-201z" fill="none"/>
  <g stroke="null" id="svg_2">
   <g stroke="null" id="svg_3">
    <path stroke="null" id="svg_4" fill="#E10613" d="m229.12022,79.23509a103.31994,103.31994 0 0 1 10.0951,-20.25508l-2.22557,-2.74665c-3.68731,7.20929 -6.37222,14.91874 -7.86953,23.00172zm20.98647,-42.07862a93.13276,93.13276 0 0 0 -8.65952,11.33606l2.78955,3.40061a95.14906,95.14906 0 0 1 5.86998,-6.84203l0,-7.89465zm54.04249,67.54762c6.22469,0 11.27433,5.40435 11.27433,12.05176c0,6.65996 -5.05278,12.06118 -11.27433,12.06118c-6.23829,0 -11.28375,-5.40121 -11.28375,-12.06118c0,-6.64741 5.04546,-12.05176 11.28375,-12.05176zm32.76409,14.47195a37.08548,37.08548 0 0 1 -2.45681,11.12261l89.65472,20.28019l1.55905,-6.65682l-88.75696,-24.74597zm63.08811,4.39987c0.14753,-2.35113 0.22496,-4.72737 0.22496,-7.11617c0,-54.43382 -39.84468,-98.71603 -88.83439,-98.71603c-20.02697,0 -38.53257,7.39136 -53.39271,19.87002l0,-8.29749c17.74595,-15.66373 41.8568,-25.31623 68.41713,-25.31623c33.73405,0 64.50486,14.76806 81.33735,39.27652c4.82677,7.02095 8.40108,14.95327 11.53696,23.14716c6.05832,15.85835 9.13875,32.67515 9.13875,50.03919c0,3.0459 -0.08999,6.08971 -0.28774,9.10422l0.03453,-0.40075c-0.33692,5.87939 -1.07459,11.67194 -2.15128,17.40694l-27.3545,-7.66027c0.65501,-3.86414 1.13005,-7.80571 1.35501,-11.79018l-0.02511,0.45411l0.00105,-0.00105z"/>
    <path stroke="null" id="svg_5" fill="#FFF" d="m373.0947,121.13269a64.04028,64.04028 0 0 1 -0.65187,6.42872l13.7123,3.81182c0.48132,-3.04067 0.82138,-6.11482 0.97833,-9.2078l-0.02407,0.47085c0.11719,-1.95666 0.2009,-3.92064 0.2009,-5.88044c0.02407,-23.38782 -8.66998,-45.32856 -24.39126,-61.84715c-14.01888,-14.71156 -32.16035,-23.50501 -51.6652,-25.23043l-1.24515,15.01814c35.33286,3.13589 63.20321,34.27082 63.20321,72.06258c0,1.6302 -0.06278,3.26459 -0.17055,4.88641l0.05232,-0.51271l0.00105,0z"/>
    <path stroke="null" id="svg_6" fill="#FFF" d="m346.3115,119.74629c0.07952,-0.98984 0.10463,-1.98805 0.10463,-2.99044c0,-22.87302 -17.08676,-41.67787 -38.74602,-43.54873l1.23468,-15.01081c28.87902,2.53005 51.64009,27.8264 51.61602,58.55954c0,1.32781 -0.05546,2.65771 -0.13916,3.98447l0.05232,-0.54305a92.17954,92.17954 0 0 1 -0.33588,3.86414l-13.78659,-3.86414c0.02407,-0.33064 0.02407,-0.69059 0.04604,-1.02123l-0.04604,0.57026z"/>
    <g stroke="null" id="svg_7" fill="#FFF">
     <path stroke="null" id="svg_8" d="m7.62648,8.52438l6.65473,0l13.25191,49.90944l18.55163,-49.90944l1.35501,0l18.3612,49.90944l13.48106,-49.90944l6.60451,0l-18.61651,69.26362l-1.21062,0l-19.23699,-52.41857l-19.59797,52.41857l-1.21585,0l-18.38213,-69.26362zm90.29613,0l6.4915,0l0,62.60051l24.93432,0l0,6.69135l-31.42163,0l0,-69.29187l-0.00419,0zm68.16496,0l30.24345,69.26362l-7.00002,0l-10.17881,-22.78304l-27.92162,0l-10.09615,22.78304l-7.22185,0l30.60758,-69.26362l1.56742,0zm-0.80882,14.70633l-11.11528,25.07662l22.17197,0l-11.05564,-25.07662l-0.00105,0zm41.11389,54.55729l0,-69.26362l1.41047,0l43.15007,53.11229l0,-53.11229l6.39733,0l0,69.26362l-1.45965,0l-42.78281,-52.44577l0,52.44577l-6.71542,0z"/>
    </g>
    <path stroke="null" id="svg_9" fill="#FFF" d="m7.17341,84.26904l33.58756,0l0,12.17941l-11.07971,0l0,52.74816l-11.73472,0l0,-52.74816l-10.77313,0l0,-12.17941zm41.45814,0l11.73053,0l0,24.50218l20.30844,0l0,-24.50218l11.70647,0l0,64.95164l-11.70647,0l0,-28.48037l-20.30844,0l0,28.48141l-11.73053,0l0,-64.95374l0,0.00105zm57.64609,0l33.16588,0l0,12.08629l-21.6938,0l0,11.75565l21.6938,0l0,11.88644l-21.6938,0l0,17.07943l21.6938,0l0,12.14802l-33.16588,0l0,-64.95688l0,0.00105zm44.73005,0l12.26835,0c6.71333,0 11.4815,0.63618 14.32965,1.92945c2.84605,1.29642 5.13335,3.40689 6.87656,6.39733c1.72228,2.97579 2.59911,6.48209 2.59911,10.54294c0,4.28686 -0.9574,7.84547 -2.87744,10.71035c-1.91899,2.8607 -4.79224,5.02767 -8.65324,6.50197l14.3851,28.86961l-12.63771,0l-13.67778,-27.51145l-1.06831,0l0,27.51145l-11.56207,0l0,-64.95164l0.01883,0l-0.00105,0zm11.56207,25.37587l3.63813,0c3.66429,0 6.2069,-0.50643 7.58388,-1.53708c1.38536,-1.01809 2.09268,-2.74351 2.09268,-5.11975c0,-1.41675 -0.33692,-2.65457 -1.04634,-3.71347a5.70989,5.70989 0 0 0 -2.76548,-2.25905c-1.15725,-0.44993 -3.27819,-0.69372 -6.3492,-0.69372l-3.15367,0l0,13.32307l0,0zm42.64678,-25.37587l11.26805,0l14.10782,45.30763l14.21559,-45.30658l11.24922,0l10.18509,64.92549l-11.1969,0l-6.51557,-41.01972l-12.9129,41.02077l-10.19137,0l-12.80199,-41.02077l-6.6788,41.02077l-11.28375,0l10.55549,-64.92758zm98.93263,-1.6574c8.59465,0 15.99333,3.31795 22.16151,9.9821c6.18283,6.65369 9.28105,14.76388 9.28105,24.31697c0,9.46939 -3.05218,17.51471 -9.17223,24.05539c-6.08343,6.57312 -13.50304,9.85968 -22.21487,9.85968c-9.11363,0 -16.69961,-3.38282 -22.73386,-10.09824c-6.03425,-6.75309 -9.05608,-14.74295 -9.05608,-24.02086c0,-6.21527 1.41361,-11.94085 4.22827,-17.12338c2.82721,-5.18462 6.68821,-9.34174 11.59556,-12.38868c4.93245,-3.04485 10.2102,-4.58298 15.91067,-4.58298zm-0.1423,12.11663c-5.61781,0 -10.36087,2.08117 -14.18839,6.26863c-3.83589,4.1885 -5.75488,9.49346 -5.75488,15.93787c0,7.17895 2.41914,12.88046 7.24591,17.03967c3.7459,3.25412 8.0359,4.9199 12.89511,4.9199c5.49329,0 10.14742,-2.1178 14.0147,-6.37013c3.86414,-4.23768 5.77162,-9.46311 5.77162,-15.6721c0,-6.18283 -1.94201,-11.42291 -5.82394,-15.70349c-3.86414,-4.28058 -8.58628,-6.4193 -14.16014,-6.4193l0,-0.00105zm125.99311,86.50732l-113.74673,-0.12033l2.02467,-9.13875l111.72206,0.08371l0,9.17537zm-428.74363,-9.80213l117.06154,0.70628l1.03588,7.78059l-118.35377,0l0.25635,-8.48688z"/>
    <g stroke="null" id="svg_10" fill="#FFF">
     <path stroke="null" id="svg_11" d="m173.89955,192.21066l-7.00944,0l5.20659,-24.5681c0.03767,-0.2302 0.05546,-0.46248 0.05546,-0.69686c0,-0.78999 -0.26472,-1.44081 -0.80254,-1.95352c-0.53363,-0.50957 -1.19701,-0.76488 -1.98805,-0.76488l-17.49901,0l-5.93171,27.98022l-7.00839,0l7.41647,-34.9771l24.76376,0c2.38043,0 4.34859,0.79313 5.91392,2.37938c1.56114,1.58625 2.34276,3.52094 2.34276,5.8051c0,0.70105 -0.07115,1.37699 -0.20927,2.02781l-5.25054,24.7669l0,0.00105zm41.97399,0l-7.00944,0l2.89523,-13.98958l-13.94041,0l-1.95143,-6.99793l17.44774,0l0.7586,-3.57953c0.1852,-0.92915 0.01046,-1.7317 -0.52422,-2.40449c-0.53677,-0.6728 -1.26817,-1.00867 -2.20046,-1.00867l-14.1141,0c-0.93124,0 -1.80599,0.33588 -2.62318,1.01181s-1.31525,1.47848 -1.50045,2.40659l-5.20659,24.56182l-7.00839,0l5.24636,-24.76481c0.60479,-2.74979 2.145,-5.14172 4.6175,-7.16953c2.47146,-2.02781 5.07999,-3.03962 7.83605,-3.03962l14.48137,0c2.37938,0 4.34859,0.79313 5.91288,2.37938c1.56219,1.58625 2.34276,3.54291 2.34276,5.87625c0,0.65082 -0.07115,1.30583 -0.20927,1.95666l-5.25054,24.76167zm41.97399,0l-7.00944,0l5.20659,-24.5681c0.03767,-0.2302 0.0565,-0.46248 0.0565,-0.69686c0,-0.78999 -0.26577,-1.44081 -0.80254,-1.95352c-0.53363,-0.50957 -1.19806,-0.76488 -1.98805,-0.76488l-17.49901,0l-5.93276,27.98022l-7.00839,0l7.41647,-34.9771l24.76481,0c2.37938,0 4.34859,0.79313 5.91288,2.37938c1.56219,1.58625 2.34276,3.52094 2.34276,5.8051c0,0.70105 -0.07115,1.37699 -0.20927,2.02781l-5.25054,24.7669l0,0.00105zm44.06981,-10.21229c-0.56189,2.70584 -2.07699,5.08313 -4.54949,7.13814s-5.07999,3.07624 -7.83291,3.07624l-14.55252,0c-2.37938,0 -4.34859,-0.79208 -5.90974,-2.37833c-1.56533,-1.58625 -2.34276,-3.54291 -2.34276,-5.87625c0,-0.65187 0.06801,-1.30583 0.20927,-1.9598l3.07729,-14.55252c0.60583,-2.74979 2.145,-5.14172 4.6175,-7.16953c2.4725,-2.02781 5.08313,-3.03962 7.8371,-3.03962l14.48032,0c2.37938,0 4.34859,0.79313 5.91078,2.37938c1.56428,1.58625 2.34485,3.54291 2.34485,5.87625c0,0.65082 -0.06801,1.30583 -0.20927,1.95666l-3.08043,14.54938zm-6.96236,-0.21659l2.99044,-14.13607c0.18834,-0.9281 0.01256,-1.73065 -0.52526,-2.40345c-0.53677,-0.6728 -1.26817,-1.00972 -2.20046,-1.00972l-14.11305,0c-0.88625,0 -1.74739,0.33692 -2.58656,1.01286s-1.35187,1.47848 -1.53812,2.40659l-2.9894,14.13607a4.10166,4.10166 0 0 0 -0.0586,0.70105c0,0.74604 0.25531,1.3885 0.76801,1.92527c0.51271,0.53677 1.16353,0.80568 1.95352,0.80568l14.17583,0c0.8852,0 1.73483,-0.34843 2.54889,-1.05262c0.81824,-0.70314 1.34246,-1.49627 1.57474,-2.38566z"/>
    </g>
   </g>
  </g>
 </g>
</svg>