<?xml version="1.0" encoding="utf-8"?>
<!-- Generator: Adobe Illustrator 16.0.3, SVG Export Plug-In . SVG Version: 6.00 Build 0)  -->
<!DOCTYPE svg PUBLIC "-//W3C//DTD SVG 1.1//EN" "http://www.w3.org/Graphics/SVG/1.1/DTD/svg11.dtd">
<svg version="1.1" id="Layer_1" xmlns="http://www.w3.org/2000/svg" xmlns:xlink="http://www.w3.org/1999/xlink" x="0px" y="0px"
	 width="1203.743px" height="500.125px" viewBox="0 0 1203.743 500.125" enable-background="new 0 0 1203.743 500.125"
	 xml:space="preserve">
<path id="XMLID_25_" display="none" fill="none" stroke="#010202" stroke-width="100.025" stroke-miterlimit="10" d="
	M712.178,412.565c-88.217,0-159.712-70.519-159.712-157.508c0-86.99,71.496-157.466,159.712-157.466
	c88.219,0,159.715,70.517,159.715,157.507"/>
<g id="XMLID_11_">
</g>
<g id="XMLID_6_">
</g>
<g id="XMLID_56_">
</g>
<g id="XMLID_57_">
</g>
<g id="XMLID_58_">
</g>
<g id="XMLID_59_">
</g>
<g id="XMLID_60_">
</g>
<g>
	<g>
		<path id="XMLID_32_" fill="#FF0000" d="M851.887,265.43c17.627,0,31.936,14.232,31.936,31.786
			c0,17.555-14.309,31.787-31.936,31.787s-31.934-14.232-31.934-31.787C819.954,279.663,834.26,265.43,851.887,265.43z"/>
		<path id="XMLID_27_" fill="#FF0000" d="M944.661,303.564c-0.732,10.327-3.125,20.189-6.982,29.346l253.811,53.467l4.395-17.578
			L944.661,303.564z"/>
		<g id="XMLID_7_">
			<path id="XMLID_20_" fill="#FF0000" d="M639.51,198.315c7.52-18.994,17.162-36.963,28.588-53.395l-6.299-7.251
				C651.35,156.665,643.758,177.002,639.51,198.315z"/>
			<path id="XMLID_24_" fill="#FF0000" d="M698.909,87.378c-9.033,9.375-17.139,19.386-24.512,29.884l7.91,8.983
				c5.273-6.273,10.791-12.305,16.602-18.042V87.378L698.909,87.378z"/>
		</g>
		<path id="XMLID_13_" fill="#FF0000" d="M1123.225,315.161c0.439-6.177,0.637-12.476,0.637-18.75
			c0-143.48-112.793-260.181-251.467-260.181c-56.688,0-109.031,19.458-151.121,52.344V66.748C771.467,25.415,839.729,0,914.973,0
			c95.459,0,182.568,38.916,230.227,103.517c13.672,18.506,23.777,39.403,32.666,61.011c17.139,41.797,25.879,86.133,25.879,131.885
			c0,8.032-0.244,16.064-0.83,23.999l0.098-1.024c-0.977,15.479-3.027,30.762-6.055,45.85l-77.441-20.215
			c1.807-10.156,3.174-20.558,3.809-31.03L1123.225,315.161z"/>
		<path id="XMLID_12_" fill="#FFFFFF" d="M1047.053,308.74c-0.293,5.713-0.928,11.354-1.807,16.919l38.818,10.083
			c1.318-8.008,2.295-16.113,2.783-24.292l-0.098,1.271c0.342-5.177,0.586-10.327,0.586-15.503
			c0.049-61.646-24.512-119.482-69.092-163.037c-39.648-38.771-91.018-61.963-146.24-66.479l-3.516,39.551
			c100.049,8.252,178.904,90.332,178.904,189.967c0,4.297-0.145,8.568-0.486,12.865L1047.053,308.74z"/>
		<g>
			<g id="XMLID_9_">
				<path id="XMLID_18_" fill="#FFFFFF" d="M971.223,305.078c0.244-2.612,0.344-5.225,0.344-7.86
					c0-60.304-48.391-109.889-109.719-114.796l3.518-39.574c81.736,6.665,146.189,73.34,146.094,154.37
					c0,3.49-0.146,6.981-0.391,10.497l0.145-1.439c-0.195,3.418-0.537,6.836-0.928,10.156l-39.063-10.156
					c0.098-0.879,0.098-1.831,0.146-2.71L971.223,305.078z"/>
			</g>
		</g>
		<g id="XMLID_1_">
			<path id="XMLID_44_" fill="#FFFFFF" d="M12.483,11.914h18.823L68.83,143.481l52.54-131.567h3.833l51.978,131.567L215.34,11.914
				h18.677l-52.686,182.568h-3.442L123.445,56.323L67.952,194.482h-3.418L12.483,11.914z"/>
			<path id="XMLID_47_" fill="#FFFFFF" d="M268.099,11.914h18.384v165.016h70.557v17.65H268.1L268.099,11.914L268.099,11.914z"/>
			<path id="XMLID_51_" fill="#FFFFFF" d="M461.067,11.914l85.596,182.568h-19.8l-28.81-60.06h-79.053l-28.589,60.06h-20.436
				L456.6,11.914H461.067z M458.772,50.684l-31.471,66.112h62.77L458.772,50.684z"/>
			<path id="XMLID_54_" fill="#FFFFFF" d="M575.179,194.482V11.914h3.979l122.143,139.99V11.914h18.115v182.568h-4.15L594.173,56.25
				v138.232H575.179z"/>
		</g>
		<path id="XMLID_16_" fill="#FFFFFF" d="M11.189,211.572h95.093v32.104H74.91v139.037H41.683V243.677H11.189V211.572z"/>
		<path id="XMLID_19_" fill="#FFFFFF" d="M128.548,211.572h33.228v64.575h57.471v-64.575h33.13v171.191h-33.13v-75.05h-57.471v75.05
			h-33.228V211.572z"/>
		<path id="XMLID_30_" fill="#FFFFFF" d="M291.756,211.572h93.872v31.86h-61.401v30.98h61.401v31.299h-61.401v45.068h61.401v31.982
			h-93.872V211.572z"/>
		<path id="XMLID_36_" fill="#FFFFFF" d="M418.367,211.572h34.741c18.993,0,32.471,1.66,40.552,5.078
			c8.057,3.418,14.525,8.984,19.458,16.846c4.883,7.861,7.349,17.09,7.349,27.809c0,11.278-2.71,20.653-8.13,28.197
			c-5.42,7.568-13.574,13.281-24.512,17.163l40.723,76.1h-35.767l-38.722-72.511h-3.052v72.511h-32.715V211.572H418.367z
			 M451.106,278.468h10.277c10.4,0,17.578-1.367,21.484-4.054c3.906-2.686,5.908-7.227,5.908-13.501
			c0-3.734-0.952-6.981-2.954-9.766c-1.904-2.783-4.541-4.785-7.813-5.957c-3.271-1.196-9.276-1.831-17.969-1.831h-8.937v35.108
			H451.106z"/>
		<path id="XMLID_39_" fill="#FFFFFF" d="M571.81,211.572h31.935l39.916,119.434l40.26-119.434h31.836l28.809,171.143h-31.689
			l-18.408-108.153l-36.572,108.153h-28.832l-36.255-108.153l-18.921,108.153h-31.934L571.81,211.572z"/>
		<path id="XMLID_41_" fill="#FFFFFF" d="M851.887,207.202c24.365,0,45.266,8.74,62.744,26.294
			c17.48,17.554,26.271,38.94,26.271,64.111c0,24.951-8.645,46.143-25.93,63.379c-17.283,17.334-38.279,26.025-62.938,26.025
			c-25.781,0-47.268-8.937-64.355-26.611c-17.09-17.822-25.635-38.867-25.635-63.33c0-16.382,4.004-31.47,11.963-45.142
			c8.008-13.673,18.945-24.635,32.861-32.643C820.833,211.255,835.774,207.202,851.887,207.202z M851.497,239.136
			c-15.918,0-29.346,5.492-40.186,16.527s-16.26,25.024-16.26,42.018c0,18.921,6.836,33.91,20.508,44.896
			c10.596,8.594,22.754,12.939,36.475,12.939c15.576,0,28.76-5.566,39.697-16.748c10.938-11.206,16.357-24.951,16.357-41.31
			c0-16.309-5.518-30.103-16.553-41.405C880.647,244.775,867.268,239.136,851.497,239.136z"/>
	</g>
	<g>
		<g>
			<path fill="#FFFFFF" stroke="#FFFFFF" stroke-width="0.25" stroke-miterlimit="10" d="M509.547,500h-67.529
				c-6.493,0-11.864-2.147-16.112-6.493c-4.272-4.297-6.396-9.668-6.396-16.017c0-1.807,0.195-3.563,0.563-5.371l14.307-67.529
				h18.921l-13.989,66.992c-0.098,0.636-0.146,1.173-0.146,1.71c0,2.147,0.684,3.954,2.1,5.42c1.393,1.465,3.175,2.196,5.322,2.196
				h66.992L509.547,500z"/>
			<path fill="#FFFFFF" stroke="#FFFFFF" stroke-width="0.25" stroke-miterlimit="10" d="M547.535,500h-19.116l20.215-95.41h19.116
				L547.535,500z"/>
			<path fill="#FFFFFF" stroke="#FFFFFF" stroke-width="0.25" stroke-miterlimit="10" d="M674.219,500h-19.115l14.186-66.991
				c0.098-0.636,0.145-1.271,0.145-1.904c0-2.148-0.73-3.955-2.146-5.322c-1.465-1.416-3.271-2.1-5.42-2.1h-47.754L597.926,500
				H578.81l20.239-95.41h67.553c6.494,0,11.816,2.197,16.113,6.494c4.248,4.347,6.396,9.619,6.396,15.82
				c0,1.904-0.195,3.76-0.586,5.566L674.219,500z"/>
			<path fill="#FFFFFF" stroke="#FFFFFF" stroke-miterlimit="10" d="M814.821,404.066c-8.725,0-17.447,0.121-26.166-0.064
				c-3.143-0.066-5.771,0.695-8.301,2.462c-4.732,3.31-9.541,6.517-14.346,9.723c-10.789,7.197-21.596,14.368-33.064,21.994
				c2.475-11.774,4.791-22.792,7.137-33.957c-6.336,0-12.451,0-18.709,0c-6.654,31.254-13.283,62.385-19.926,93.583
				c6.717,0,12.781,0,18.838,0c2.217-10.764,4.342-21.225,6.561-31.662c0.262-1.224,0.732-2.779,1.645-3.426
				c5.867-4.171,11.887-8.131,18.084-12.313c2.893,4.863,5.588,9.392,8.281,13.919c6.34,10.659,12.664,21.326,19.051,31.957
				c0.447,0.749,1.334,1.736,2.037,1.752c6.063,0.14,12.127,0.08,18.93,0.08c-11.553-19.569-22.691-38.439-33.832-57.313
				c18.16-12.108,36.033-24.025,53.906-35.943C814.903,404.593,814.862,404.329,814.821,404.066z"/>
		</g>
		<polygon fill="#FFFFFF" stroke="#FFFFFF" stroke-miterlimit="10" points="0,443.592 384.667,443.091 379,468.893 0,467.893 		"/>
		<polygon fill="#FFFFFF" stroke="#FFFFFF" stroke-miterlimit="10" points="1204,466.089 819.167,466.59 824.917,440.786 
			1204,441.786 		"/>
	</g>
</g>
</svg>
