<svg width="430" height="199" xmlns="http://www.w3.org/2000/svg"><path fill="none" d="M-1-1h432v201H-1z"/><g><g stroke="null"><path d="M227.907 77.29a101.865 101.865 0 019.953-19.97l-2.194-2.708c-3.636 7.108-6.284 14.709-7.76 22.678zM248.598 35.804a91.82 91.82 0 00-8.538 11.176l2.75 3.353a93.812 93.812 0 015.788-6.746v-7.783zM301.879 102.4c6.137 0 11.115 5.328 11.115 11.882 0 6.567-4.981 11.892-11.115 11.892-6.15 0-11.125-5.325-11.125-11.892 0-6.554 4.975-11.882 11.125-11.882zM334.182 116.668a36.563 36.563 0 01-2.423 10.966l88.392 19.995 1.537-6.564-87.506-24.397zM396.38 121.007c.147-2.319.223-4.662.223-7.017 0-53.667-39.284-97.326-87.583-97.326-19.745 0-37.99 7.288-52.641 19.59v-8.18c17.496-15.445 41.267-24.96 67.454-24.96 33.258 0 63.595 14.56 80.191 38.724 4.76 6.922 8.283 14.742 11.374 22.821 5.974 15.634 9.01 32.215 9.01 49.334 0 3.003-.088 6.004-.283 8.976l.034-.395c-.332 5.796-1.06 11.508-2.121 17.162l-26.969-7.553c.645-3.81 1.114-7.695 1.336-11.624l-.024.448z" fill="#E10613"/><path d="M369.853 118.597a63.136 63.136 0 01-.642 6.338l13.52 3.758c.474-2.997.809-6.028.964-9.077l-.024.463c.115-1.93.197-3.865.197-5.797.025-23.059-8.547-44.69-24.047-60.976C346 38.801 328.114 30.132 308.883 28.431l-1.226 14.806c34.835 3.092 62.312 33.788 62.312 71.048 0 1.607-.061 3.22-.168 4.817l.052-.505z" fill="#FFF"/><path d="M343.447 117.23c.08-.976.103-1.96.103-2.948 0-22.55-16.845-41.09-38.2-42.935l1.218-14.8c28.472 2.495 50.913 27.434 50.888 57.735 0 1.308-.054 2.62-.137 3.928l.052-.535a90.89 90.89 0 01-.332 3.81l-13.592-3.81c.024-.326.024-.682.046-1.007l-.046.563z" fill="#FFF"/><g fill="#FFF"><path d="M9.533 7.575h6.56L29.16 56.781 47.45 7.575h1.336l18.102 49.206L80.179 7.575h6.512L68.336 75.863h-1.193l-18.966-51.68-19.322 51.68h-1.199L9.533 7.575zM98.558 7.575h6.399v61.718h24.583v6.597H98.56V7.575h-.002zM165.762 7.575l29.817 68.288h-6.9L178.642 53.4h-27.529l-9.953 22.462h-7.12l30.176-68.288h1.545zm-.797 14.5l-10.96 24.723h21.86l-10.9-24.724zM205.5 75.863V7.575h1.39l42.542 52.365V7.575h6.308v68.288h-1.44l-42.18-51.707v51.707h-6.62z"/></g><path d="M9.086 82.253H42.2V94.26H31.277v52.005H19.708V94.26H9.086V82.253zM49.96 82.253h11.566v24.157h20.022V82.253H93.09v64.037H81.548v-28.08H61.526v28.08H49.96V82.253zM106.795 82.253h32.698v11.916h-21.388v11.59h21.388v11.718h-21.388v16.84h21.388v11.976h-32.698v-64.04zM150.895 82.253h12.095c6.619 0 11.32.627 14.128 1.902 2.806 1.278 5.06 3.359 6.78 6.308 1.698 2.933 2.562 6.39 2.562 10.394 0 4.226-.943 7.735-2.836 10.559-1.893 2.82-4.726 4.956-8.532 6.411l14.183 28.463h-12.46l-13.487-27.124h-1.053v27.124h-11.398V82.253h.018zm11.399 25.018h3.587c3.612 0 6.12-.499 7.476-1.515 1.367-1.004 2.063-2.705 2.063-5.048 0-1.397-.331-2.617-1.031-3.66a5.63 5.63 0 00-2.726-2.228c-1.142-.444-3.232-.685-6.26-.685h-3.11v13.136h0zM204.34 82.253h11.11l13.908 44.669 14.016-44.67h11.09l10.042 64.013h-11.04l-6.423-40.442-12.731 40.442h-10.048l-12.621-40.442-6.585 40.442h-11.125l10.407-64.012zM301.879 80.619c8.474 0 15.768 3.271 21.85 9.84 6.095 6.56 9.15 14.558 9.15 23.975 0 9.336-3.01 17.268-9.043 23.716-5.998 6.481-13.313 9.722-21.903 9.722-8.985 0-16.465-3.335-22.413-9.956-5.95-6.658-8.928-14.536-8.928-23.683 0-6.128 1.394-11.772 4.169-16.881 2.787-5.112 6.593-9.211 11.432-12.214 4.862-3.004 10.065-4.52 15.686-4.52zm-.14 11.946c-5.538 0-10.215 2.051-13.988 6.18-3.783 4.13-5.675 9.36-5.675 15.714 0 7.077 2.385 12.697 7.144 16.8 3.694 3.206 7.924 4.85 12.713 4.85 5.417 0 10.005-2.088 13.818-6.281 3.81-4.178 5.69-9.33 5.69-15.452 0-6.095-1.914-11.261-5.742-15.482-3.81-4.22-8.465-6.329-13.96-6.329zM429 177.853l-113.666-.118 2.757-9.01 110.909.082zM3 168.886l115.665-2.282 1.022 6.91H3zM151.309 191.771H129.26c-2.118 0-3.867-.754-5.267-2.279-1.39-1.515-2.084-3.39-2.084-5.61 0-.637.064-1.257.188-1.884l2.742-13.91c.536-2.637 1.908-4.922 4.11-6.867 2.2-1.944 4.526-2.906 6.975-2.906h21.997l-1.305 6.691h-21.897c-.83 0-1.606.317-2.337.962-.733.654-1.177 1.415-1.339 2.313l-2.662 13.513a4.59 4.59 0 00-.052.663c0 .712.225 1.34.685 1.85s1.04.77 1.746.77h21.857l-1.308 6.694zm37.445 0H166.7c-2.112 0-3.874-.754-5.268-2.279-1.393-1.515-2.087-3.39-2.087-5.61 0-.637.064-1.257.192-1.884l4.677-23.683h6.17l-4.57 23.482c-.04.225-.055.429-.055.602 0 .764.229 1.4.691 1.911.457.512 1.035.77 1.747.77h21.863l-1.306 6.691zm39.247-9.773c-.505 2.595-1.84 4.865-4.053 6.825-2.197 1.96-4.519 2.948-6.974 2.948H204.02c-2.12 0-3.876-.754-5.27-2.279-1.39-1.515-2.081-3.39-2.081-5.61 0-.637.054-1.257.182-1.884l2.742-13.91c.535-2.637 1.905-4.922 4.114-6.867 2.2-1.944 4.522-2.906 6.974-2.906h12.893c2.117 0 3.87.755 5.258 2.27 1.396 1.525 2.096 3.39 2.096 5.62 0 .627-.067 1.257-.188 1.884L228 181.998zm-6.198-.21l2.662-13.514c.168-.888.012-1.649-.465-2.303-.478-.645-1.126-.962-1.963-.962h-12.573c-.782 0-1.555.317-2.3.962-.749.654-1.2 1.415-1.37 2.313l-2.662 13.513a4.56 4.56 0 00-.046.663c0 .712.228 1.34.679 1.85.456.512 1.04.77 1.743.77h12.631c.782 0 1.543-.335 2.267-1.004.724-.672 1.19-1.433 1.397-2.288zm48.247-23.473l-6.6 33.456h-22.048c-2.121 0-3.886-.754-5.261-2.279-1.397-1.515-2.09-3.39-2.09-5.61 0-.637.057-1.257.188-1.884l4.668-23.683h6.225l-4.61 23.482a3.273 3.273 0 00-.057.612c0 .754.228 1.39.681 1.901s1.035.77 1.744.77h15.643l5.292-26.765h6.225zm36.685 23.683c-.49 2.595-1.832 4.865-4.041 6.825-2.2 1.96-4.528 2.948-6.974 2.948h-22.052l6.606-33.456h22.049c2.118 0 3.87.755 5.26 2.27 1.395 1.525 2.085 3.39 2.085 5.62a8.99 8.99 0 01-.188 1.884l-2.745 13.909zm-6.19-.21l2.663-13.514c.168-.888.019-1.649-.465-2.303-.469-.645-1.126-.962-1.948-.962h-15.537l-4.025 20.074h15.652c.782 0 1.534-.334 2.267-1.004.718-.675 1.187-1.436 1.394-2.291z" fill="#FFF"/></g></g></svg>