<svg width="430" height="199" xmlns="http://www.w3.org/2000/svg">

 <g>
  <title>background</title>
  <rect fill="none" id="canvas_background" height="201" width="432" y="-1" x="-1"/>
 </g>
 <g>
  <title>Layer 1</title>
  <g id="XMLID_11_"/>
  <g id="XMLID_6_"/>
  <g id="XMLID_56_"/>
  <g id="XMLID_57_"/>
  <g id="XMLID_58_"/>
  <g id="XMLID_59_"/>
  <g id="XMLID_60_"/>
  <g stroke="null" id="svg_1">
   <path stroke="null" d="m227.90669,77.29001c2.6199,-7.10507 5.98226,-13.81761 9.95319,-19.97027l-2.1939,-2.70814c-3.63621,7.10811 -6.2835,14.70917 -7.75929,22.67841z" fill="#E10613" id="XMLID_20_"/>
   <path stroke="null" d="m248.59812,35.8037c-3.14023,3.50537 -5.98226,7.25113 -8.53826,11.17641l2.75074,3.35323c1.83484,-2.34604 3.75489,-4.6008 5.78751,-6.74601l0,-7.78363z" fill="#E10613" id="XMLID_24_"/>
   <path stroke="null" d="m301.87855,102.39967c6.13744,0 11.11556,5.32804 11.11556,11.88236c0,6.56649 -4.98116,11.89149 -11.11556,11.89149c-6.14961,0 -11.12469,-5.325 -11.12469,-11.89149c0,-6.55431 4.97507,-11.88236 11.12469,-11.88236z" fill="#E10613" id="XMLID_32_"/>
   <path stroke="null" d="m334.18152,116.66763c-0.25256,3.86443 -1.08326,7.54629 -2.42211,10.96646l88.39196,19.99461l1.53664,-6.56344l-87.50648,-24.39763z" fill="#E10613" id="XMLID_27_"/>
   <path stroke="null" d="m396.38056,121.00674c0.14606,-2.31866 0.22213,-4.66166 0.22213,-7.01683c0,-53.66687 -39.28329,-97.32578 -87.58256,-97.32578c-19.7451,0 -37.99007,7.28764 -52.64143,19.58991l0,-8.1792c17.49643,-15.44554 41.26723,-24.96056 67.45406,-24.96056c33.25843,0 63.59571,14.56007 80.19146,38.7234c4.75903,6.9225 8.28266,14.74264 11.3742,22.82143c5.97313,15.6342 9.0099,32.21473 9.0099,49.33384c0,3.0033 -0.08824,6.00356 -0.28299,8.97643l0.03347,-0.39557c-0.33167,5.79664 -1.05891,11.50809 -2.12087,17.16171l-26.96884,-7.55237c0.64509,-3.80966 1.11369,-7.69539 1.33581,-11.62371l-0.02434,0.4473z" fill="#E10613" id="XMLID_13_"/>
   <g stroke="null" id="svg_2">
    <path stroke="null" d="m369.85293,118.5968c-0.10954,2.14217 -0.32254,4.25087 -0.64204,6.33827l13.51941,3.75793c0.47469,-2.99721 0.8094,-6.0279 0.96459,-9.07684l-0.02434,0.46251c0.11563,-1.92917 0.19779,-3.86443 0.19779,-5.79664c0.02434,-23.05877 -8.54739,-44.69044 -24.0477,-60.97581c-13.82066,-14.5053 -31.70657,-23.1744 -50.93743,-24.87536l-1.22627,14.80654c34.83463,3.09154 62.31163,33.78789 62.31163,71.04767c0,1.60663 -0.06086,3.21934 -0.16736,4.81684l0.05173,-0.50511z" fill="#FFFFFF" id="XMLID_12_"/>
    <g stroke="null" id="svg_3">
     <g stroke="null" id="XMLID_9_">
      <path stroke="null" d="m343.44702,117.23055c0.07911,-0.97676 0.10346,-1.9596 0.10346,-2.94853c0,-22.55061 -16.84526,-41.09074 -38.20003,-42.93471l1.21714,-14.80046c28.47201,2.49514 50.91309,27.4344 50.88874,57.73517c0,1.30843 -0.05477,2.6199 -0.13693,3.92833l0.05173,-0.53554c-0.08216,1.28104 -0.19779,2.55296 -0.33167,3.80966l-13.59244,-3.80966c0.02434,-0.32559 0.02434,-0.6816 0.04564,-1.00719l-0.04564,0.56293z" fill="#FFFFFF" id="XMLID_18_"/>
     </g>
    </g>
    <g stroke="null" id="XMLID_1_">
     <path stroke="null" d="m9.53301,7.57511l6.5604,0l13.06603,49.20604l18.29061,-49.20604l1.33581,0l18.10196,49.20604l13.2912,-49.20604l6.51171,0l-18.35451,68.2878l-1.1928,0l-18.96613,-51.67989l-19.32214,51.67989l-1.19889,0l-18.12326,-68.2878z" fill="#FFFFFF" id="XMLID_44_"/>
     <path stroke="null" d="m98.55788,7.57511l6.39913,0l0,61.71827l24.58324,0l0,6.59691l-30.97933,0l0,-68.31518l-0.00304,0z" fill="#FFFFFF" id="XMLID_47_"/>
     <path stroke="null" d="m165.76242,7.57511l29.81696,68.2878l-6.9012,0l-10.03534,-22.46237l-27.52873,0l-9.95319,22.46237l-7.12029,0l30.17601,-68.2878l1.54577,0zm-0.79723,14.49921l-10.96037,24.72321l21.85989,0l-10.89951,-24.72321z" fill="#FFFFFF" id="XMLID_51_"/>
     <path stroke="null" d="m205.49909,75.86291l0,-68.2878l1.39059,0l42.54219,52.36453l0,-52.36453l6.30784,0l0,68.2878l-1.43927,0l-42.18009,-51.70727l0,51.70727l-6.62126,0z" fill="#FFFFFF" id="XMLID_54_"/>
    </g>
    <path stroke="null" d="m9.08571,82.25291l33.11541,0l0,12.00711l-10.92386,0l0,52.00547l-11.56894,0l0,-52.00547l-10.62261,0l0,-12.00711z" fill="#FFFFFF" id="XMLID_16_"/>
    <path stroke="null" d="m49.96041,82.25291l11.5659,0l0,24.15724l20.022,0l0,-24.15724l11.54156,0l0,64.03693l-11.54156,0l0,-28.07949l-20.022,0l0,28.07949l-11.5659,0l0,-64.03693z" fill="#FFFFFF" id="XMLID_19_"/>
    <path stroke="null" d="m106.79489,82.25291l32.69854,0l0,11.91583l-21.38824,0l0,11.59024l21.38824,0l0,11.71804l-21.38824,0l0,16.83917l21.38824,0l0,11.97669l-32.69854,0l0,-64.03997z" fill="#FFFFFF" id="XMLID_30_"/>
    <path stroke="null" d="m150.89502,82.25291l12.09536,0c6.61821,0 11.31943,0.62683 14.12799,1.90179c2.80551,1.278 5.06027,3.35931 6.77949,6.30784c1.69791,2.93331 2.56209,6.39 2.56209,10.3944c0,4.22653 -0.94329,7.73494 -2.83594,10.55871c-1.89266,2.82073 -4.72556,4.95681 -8.53217,6.4113l14.18276,28.46289l-12.4605,0l-13.48594,-27.12403l-1.05283,0l0,27.12403l-11.39854,0l0,-64.03693l0.01826,0zm11.39854,25.01837l3.58753,0c3.61187,0 6.11919,-0.49903 7.4763,-1.51534c1.36624,-1.00414 2.06306,-2.7051 2.06306,-5.0481c0,-1.39667 -0.33167,-2.61686 -1.03153,-3.66056c-0.66639,-1.03457 -1.58533,-1.77703 -2.7264,-2.22737c-1.14107,-0.44426 -3.23151,-0.68464 -6.25916,-0.68464l-3.1098,0l0,13.13601l0,0z" fill="#FFFFFF" id="XMLID_36_"/>
    <path stroke="null" d="m204.33976,82.25291l11.10947,0l13.9089,44.66914l14.0154,-44.66914l11.09121,0l10.04143,64.01258l-11.03949,0l-6.42347,-40.44261l-12.73131,40.44261l-10.04751,0l-12.62177,-40.44261l-6.58474,40.44261l-11.12469,0l10.40657,-64.01258z" fill="#FFFFFF" id="XMLID_39_"/>
    <path stroke="null" d="m301.87855,80.6189c8.47436,0 15.76809,3.27107 21.85076,9.8406c6.09484,6.5604 9.14987,14.55703 9.14987,23.97467c0,9.33549 -3.00939,17.26821 -9.04337,23.71603c-5.99747,6.48129 -13.3125,9.72193 -21.90249,9.72193c-8.98556,0 -16.4649,-3.33497 -22.41369,-9.95623c-5.94879,-6.65777 -8.92774,-14.53573 -8.92774,-23.68256c0,-6.12831 1.39363,-11.77281 4.16871,-16.88177c2.78726,-5.112 6.59387,-9.21073 11.43201,-12.21403c4.86249,-3.0033 10.06577,-4.51864 15.68593,-4.51864zm-0.13997,11.94626c-5.538,0 -10.21487,2.05089 -13.98801,6.18004c-3.78227,4.12916 -5.67493,9.35983 -5.67493,15.71331c0,7.07769 2.3856,12.69784 7.14463,16.79961c3.69403,3.20717 7.9236,4.85031 12.71306,4.85031c5.41629,0 10.00491,-2.0874 13.81761,-6.28046c3.80966,-4.17784 5.69014,-9.3294 5.69014,-15.45163c0,-6.09484 -1.91396,-11.26161 -5.74187,-15.48206c-3.80966,-4.22044 -8.46523,-6.32914 -13.96063,-6.32914z" fill="#FFFFFF" id="XMLID_41_"/>
   </g>
   <polygon stroke="null" id="svg_4" points="428.9999694824219,177.8534698486328 315.33404541015625,177.73480224609375 318.09088134765625,168.72491455078125 428.9999694824219,168.80699157714844 " fill="#FFFFFF"/>
   <polygon stroke="null" id="svg_5" points="2.999995231628418,168.8861083984375 118.66505432128906,166.6039581298828 119.68745422363281,173.5142822265625 2.999995231628418,173.5142822265625 " fill="#FFFFFF"/>
   <path stroke="null" id="svg_6" d="m151.30885,191.77142l-22.04854,0c-2.11783,0 -3.86747,-0.75463 -5.26719,-2.2791c-1.39059,-1.51534 -2.08436,-3.38974 -2.08436,-5.61103c0,-0.63596 0.0639,-1.2567 0.18866,-1.88353l2.74161,-13.9089c0.53554,-2.63816 1.90787,-4.92334 4.1109,-6.86773c2.19999,-1.94439 4.52473,-2.90593 6.97423,-2.90593l21.99681,0l-1.30539,6.69124l-21.8964,0c-0.8307,0 -1.60663,0.31646 -2.33691,0.96154c-0.73333,0.65421 -1.17759,1.41493 -1.33886,2.31257l-2.6625,13.51333c-0.03347,0.22517 -0.05173,0.45339 -0.05173,0.66334c0,0.71203 0.22517,1.33886 0.68464,1.85006s1.04066,0.76984 1.7466,0.76984l21.85684,0l-1.30843,6.69429zm37.4454,0l-22.05463,0c-2.11174,0 -3.87356,-0.75463 -5.26719,-2.2791c-1.39363,-1.51534 -2.0874,-3.38974 -2.0874,-5.61103c0,-0.63596 0.0639,-1.2567 0.1917,-1.88353l4.67687,-23.68256l6.17091,0l-4.57037,23.48173c-0.03956,0.22517 -0.05477,0.42904 -0.05477,0.60249c0,0.76376 0.22821,1.39971 0.69073,1.91091c0.45643,0.5112 1.03457,0.76984 1.7466,0.76984l21.86293,0l-1.30539,6.69124zm39.24677,-9.77366c-0.50511,2.59556 -1.84093,4.86553 -4.05309,6.82513c-2.19694,1.9596 -4.51864,2.94853 -6.97423,2.94853l-12.95344,0c-2.12087,0 -3.8766,-0.75463 -5.27023,-2.2791c-1.39059,-1.51534 -2.08131,-3.38974 -2.08131,-5.61103c0,-0.63596 0.05477,-1.2567 0.18257,-1.88353l2.74161,-13.9089c0.53554,-2.63816 1.90483,-4.92334 4.11394,-6.86773c2.19999,-1.94439 4.52169,-2.90593 6.97423,-2.90593l12.89259,0c2.11783,0 3.87051,0.75463 5.25806,2.26997c1.39667,1.52447 2.09653,3.38974 2.09653,5.62016c0,0.62683 -0.06694,1.2567 -0.18866,1.88353l-2.73857,13.9089zm-6.1983,-0.20996l2.6625,-13.51333c0.16736,-0.88851 0.01217,-1.64923 -0.46556,-2.30344c-0.47773,-0.64509 -1.12586,-0.96154 -1.96264,-0.96154l-12.57309,0c-0.78201,0 -1.5549,0.31646 -2.3004,0.96154c-0.74854,0.65421 -1.19889,1.41493 -1.36929,2.31257l-2.6625,13.51333c-0.03347,0.22517 -0.04564,0.45339 -0.04564,0.66334c0,0.71203 0.22821,1.33886 0.67856,1.85006c0.45643,0.5112 1.04066,0.76984 1.74356,0.76984l12.6309,0c0.78201,0 1.54273,-0.33471 2.26693,-1.00414c0.7242,-0.67247 1.18976,-1.43319 1.39667,-2.28823zm48.24754,-23.4726l-6.59996,33.45621l-22.04854,0c-2.12087,0 -3.88573,-0.75463 -5.2611,-2.2791c-1.39667,-1.51534 -2.09044,-3.38974 -2.09044,-5.61103c0,-0.63596 0.05781,-1.2567 0.18866,-1.88353l4.66774,-23.68256l6.22569,0l-4.60993,23.48173c-0.0426,0.22517 -0.05781,0.42904 -0.05781,0.61161c0,0.75463 0.22821,1.39059 0.6816,1.90179s1.03457,0.76984 1.74356,0.76984l15.64333,0l5.29153,-26.76497l6.22569,0zm36.68469,23.68256c-0.4899,2.59556 -1.8318,4.86553 -4.04091,6.82513c-2.19999,1.9596 -4.52777,2.94853 -6.97423,2.94853l-22.05159,0l6.60604,-33.45621l22.04854,0c2.11783,0 3.87051,0.75463 5.2611,2.26997c1.39363,1.52447 2.08436,3.38974 2.08436,5.62016c0,0.62683 -0.05477,1.2567 -0.18866,1.88353l-2.74466,13.9089zm-6.18917,-0.20996l2.6625,-13.51333c0.16736,-0.88851 0.01826,-1.64923 -0.46556,-2.30344c-0.4686,-0.64509 -1.12586,-0.96154 -1.94743,-0.96154l-15.53683,0l-4.0257,20.07373l15.65246,0c0.78201,0 1.5336,-0.33471 2.26693,-1.00414c0.71811,-0.67551 1.18671,-1.43623 1.39363,-2.29127z" fill="#FFFFFF"/>
  </g>
 </g>
</svg>