<svg width="430" height="199" xmlns="http://www.w3.org/2000/svg"><path fill="none" d="M-1-1h432v201H-1z"/><g><path d="M-1-1h432v201H-1V-1z" fill="none"/><g stroke="null"><path fill="#E10613" d="M229.12 79.235a103.32 103.32 0 0110.095-20.255l-2.225-2.747c-3.688 7.21-6.372 14.92-7.87 23.002zm20.987-42.079a93.133 93.133 0 00-8.66 11.337l2.79 3.4a95.15 95.15 0 015.87-6.842v-7.895zm54.042 67.548c6.225 0 11.275 5.404 11.275 12.052 0 6.66-5.053 12.061-11.275 12.061-6.238 0-11.284-5.401-11.284-12.061 0-6.648 5.046-12.052 11.284-12.052zm32.764 14.472a37.085 37.085 0 01-2.457 11.123l89.655 20.28 1.56-6.657-88.758-24.746zm63.088 4.4c.148-2.351.225-4.727.225-7.116 0-54.434-39.844-98.716-88.834-98.716-20.027 0-38.533 7.391-53.393 19.87v-8.298C275.745 13.653 299.856 4 326.416 4c33.734 0 64.505 14.768 81.338 39.277 4.826 7.02 8.4 14.953 11.537 23.147 6.058 15.858 9.138 32.675 9.138 50.039 0 3.046-.09 6.09-.287 9.104l.034-.4c-.337 5.879-1.074 11.671-2.151 17.406l-27.355-7.66c.655-3.864 1.13-7.806 1.355-11.79l-.025.454.001-.001z"/><path fill="#FFF" d="M373.095 121.133a64.04 64.04 0 01-.652 6.428l13.712 3.812c.481-3.04.822-6.115.978-9.208l-.024.471c.118-1.956.201-3.92.201-5.88.024-23.388-8.67-45.329-24.391-61.847-14.019-14.712-32.16-23.505-51.665-25.23l-1.245 15.017c35.333 3.136 63.203 34.271 63.203 72.063 0 1.63-.063 3.265-.17 4.886l.052-.512h0z"/><path fill="#FFF" d="M346.312 119.746c.079-.99.104-1.988.104-2.99 0-22.873-17.087-41.678-38.746-43.549l1.235-15.01c28.879 2.53 51.64 27.826 51.616 58.559a63.33 63.33 0 01-.14 3.984l.053-.543a92.18 92.18 0 01-.336 3.864l-13.786-3.864c.024-.33.024-.69.046-1.021l-.046.57zM7.626 8.524h6.655l13.252 49.91 18.552-49.91h1.355L65.8 58.434l13.481-49.91h6.605L67.27 77.788h-1.21L46.821 25.369 27.224 77.788H26.01L7.626 8.524zm90.297 0h6.491v62.6h24.934v6.692H97.927V8.524h-.004zm68.165 0l30.243 69.264h-7l-10.179-22.783h-27.921l-10.097 22.783h-7.221L164.52 8.524h1.568zm-.81 14.707l-11.115 25.076h22.172L165.28 23.231h-.001zm41.115 54.557V8.524h1.41l43.15 53.113V8.524h6.398v69.264h-1.46l-42.783-52.446v52.446h-6.715z"/><path fill="#FFF" d="M7.173 84.269h33.588v12.18h-11.08v52.748H17.947V96.448H7.173V84.27zm41.459 0h11.73v24.502h20.309V84.27h11.706v64.952H80.671v-28.48H60.362v28.48h-11.73V84.269v.001zm57.646 0h33.166v12.086H117.75v11.756h21.694v11.886H117.75v17.08h21.694v12.148h-33.166V84.268v.001zm44.73 0h12.268c6.713 0 11.482.636 14.33 1.93 2.846 1.296 5.133 3.406 6.876 6.397 1.723 2.976 2.6 6.482 2.6 10.543 0 4.287-.958 7.845-2.878 10.71-1.92 2.86-4.792 5.028-8.653 6.502l14.385 28.87h-12.638l-13.678-27.512h-1.068v27.512H150.99V84.269h.019-.001zm11.562 25.376h3.638c3.664 0 6.207-.507 7.584-1.537 1.385-1.018 2.092-2.744 2.092-5.12 0-1.417-.336-2.654-1.046-3.713a5.71 5.71 0 00-2.765-2.26c-1.158-.45-3.279-.693-6.35-.693h-3.153v13.323h0zm42.647-25.376h11.268l14.107 45.308 14.216-45.307h11.25l10.184 64.926h-11.197l-6.515-41.02-12.913 41.02h-10.191l-12.802-41.02-6.68 41.02h-11.283l10.556-64.927zm98.932-1.657c8.595 0 15.994 3.318 22.162 9.982 6.183 6.653 9.28 14.764 9.28 24.317 0 9.47-3.051 17.514-9.171 24.055-6.084 6.573-13.504 9.86-22.215 9.86-9.114 0-16.7-3.383-22.734-10.098-6.034-6.754-9.056-14.743-9.056-24.021 0-6.216 1.413-11.941 4.228-17.124 2.827-5.184 6.688-9.341 11.596-12.388 4.932-3.045 10.21-4.583 15.91-4.583zm-.142 12.116c-5.618 0-10.361 2.081-14.189 6.269-3.835 4.188-5.754 9.493-5.754 15.938 0 7.179 2.419 12.88 7.246 17.04 3.745 3.254 8.035 4.92 12.895 4.92 5.493 0 10.147-2.118 14.014-6.37 3.864-4.238 5.772-9.464 5.772-15.673 0-6.183-1.942-11.423-5.824-15.703-3.864-4.281-8.586-6.42-14.16-6.42h0zM430 181.236l-113.747-.12 2.025-9.14L430 172.06v9.176zM1.256 171.433l117.062.707 1.036 7.78H1l.256-8.487zM173.9 192.21h-7.01l5.207-24.567c.037-.23.055-.463.055-.697 0-.79-.265-1.441-.802-1.954-.534-.51-1.197-.765-1.988-.765h-17.5l-5.931 27.98h-7.009l7.417-34.977h24.764c2.38 0 4.348.794 5.914 2.38 1.56 1.586 2.342 3.52 2.342 5.805 0 .701-.07 1.377-.209 2.028l-5.25 24.767h0zm41.974 0h-7.01l2.895-13.989h-13.94l-1.952-6.998h17.448l.759-3.58c.185-.929.01-1.731-.524-2.404-.537-.673-1.269-1.009-2.2-1.009h-14.115c-.931 0-1.806.336-2.623 1.012s-1.315 1.479-1.5 2.407l-5.207 24.562h-7.009l5.247-24.765c.605-2.75 2.145-5.142 4.617-7.17 2.472-2.027 5.08-3.04 7.836-3.04h14.482c2.38 0 4.348.794 5.913 2.38 1.562 1.586 2.342 3.543 2.342 5.876 0 .651-.07 1.306-.209 1.957l-5.25 24.762zm41.974 0h-7.01l5.207-24.567c.037-.23.056-.463.056-.697 0-.79-.266-1.441-.802-1.954-.534-.51-1.198-.765-1.988-.765h-17.5l-5.932 27.98h-7.009l7.417-34.977h24.765c2.38 0 4.348.794 5.913 2.38 1.562 1.586 2.342 3.52 2.342 5.805 0 .701-.07 1.377-.209 2.028l-5.25 24.767h0zm44.07-10.212c-.563 2.706-2.078 5.084-4.55 7.139s-5.08 3.076-7.833 3.076h-14.553c-2.379 0-4.348-.792-5.91-2.379-1.565-1.586-2.342-3.542-2.342-5.876 0-.652.068-1.306.21-1.96l3.076-14.552c.606-2.75 2.145-5.142 4.618-7.17 2.472-2.027 5.083-3.04 7.837-3.04h14.48c2.38 0 4.349.794 5.911 2.38 1.564 1.586 2.345 3.543 2.345 5.876 0 .651-.068 1.306-.21 1.957l-3.08 14.55zm-6.963-.216l2.99-14.136c.189-.928.013-1.73-.525-2.404-.537-.673-1.268-1.01-2.2-1.01h-14.113c-.887 0-1.748.337-2.587 1.013s-1.352 1.479-1.538 2.407l-2.99 14.136a4.102 4.102 0 00-.058.701c0 .746.255 1.389.768 1.925.513.537 1.164.806 1.953.806h14.176c.886 0 1.735-.348 2.55-1.053.817-.703 1.342-1.496 1.574-2.385z"/></g></g></svg>