<svg width="430" height="199" xmlns="http://www.w3.org/2000/svg">

 <g>
  <title>background</title>
  <rect fill="none" id="canvas_background" height="201" width="432" y="-1" x="-1"/>
 </g>
 <g>
  <title>Layer 1</title>
  <g id="XMLID_11_"/>
  <g id="XMLID_6_"/>
  <g id="XMLID_56_"/>
  <g id="XMLID_57_"/>
  <g id="XMLID_58_"/>
  <g id="XMLID_59_"/>
  <g id="XMLID_60_"/>
  <g stroke="null" id="svg_1">
   <path stroke="null" d="m228.01676,82.90338c2.53964,-6.88741 5.79899,-13.39432 9.64827,-19.35849l-2.12669,-2.62518c-3.52482,6.89036 -6.09101,14.25856 -7.52158,21.98367z" fill="#E10613" id="XMLID_20_"/>
   <path stroke="null" d="m248.07432,42.68799c-3.04403,3.39799 -5.79899,7.02899 -8.27669,10.83403l2.66647,3.2505c1.77863,-2.27417 3.63986,-4.45986 5.61022,-6.53935l0,-7.54518z" fill="#E10613" id="XMLID_24_"/>
   <path stroke="null" d="m299.72252,107.24381c5.94942,0 10.77504,5.16482 10.77504,11.51835c0,6.36532 -4.82856,11.52719 -10.77504,11.52719c-5.96122,0 -10.78388,-5.16187 -10.78388,-11.52719c0,-6.35353 4.82266,-11.51835 10.78388,-11.51835z" fill="#E10613" id="XMLID_32_"/>
   <path stroke="null" d="m331.0359,121.07468c-0.24482,3.74604 -1.05007,7.31511 -2.34791,10.6305l85.6841,19.38209l1.48957,-6.36237l-84.82576,-23.65022z" fill="#E10613" id="XMLID_27_"/>
   <path stroke="null" d="m391.32949,125.28086c0.14158,-2.24763 0.21532,-4.51885 0.21532,-6.80187c0,-52.02281 -38.07986,-94.34424 -84.8995,-94.34424c-19.14022,0 -36.82626,7.06439 -51.02878,18.98978l0,-7.92863c16.96043,-14.97237 40.00302,-24.1959 65.38763,-24.1959c32.23957,0 61.64748,14.11403 77.73482,37.53712c4.61324,6.71043 8.02892,14.29101 11.02576,22.1223c5.79014,15.15525 8.73388,31.22784 8.73388,47.82252c0,2.91129 -0.08554,5.81964 -0.27432,8.70144l0.03245,-0.38345c-0.32151,5.61906 -1.02647,11.15554 -2.0559,16.63597l-26.14266,-7.32101c0.62532,-3.69295 1.07957,-7.45964 1.29489,-11.26763l-0.0236,0.4336z" fill="#E10613" id="XMLID_13_"/>
   <g stroke="null" id="svg_2">
    <path stroke="null" d="m365.61453,122.94475c-0.10619,2.07655 -0.31266,4.12065 -0.62237,6.1441l13.10525,3.64281c0.46014,-2.9054 0.7846,-5.84324 0.93504,-8.79878l-0.0236,0.44835c0.11209,-1.87007 0.19173,-3.74604 0.19173,-5.61906c0.0236,-22.35237 -8.28554,-43.32137 -23.31101,-59.10784c-13.39727,-14.06094 -30.73525,-22.46446 -49.37698,-24.11331l-1.18871,14.35295c33.76748,2.99683 60.40273,32.75281 60.40273,68.87115c0,1.55741 -0.05899,3.12072 -0.16223,4.66928l0.05014,-0.48964z" fill="#FFFFFF" id="XMLID_12_"/>
    <g stroke="null" id="svg_3">
     <g stroke="null" id="XMLID_9_">
      <path stroke="null" d="m340.01755,121.62036c0.07669,-0.94683 0.10029,-1.89957 0.10029,-2.8582c0,-21.85978 -16.32921,-39.83194 -37.02978,-41.61942l1.17986,-14.34705c27.59978,2.41871 49.35338,26.59396 49.32978,55.96647c0,1.26835 -0.05309,2.53964 -0.13273,3.80799l0.05014,-0.51914c-0.07964,1.2418 -0.19173,2.47475 -0.32151,3.69295l-13.17604,-3.69295c0.0236,-0.31561 0.0236,-0.66072 0.04424,-0.97633l-0.04424,0.54568z" fill="#FFFFFF" id="XMLID_18_"/>
     </g>
    </g>
    <g stroke="null" id="XMLID_1_">
     <path stroke="null" d="m16.33288,15.32417l6.35942,0l12.66576,47.69863l17.73029,-47.69863l1.29489,0l17.54741,47.69863l12.88403,-47.69863l6.31223,0l-17.79223,66.19583l-1.15626,0l-18.38511,-50.09669l-18.73022,50.09669l-1.16216,0l-17.56806,-66.19583z" fill="#FFFFFF" id="XMLID_44_"/>
     <path stroke="null" d="m102.6305,15.32417l6.20309,0l0,59.82755l23.83014,0l0,6.39482l-30.03029,0l0,-66.22237l-0.00295,0z" fill="#FFFFFF" id="XMLID_47_"/>
     <path stroke="null" d="m167.77626,15.32417l28.90353,66.19583l-6.68978,0l-9.72791,-21.77424l-26.6854,0l-9.64827,21.77424l-6.90216,0l29.25158,-66.19583l1.49842,0zm-0.77281,14.05504l-10.6246,23.96583l21.19022,0l-10.56561,-23.96583z" fill="#FFFFFF" id="XMLID_51_"/>
     <path stroke="null" d="m206.29561,81.52l0,-66.19583l1.34799,0l41.23892,50.76036l0,-50.76036l6.1146,0l0,66.19583l-1.39518,0l-40.88791,-50.12324l0,50.12324l-6.41842,0z" fill="#FFFFFF" id="XMLID_54_"/>
    </g>
    <path stroke="null" d="m15.89928,87.71424l32.10094,0l0,11.63928l-10.58921,0l0,50.4123l-11.21453,0l0,-50.4123l-10.29719,0l0,-11.63928z" fill="#FFFFFF" id="XMLID_16_"/>
    <path stroke="null" d="m55.5218,87.71424l11.21158,0l0,23.41719l19.40863,0l0,-23.41719l11.18799,0l0,62.07518l-11.18799,0l0,-27.21928l-19.40863,0l0,27.21928l-11.21158,0l0,-62.07518z" fill="#FFFFFF" id="XMLID_19_"/>
    <path stroke="null" d="m110.61518,87.71424l31.69683,0l0,11.55079l-20.73302,0l0,11.23518l20.73302,0l0,11.35906l-20.73302,0l0,16.32331l20.73302,0l0,11.60978l-31.69683,0l0,-62.07813z" fill="#FFFFFF" id="XMLID_30_"/>
    <path stroke="null" d="m153.36432,87.71424l11.72482,0c6.41547,0 10.97266,0.60763 13.69518,1.84353c2.71957,1.23885 4.90525,3.2564 6.5718,6.1146c1.6459,2.84345 2.4836,6.19424 2.4836,10.07597c0,4.09705 -0.91439,7.49799 -2.74906,10.23525c-1.83468,2.73432 -4.58079,4.80496 -8.27079,6.21489l13.74827,27.59094l-12.07878,0l-13.07281,-26.29309l-1.02058,0l0,26.29309l-11.04935,0l0,-62.07518l0.0177,0zm11.04935,24.25194l3.47763,0c3.50122,0 5.93173,-0.48374 7.24727,-1.46892c1.32439,-0.97338 1.99986,-2.62223 1.99986,-4.89345c0,-1.35388 -0.32151,-2.53669 -0.99993,-3.54842c-0.64597,-1.00288 -1.53676,-1.72259 -2.64288,-2.15914c-1.10612,-0.43065 -3.13252,-0.66367 -6.06741,-0.66367l-3.01453,0l0,12.7336l0,0z" fill="#FFFFFF" id="XMLID_36_"/>
    <path stroke="null" d="m205.1718,87.71424l10.76914,0l13.48281,43.30072l13.58604,-43.30072l10.75144,0l9.73381,62.05158l-10.70129,0l-6.22669,-39.20367l-12.34129,39.20367l-9.73971,0l-12.23511,-39.20367l-6.38302,39.20367l-10.78388,0l10.08777,-62.05158z" fill="#FFFFFF" id="XMLID_39_"/>
    <path stroke="null" d="m299.72252,86.13029c8.21475,0 15.28504,3.17086 21.18137,9.53914c5.90813,6.35942 8.86957,14.11108 8.86957,23.24022c0,9.0495 -2.91719,16.73921 -8.76633,22.9895c-5.81374,6.28273 -12.90468,9.4241 -21.23151,9.4241c-8.71029,0 -15.9605,-3.23281 -21.72705,-9.65122c-5.76655,-6.45381 -8.65424,-14.09043 -8.65424,-22.95705c0,-5.94058 1.35094,-11.41216 4.04101,-16.3646c2.70187,-4.9554 6.39187,-8.92856 11.0818,-11.83986c4.71353,-2.91129 9.75741,-4.38022 15.2054,-4.38022zm-0.13568,11.58029c-5.36835,0 -9.90194,1.98806 -13.5595,5.99072c-3.6664,4.00266 -5.50108,9.07309 -5.50108,15.23194c0,6.86086 2.31252,12.30885 6.92576,16.28496c3.58086,3.10892 7.68086,4.70173 12.3236,4.70173c5.25036,0 9.69842,-2.02345 13.39432,-6.08806c3.69295,-4.04986 5.51583,-9.0436 5.51583,-14.97827c0,-5.90813 -1.85532,-10.91662 -5.56597,-15.00777c-3.69295,-4.09115 -8.2059,-6.13525 -13.53295,-6.13525z" fill="#FFFFFF" id="XMLID_41_"/>
   </g>
   <polygon stroke="null" id="svg_4" points="420,180.3861083984375 311.2909851074219,180.27108764648438 313.2259521484375,171.53720092773438 420,171.61676025390625 " fill="#FFFFFF"/>
   <polygon stroke="null" id="svg_5" points="10.244843482971191,171.01797485351562 122.1217041015625,171.69345092773438 123.11277770996094,179.12948608398438 10,179.12948608398438 " fill="#FFFFFF"/>
   <g stroke="null" id="svg_6">
    <path stroke="null" id="svg_7" d="m175.2418,190.87496l-6.69863,0l4.97604,-23.47914c0.0354,-0.22122 0.05309,-0.44245 0.05309,-0.66662c0,-0.75511 -0.25367,-1.37748 -0.76691,-1.86712c-0.51029,-0.48669 -1.14446,-0.73151 -1.89957,-0.73151l-16.72446,0l-5.66921,26.74144l-6.69863,0l7.08799,-33.42827l23.66791,0c2.27417,0 4.15604,0.75806 5.65151,2.27417c1.49252,1.51612 2.23878,3.36554 2.23878,5.54827c0,0.66957 -0.06784,1.31554 -0.20058,1.93791l-5.01734,23.67086z" fill="#FFFFFF"/>
    <path stroke="null" id="svg_8" d="m215.35691,190.87496l-6.69863,0l2.76676,-13.37072l-13.32353,0l-1.86417,-6.68683l16.67432,0l0.72561,-3.42158c0.17698,-0.88784 0.00885,-1.65475 -0.50144,-2.29777c-0.51324,-0.64302 -1.2123,-0.96453 -2.10309,-0.96453l-13.4887,0c-0.89079,0 -1.72554,0.32151 -2.50719,0.96748s-1.25655,1.41288 -1.43353,2.30072l-4.97604,23.47324l-6.69863,0l5.01439,-23.66791c0.57813,-2.62813 2.05,-4.9141 4.41266,-6.85201c2.36266,-1.93791 4.85511,-2.9054 7.48914,-2.9054l13.83971,0c2.27417,0 4.15604,0.75806 5.65151,2.27417c1.49252,1.51612 2.23878,3.38619 2.23878,5.61612c0,0.62237 -0.06784,1.2477 -0.20058,1.87007l-5.01734,23.66496z" fill="#FFFFFF"/>
    <path stroke="null" id="svg_9" d="m255.47201,190.87496l-6.69863,0l4.97604,-23.47914c0.0354,-0.22122 0.05309,-0.44245 0.05309,-0.66662c0,-0.75511 -0.25367,-1.37748 -0.76691,-1.86712c-0.51029,-0.48669 -1.14446,-0.73151 -1.89957,-0.73151l-16.72446,0l-5.66921,26.74144l-6.69863,0l7.08799,-33.42827l23.66791,0c2.27417,0 4.15604,0.75806 5.65151,2.27417c1.49252,1.51612 2.23878,3.36554 2.23878,5.54827c0,0.66957 -0.06784,1.31554 -0.20058,1.93791l-5.01734,23.67086z" fill="#FFFFFF"/>
    <path stroke="null" id="svg_10" d="m297.58993,181.1146c-0.53683,2.58683 -1.98511,4.85806 -4.34777,6.82252s-4.85511,2.94079 -7.48619,2.94079l-13.90755,0c-2.27417,0 -4.15604,-0.75806 -5.64856,-2.27417c-1.49547,-1.51612 -2.23878,-3.38619 -2.23878,-5.61612c0,-0.62237 0.06489,-1.2477 0.20058,-1.87302l2.94079,-13.90755c0.57813,-2.62813 2.05,-4.9141 4.41266,-6.85201c2.36266,-1.93791 4.85806,-2.9054 7.48914,-2.9054l13.83971,0c2.27417,0 4.15604,0.75806 5.64856,2.27417c1.49547,1.51612 2.24173,3.38619 2.24173,5.61612c0,0.62237 -0.06489,1.2477 -0.20058,1.87007l-2.94374,13.9046zm-6.65439,-0.20647l2.8582,-13.50935c0.17993,-0.88784 0.0118,-1.65475 -0.50144,-2.29777c-0.51324,-0.64302 -1.2123,-0.96453 -2.10309,-0.96453l-13.4887,0c-0.84655,0 -1.6695,0.32151 -2.4718,0.96748s-1.29194,1.41288 -1.46892,2.30072l-2.8582,13.50935c-0.03835,0.22122 -0.05604,0.4454 -0.05604,0.66957c0,0.71381 0.24482,1.32734 0.73446,1.84058c0.48964,0.51324 1.11201,0.76986 1.86712,0.76986l13.5477,0c0.84655,0 1.6577,-0.33331 2.4364,-1.00583c0.78165,-0.67252 1.28309,-1.43058 1.50432,-2.28007z" fill="#FFFFFF"/>
   </g>
  </g>
 </g>
</svg>