<svg xmlns="http://www.w3.org/2000/svg" width="1203.743" height="500.125"><path fill="red" d="M851.887 265.43c17.627 0 31.936 14.232 31.936 31.786 0 17.555-14.309 31.787-31.936 31.787s-31.934-14.232-31.934-31.787c.001-17.553 14.307-31.786 31.934-31.786zM944.661 303.564c-.732 10.327-3.125 20.189-6.982 29.346l253.811 53.467 4.395-17.578-251.224-65.235z"/><g fill="red"><path d="M639.51 198.315c7.52-18.994 17.162-36.963 28.588-53.395l-6.299-7.251c-10.449 18.996-18.041 39.333-22.289 60.646zM698.909 87.378c-9.033 9.375-17.139 19.386-24.512 29.884l7.91 8.983c5.273-6.273 10.791-12.305 16.602-18.042V87.378z"/></g><path fill="red" d="M1123.225 315.161c.439-6.177.637-12.476.637-18.75 0-143.48-112.793-260.181-251.467-260.181-56.688 0-109.031 19.458-151.121 52.344V66.748C771.467 25.415 839.729 0 914.973 0c95.459 0 182.568 38.916 230.227 103.517 13.672 18.506 23.777 39.403 32.666 61.011 17.139 41.797 25.879 86.133 25.879 131.885 0 8.032-.244 16.064-.83 23.999l.098-1.024c-.977 15.479-3.027 30.762-6.055 45.85l-77.441-20.215c1.807-10.156 3.174-20.558 3.809-31.03l-.101 1.168z"/><path fill="#FFF" d="M1047.053 308.74c-.293 5.713-.928 11.354-1.807 16.919l38.818 10.083c1.318-8.008 2.295-16.113 2.783-24.292l-.098 1.271c.342-5.177.586-10.327.586-15.503.049-61.646-24.512-119.482-69.092-163.037-39.648-38.771-91.018-61.963-146.24-66.479l-3.516 39.551c100.049 8.252 178.904 90.332 178.904 189.967 0 4.297-.145 8.568-.486 12.865l.148-1.345z"/><path fill="#FFF" d="M971.223 305.078c.244-2.612.344-5.225.344-7.86 0-60.304-48.391-109.889-109.719-114.796l3.518-39.574c81.736 6.665 146.189 73.34 146.094 154.37 0 3.49-.146 6.981-.391 10.497l.145-1.439c-.195 3.418-.537 6.836-.928 10.156l-39.063-10.156c.098-.879.098-1.831.146-2.71l-.146 1.512z"/><g fill="#FFF"><path d="M12.483 11.914h18.823L68.83 143.481l52.54-131.567h3.833l51.978 131.567L215.34 11.914h18.677l-52.686 182.568h-3.442L123.445 56.323 67.952 194.482h-3.418L12.483 11.914zM268.099 11.914h18.384V176.93h70.557v17.65H268.1l-.001-182.666zM461.067 11.914l85.596 182.568h-19.8l-28.81-60.06H419l-28.589 60.06h-20.436L456.6 11.914h4.467zm-2.295 38.77l-31.471 66.112h62.77l-31.299-66.112zM575.179 194.482V11.914h3.979l122.143 139.99V11.914h18.115v182.568h-4.15L594.173 56.25v138.232h-18.994z"/></g><path fill="#FFF" d="M11.189 211.572h95.093v32.104H74.91v139.037H41.683V243.677H11.189v-32.105zM128.548 211.572h33.228v64.575h57.471v-64.575h33.13v171.191h-33.13v-75.05h-57.471v75.05h-33.228V211.572zM291.756 211.572h93.872v31.86h-61.401v30.98h61.401v31.299h-61.401v45.068h61.401v31.982h-93.872V211.572zM418.367 211.572h34.741c18.993 0 32.471 1.66 40.552 5.078 8.057 3.418 14.525 8.984 19.458 16.846 4.883 7.861 7.349 17.09 7.349 27.809 0 11.278-2.71 20.653-8.13 28.197-5.42 7.568-13.574 13.281-24.512 17.163l40.723 76.1h-35.767l-38.722-72.511h-3.052v72.511h-32.715V211.572h.075zm32.739 66.896h10.277c10.4 0 17.578-1.367 21.484-4.054 3.906-2.686 5.908-7.227 5.908-13.501 0-3.734-.952-6.981-2.954-9.766-1.904-2.783-4.541-4.785-7.813-5.957-3.271-1.196-9.276-1.831-17.969-1.831h-8.937v35.108h.004zM571.81 211.572h31.935l39.916 119.434 40.26-119.434h31.836l28.809 171.143h-31.689l-18.408-108.153-36.572 108.153h-28.832L592.81 274.562l-18.921 108.153h-31.934l29.855-171.143zM851.887 207.202c24.365 0 45.266 8.74 62.744 26.294 17.48 17.554 26.271 38.94 26.271 64.111 0 24.951-8.645 46.143-25.93 63.379-17.283 17.334-38.279 26.025-62.938 26.025-25.781 0-47.268-8.937-64.355-26.611-17.09-17.822-25.635-38.867-25.635-63.33 0-16.382 4.004-31.47 11.963-45.142 8.008-13.673 18.945-24.635 32.861-32.643 13.965-8.03 28.906-12.083 45.019-12.083zm-.39 31.934c-15.918 0-29.346 5.492-40.186 16.527s-16.26 25.024-16.26 42.018c0 18.921 6.836 33.91 20.508 44.896 10.596 8.594 22.754 12.939 36.475 12.939 15.576 0 28.76-5.566 39.697-16.748 10.938-11.206 16.357-24.951 16.357-41.31 0-16.309-5.518-30.103-16.553-41.405-10.888-11.278-24.267-16.917-40.038-16.917z"/><g fill="#FFF" stroke="#FFF" stroke-miterlimit="10"><path stroke-width=".25" d="M509.547 500h-67.529c-6.493 0-11.864-2.147-16.112-6.493-4.272-4.297-6.396-9.668-6.396-16.017 0-1.807.195-3.563.563-5.371l14.307-67.529h18.921l-13.989 66.992a10.997 10.997 0 00-.146 1.71c0 2.147.684 3.954 2.1 5.42 1.393 1.465 3.175 2.196 5.322 2.196h66.992L509.547 500zM547.535 500h-19.116l20.215-95.41h19.116L547.535 500zM674.219 500h-19.115l14.186-66.991c.098-.636.145-1.271.145-1.904 0-2.148-.73-3.955-2.146-5.322-1.465-1.416-3.271-2.1-5.42-2.1h-47.754L597.926 500H578.81l20.239-95.41h67.553c6.494 0 11.816 2.197 16.113 6.494 4.248 4.347 6.396 9.619 6.396 15.82 0 1.904-.195 3.76-.586 5.566L674.219 500z"/><path d="M814.821 404.066c-8.725 0-17.447.121-26.166-.064-3.143-.066-5.771.695-8.301 2.462-4.732 3.31-9.541 6.517-14.346 9.723-10.789 7.197-21.596 14.368-33.064 21.994l7.137-33.957h-18.709l-19.926 93.583h18.838c2.217-10.764 4.342-21.225 6.561-31.662.262-1.224.732-2.779 1.645-3.426 5.867-4.171 11.887-8.131 18.084-12.313l8.281 13.919c6.34 10.659 12.664 21.326 19.051 31.957.447.749 1.334 1.736 2.037 1.752 6.063.14 12.127.08 18.93.08-11.553-19.569-22.691-38.439-33.832-57.313l53.906-35.943c-.044-.265-.085-.529-.126-.792zM0 443.592l384.667-.501L379 468.893l-379-1zM1204 466.089l-384.833.501 5.75-25.804 379.083 1z"/></g></svg>