<svg id="APNS_b" xmlns="http://www.w3.org/2000/svg" width="27.259" height="28.871" viewBox="0 0 27.259 28.871">
  <path id="路径_305" data-name="路径 305" d="M355.044,119.325h0a.923.923,0,0,1-.925-.882,13.3,13.3,0,0,0-3.274-7.918.943.943,0,0,1,.035-1.283h0a.935.935,0,0,1,1.362.044,15.14,15.14,0,0,1,3.745,9.036A.953.953,0,0,1,355.044,119.325Z" transform="translate(-328.729 -107.836)" fill="#00d7ff"/>
  <path id="路径_306" data-name="路径 306" d="M100.9,119.416h0a.927.927,0,0,1-.925-1,15.087,15.087,0,0,1,3.745-9.036.935.935,0,0,1,1.362-.044h0a.943.943,0,0,1,.035,1.283,13.234,13.234,0,0,0-3.283,7.918A.955.955,0,0,1,100.9,119.416Z" transform="translate(-99.977 -107.927)" fill="#00d7ff"/>
  <path id="路径_307" data-name="路径 307" d="M207.353,378.053A4.657,4.657,0,0,1,202.7,373.4h1.86a2.794,2.794,0,1,0,5.587,0h1.86A4.663,4.663,0,0,1,207.353,378.053Z" transform="translate(-193.733 -349.183)" fill="#00d7ff"/>
  <path id="路径_308" data-name="路径 308" d="M136.455,150.258H115.974a2.173,2.173,0,0,1-1.414-3.824,8.332,8.332,0,0,0,2.968-6.373V136.6a8.7,8.7,0,0,1,17.391,0v3.466a8.326,8.326,0,0,0,2.951,6.364,2.152,2.152,0,0,1,.768,1.659A2.187,2.187,0,0,1,136.455,150.258Zm-10.241-20.49a6.837,6.837,0,0,0-6.827,6.827v3.466a10.2,10.2,0,0,1-3.614,7.787.3.3,0,0,0-.113.236.319.319,0,0,0,.314.314h20.49a.319.319,0,0,0,.314-.314.3.3,0,0,0-.113-.236,10.2,10.2,0,0,1-3.614-7.787V136.6A6.85,6.85,0,0,0,126.214,129.768Z" transform="translate(-112.593 -125.115)" fill="#00d7ff"/>
  <path id="路径_309" data-name="路径 309" d="M246.234,96h0a.935.935,0,0,1,.934.934v1.86a.935.935,0,0,1-.934.934h0a.935.935,0,0,1-.934-.934v-1.86A.935.935,0,0,1,246.234,96Z" transform="translate(-232.613 -96)" fill="#00d7ff"/>
</svg>
