<svg id="bluetooth-w" xmlns="http://www.w3.org/2000/svg" width="20.035" height="28.828" viewBox="0 0 20.035 28.828">
  <path id="bluetooth" d="M91.38,34.528a1.018,1.018,0,0,1-1.019-1.013V22.558l-6.6,4.969a1.007,1.007,0,0,1-.714.3.983.983,0,0,1-.714-.3,1.011,1.011,0,0,1,0-1.434l7.612-5.982-7.617-5.982a1.016,1.016,0,0,1,.714-1.733.983.983,0,0,1,.714.3l6.6,4.969V6.713A1.018,1.018,0,0,1,91.374,5.7a.975.975,0,0,1,.639.236l9.673,6.7a1.014,1.014,0,0,1,0,1.555l-8.728,5.919,8.74,5.919a1.014,1.014,0,0,1,0,1.555l-9.673,6.7a.977.977,0,0,1-.645.242Zm1.008-3.178,7.076-4.537-7.076-4.537Zm0-13.4,7.076-4.537L92.387,8.878Z" transform="translate(-82.025 -5.7)" fill="#fff" opacity="0.6"/>
</svg>
