<svg id="Battery_charge_middle" data-name="Battery charge middle" xmlns="http://www.w3.org/2000/svg" width="35.97" height="20" viewBox="0 0 35.97 20">
  <g id="组_636" data-name="组 636">
    <path id="路径_766" data-name="路径 766" d="M-72.771.15A3.935,3.935,0,0,0-76.7,4.08V16.171A3.935,3.935,0,0,0-72.771,20.1h10.428a1.815,1.815,0,0,1-.252-1.36l.1-.5H-72.821a2.129,2.129,0,0,1-2.116-2.116V4.08a2.129,2.129,0,0,1,2.116-2.116h13.149L-58.564.15a.049.049,0,0,1,.05-.05H-72.771Z" transform="translate(76.7 -0.1)" fill="#fff"/>
    <path id="路径_767" data-name="路径 767" d="M-24.008,5.591v9.068a.9.9,0,0,1-.907.907h-1.108v.6A3.935,3.935,0,0,1-29.952,20.1H-43l1.159-1.814h11.889a2.129,2.129,0,0,0,2.116-2.116V4.08a2.129,2.129,0,0,0-2.116-2.116H-39.02l.1-.655A1.952,1.952,0,0,0-39.171.1h9.219a3.935,3.935,0,0,1,3.929,3.929v.6h1.108A.982.982,0,0,1-24.008,5.591Z" transform="translate(59.977 -0.1)" fill="#fff"/>
  </g>
  <g id="组_637" data-name="组 637" transform="translate(2.973 2.972)">
    <path id="路径_768" data-name="路径 768" d="M-64.956,20.106h-4.332A1.484,1.484,0,0,1-70.8,18.594V7.511A1.484,1.484,0,0,1-69.289,6h4.332a1.484,1.484,0,0,1,1.511,1.511V18.594A1.516,1.516,0,0,1-64.956,20.106Z" transform="translate(70.8 -6)" fill="#62c471"/>
  </g>
  <g id="组_642" data-name="组 642" transform="translate(13.094 0.05)">
    <g id="组_639" data-name="组 639" transform="translate(1.264 0)">
      <g id="组_638" data-name="组 638">
        <path id="路径_769" data-name="路径 769" d="M-41.8.2h-2.569m-1.259,19.95H-48.2" transform="translate(48.2 -0.2)" fill="none"/>
      </g>
    </g>
    <g id="组_641" data-name="组 641" transform="translate(0 0.313)">
      <g id="组_640" data-name="组 640">
        <path id="路径_770" data-name="路径 770" d="M-40.982,9.022l-5.995,9.572-.806,1.259a.514.514,0,0,1-.4.252c-.1,0-.151,0-.2-.05a.7.7,0,0,1-.252-.705l.151-.756,1.562-6.952H-50.2a.538.538,0,0,1-.453-.353.636.636,0,0,1,.05-.6l5.088-8.363.756-1.259a.5.5,0,0,1,.6-.2.693.693,0,0,1,.3.655l-.1.806-.756,5.743h3.325a.538.538,0,0,1,.453.353A.528.528,0,0,1-40.982,9.022Z" transform="translate(50.709 -0.822)" fill="#fff"/>
      </g>
    </g>
  </g>
</svg>
