<svg id="IoT-w" xmlns="http://www.w3.org/2000/svg" width="31.235" height="28.828" viewBox="0 0 31.235 28.828">
  <g id="upload" opacity="0.6">
    <g id="组_39" data-name="组 39">
      <path id="路径_85" data-name="路径 85" d="M25.4,25.929a9.051,9.051,0,0,0-16.764-3,5.19,5.19,0,0,0-.951-.09,4.955,4.955,0,0,0-4.952,4.945,5.4,5.4,0,0,0,.1,1.026A6.878,6.878,0,0,0,0,34.357a7.35,7.35,0,0,0,1.869,4.868,6.674,6.674,0,0,0,4.625,2.322h5.575a.866.866,0,1,0,0-1.732h-5.5A5.464,5.464,0,0,1,1.734,34.35a5.139,5.139,0,0,1,2.55-4.425.872.872,0,0,0,.379-1.052,3.138,3.138,0,0,1-.193-1.1,3.221,3.221,0,0,1,3.218-3.213,3.167,3.167,0,0,1,1.1.192.872.872,0,0,0,1.085-.443,7.315,7.315,0,0,1,13.893,2.405.865.865,0,0,0,.719.77,6.24,6.24,0,0,1-.591,12.327H19.16a.866.866,0,1,0,0,1.732h4.83A7.689,7.689,0,0,0,29.141,39,7.977,7.977,0,0,0,25.4,25.929Z" transform="translate(0 -18.4)" fill="#fff"/>
      <path id="路径_86" data-name="路径 86" d="M168.885,191.467a.862.862,0,0,0,0-1.225l-4.592-4.586a.878.878,0,0,0-.61-.257.851.851,0,0,0-.61.257l-4.592,4.586a.862.862,0,0,0,0,1.225.873.873,0,0,0,.61.257.847.847,0,0,0,.61-.257l3.115-3.111v14.3a.867.867,0,0,0,1.734,0v-14.3l3.115,3.111A.858.858,0,0,0,168.885,191.467Z" transform="translate(-148.062 -174.69)" fill="#fff"/>
    </g>
  </g>
</svg>
