<svg xmlns="http://www.w3.org/2000/svg" width="26.445" height="25.884" viewBox="0 0 26.445 25.884"><defs><style>.a{fill:#fff;}</style></defs><path class="a" d="M146.082,36.956a6.008,6.008,0,0,1,3.572-.262,6.9,6.9,0,0,1,2.4.906.646.646,0,0,0,.876-.195.637.637,0,0,0-.18-.876,8.073,8.073,0,0,0-2.846-1.086,7.115,7.115,0,0,0-4.456.4.639.639,0,0,0-.232.876.63.63,0,0,0,.869.232Z" transform="translate(-134.261 -32.707)"/><path class="a" d="M18.633,26.8A9.33,9.33,0,0,0,24,23.523c1.827-2.112,2.748-4.613,2.419-6.538-.337-2.022-3.13-3.093-8.3-3.19a4.432,4.432,0,0,0-1.917-3.108c.681-1.76,2.366-2.194,3.879-2.576,1.1-.285,2.052-.524,2.4-1.326a1.918,1.918,0,0,0-.232-1.73,8.662,8.662,0,0,0-6.088-3.872C13.428.652,10.785,1.1,9.28,2.352,7.7,3.663,8.164,6.613,10.65,11.107a4.4,4.4,0,0,0-1.243,2,4.641,4.641,0,0,0-.187,1.161c-2.059.509-3.355-.816-4.516-2.007-.794-.816-1.483-1.52-2.351-1.423A1.934,1.934,0,0,0,.967,11.9a8.693,8.693,0,0,0-.292,7.234C1.589,21.771,3.3,23.822,5.131,24.5h0a2.342,2.342,0,0,0,.816.142A4.58,4.58,0,0,0,9,23.014l1.46-1.722A30.062,30.062,0,0,0,12.208,18.6c.067.022.135.052.2.067h0a4.656,4.656,0,0,0,1.281.195,4.319,4.319,0,0,0,1.76-.374c1.543,1.543,1.033,3.362.584,4.972-.307,1.1-.577,2.044-.052,2.748a1.8,1.8,0,0,0,1.37.637Zm-.659-11.128a5.19,5.19,0,0,0,.127-.592c4.216.082,6.845.861,7.054,2.127.27,1.535-.569,3.692-2.119,5.489a7.46,7.46,0,0,1-5.4,2.906c-.412-.007-.584-.1-.622-.142-.142-.195.09-1.033.255-1.64.449-1.61,1.1-3.977-.7-6a4.472,4.472,0,0,0,1.408-2.149ZM10.088,3.341c1.2-1,3.49-1.348,5.826-.9a7.393,7.393,0,0,1,5.2,3.228c.195.359.21.554.18.607-.1.225-.936.442-1.55.6-1.535.389-3.767.974-4.71,3.258-.03-.007-.06-.022-.09-.03a4.427,4.427,0,0,0-3.258.285c-1.97-3.625-2.576-6.238-1.6-7.047Zm.539,10.14a3.2,3.2,0,1,1,.255,2.426A3.119,3.119,0,0,1,10.628,13.481Zm-8.567-.906c.27-.434.419-.464.434-.464.24-.022.854.592,1.3,1.048C4.966,14.364,6.7,16.124,9.37,15.54a4.391,4.391,0,0,0,1.707,2.471c-2.217,3.767-4.261,5.744-5.5,5.295-1.46-.539-2.906-2.336-3.684-4.583a7.377,7.377,0,0,1,.172-6.148Z" transform="translate(-0.042 -0.964)"/><path class="a" d="M37.305,191.262a.615.615,0,0,0,.322.09.634.634,0,0,0,.614-.472.645.645,0,0,0-.292-.719,5.834,5.834,0,0,1-2-2.951,6.865,6.865,0,0,1-.419-2.546.627.627,0,0,0-.165-.457.634.634,0,0,0-.442-.21.652.652,0,0,0-.667.607,8.145,8.145,0,0,0,.487,3.025,6.945,6.945,0,0,0,2.561,3.632Z" transform="translate(-31.692 -170.291)"/><path class="a" d="M252.332,221.149a6.863,6.863,0,0,1-1.992,1.633.63.63,0,0,0-.344.539.667.667,0,0,0,.292.569.626.626,0,0,0,.637.03,8.213,8.213,0,0,0,2.374-1.932,7.006,7.006,0,0,0,1.865-4.051.637.637,0,0,0-1.273,0A5.8,5.8,0,0,1,252.332,221.149Z" transform="translate(-231.277 -201.099)"/></svg>