<svg id="home-white" xmlns="http://www.w3.org/2000/svg" width="32.006" height="30.539" viewBox="0 0 32.006 30.539">
  <path id="路径_801" data-name="路径 801" d="M31.711,24.92,16.649,11.451a.423.423,0,0,0-.086-.066.891.891,0,0,0-1.2-.02L.3,24.834a.891.891,0,0,0,1.185,1.33l2.712-2.429V39.442A2.241,2.241,0,0,0,6.432,41.68h4.753a2.1,2.1,0,0,0,2.1-2.1V31.6a.323.323,0,0,1,.323-.323h4.8a.323.323,0,0,1,.323.323V39.58a2.1,2.1,0,0,0,2.1,2.1h4.753a2.544,2.544,0,0,0,2.238-2.8V23.821l2.712,2.429a.9.9,0,0,0,1.257-.072A.906.906,0,0,0,31.711,24.92Zm-5.674,4.391v9.552c0,.639-.316,1.027-.461,1.027H20.823a.323.323,0,0,1-.323-.323V31.6a2.1,2.1,0,0,0-2.1-2.1H13.6a2.1,2.1,0,0,0-2.1,2.1V39.58a.323.323,0,0,1-.323.323H6.426a.462.462,0,0,1-.461-.461v-17.3l9.993-8.926,10.078,9.012v7.083Z" transform="translate(0 -11.141)" fill="#fff" opacity="0.6"/>
</svg>
