<svg id="information-w" xmlns="http://www.w3.org/2000/svg" width="30.107" height="30.107" viewBox="0 0 30.107 30.107">
  <g id="information_1_" data-name="information (1)" opacity="0.6">
    <g id="组_254" data-name="组 254">
      <g id="组_253" data-name="组 253">
        <ellipse id="椭圆_214" data-name="椭圆 214" cx="1.225" cy="1.225" rx="1.225" ry="1.225" transform="translate(13.828 6.737)" fill="#fff"/>
        <path id="路径_425" data-name="路径 425" d="M25.7,4.409A15.054,15.054,0,0,0,4.409,25.7a15.059,15.059,0,0,0,18.434,2.24,1.176,1.176,0,0,0-1.219-2.012A12.814,12.814,0,1,1,25.6,22.1a1.176,1.176,0,0,0,1.955,1.307,15.017,15.017,0,0,0-1.859-19Z" fill="#fff"/>
        <path id="路径_426" data-name="路径 426" d="M237.169,187A1.169,1.169,0,0,0,236,188.169v10.406a1.169,1.169,0,1,0,2.338,0V188.169A1.169,1.169,0,0,0,237.169,187Z" transform="translate(-222.115 -175.727)" fill="#fff"/>
      </g>
    </g>
  </g>
</svg>
