<svg id="lock-padlock-symbol-for-security-interface" xmlns="http://www.w3.org/2000/svg" width="10" height="13.826" viewBox="0 0 10 13.826">
  <g id="lock-padlock-symbol-for-security-interface-2" data-name="lock-padlock-symbol-for-security-interface" transform="translate(-80.994)" opacity="0.6">
    <g id="组_399" data-name="组 399" transform="translate(80.994)">
      <path id="路径_435" data-name="路径 435" d="M85.994,0a4.048,4.048,0,0,0-4.043,4.043V6.353a.109.109,0,0,1-.058.079c-.219.073-.4.136-.559.2a.559.559,0,0,0-.34.5v5.306a.563.563,0,0,0,.338.5,12.656,12.656,0,0,0,9.324,0,.563.563,0,0,0,.338-.5V7.13a.559.559,0,0,0-.34-.5c-.163-.063-.34-.126-.559-.2a.109.109,0,0,1-.058-.079V4.043A4.048,4.048,0,0,0,85.994,0Zm2.653,4.043V6.036a12.622,12.622,0,0,0-5.306,0V4.043a2.653,2.653,0,0,1,5.306,0Z" transform="translate(-80.994)" fill="#fff"/>
    </g>
  </g>
</svg>
