<svg xmlns="http://www.w3.org/2000/svg" width="20" height="16.32" viewBox="0 0 20 16.32">
  <g id="组_412" data-name="组 412" opacity="0.6">
    <path id="路径_440" data-name="路径 440" d="M609.389,615.5c.314-.239.158-.478-.238-.478h-1.419a5.676,5.676,0,0,1,9.61-4.011l1.9-1.9a8.54,8.54,0,0,0-5.913-2.364,8.276,8.276,0,0,0-8.273,8.273h-1.337c-.471,0-.552.239-.232.478l1.181,1.257,1.255,1.182a.678.678,0,0,0,1.029,0l1.262-1.182Zm13.709-1.346h0l-1.179-1.182-1.187-1.181a.763.763,0,0,0-1.1,0l-1.181,1.181-1.255,1.182c-.238.327-.163.554.233.554h1.419a5.589,5.589,0,0,1-5.593,5.684,5.455,5.455,0,0,1-3.942-1.66l-1.889,1.9a8.25,8.25,0,0,0,14.1-5.922h1.418c.389,0,.471-.226.157-.554Z" transform="translate(-603.291 -606.746)" fill="#f3f3f3" fill-rule="evenodd"/>
  </g>
</svg>
