<svg xmlns="http://www.w3.org/2000/svg" width="33.813" height="31.037" viewBox="0 0 33.813 31.037"><defs><style>.a{fill:#00d7ff;stroke:#00cbf3;stroke-width:0.5px;}</style></defs><g transform="translate(0.25 0.25)"><path class="a" d="M6.248,23.167a.775.775,0,0,1-.079,0A6.939,6.939,0,0,1,6.463,9.345,10.4,10.4,0,0,1,25.891,6.613a8.312,8.312,0,0,1,1.362,16.265.694.694,0,0,1-.371-1.338A6.923,6.923,0,0,0,25.406,7.967a.693.693,0,0,1-.591-.4A9.011,9.011,0,0,0,7.738,10.12a.7.7,0,0,1-.687.6,5.551,5.551,0,0,0-.727,11.067.694.694,0,0,1-.076,1.384Z" transform="translate(0 -1)"/><path class="a" d="M10.47,19.94a.7.7,0,0,1-.491-.2L7.2,16.961a.7.7,0,0,1,0-.981L9.979,13.2a.694.694,0,0,1,.981.981L8.675,16.47l2.285,2.285a.7.7,0,0,1,0,.981A.687.687,0,0,1,10.47,19.94Z" transform="translate(2.716 3.657)"/><path class="a" d="M20.09,16.388H7.943a.694.694,0,0,1,0-1.388H20.09a.694.694,0,0,1,0,1.388Z" transform="translate(2.813 4.433)"/><path class="a" d="M14.694,24.94a.693.693,0,0,1-.491-1.184l2.285-2.285L14.2,19.186a.694.694,0,0,1,.981-.981l2.776,2.776a.7.7,0,0,1,0,.981l-2.776,2.776a.7.7,0,0,1-.49.2Z" transform="translate(5.433 5.598)"/><path class="a" d="M19.841,21.388H7.694a.694.694,0,0,1,0-1.388H19.841a.694.694,0,1,1,0,1.388Z" transform="translate(2.716 6.373)"/></g></svg>