<svg xmlns="http://www.w3.org/2000/svg" width="16.834" height="31.923" viewBox="0 0 16.834 31.923"><defs><style>.a{fill:#fff;}</style></defs><path class="a" d="M136.587,11.971a1.247,1.247,0,1,0,0-2.494h-2.494V7.544h2.494a1.247,1.247,0,1,0,0-2.494h-2.522a5.612,5.612,0,0,0-11.195.561V19.492a7.482,7.482,0,1,0,11.706.609,1.247,1.247,0,1,0-2.03,1.448,4.988,4.988,0,1,1-7.556-.67,1.247,1.247,0,0,0,.374-.89V5.611a3.117,3.117,0,1,1,6.235,0v9.477a1.247,1.247,0,0,0,1.247,1.247h3.741a1.247,1.247,0,1,0,0-2.494h-2.494v-1.87Z" transform="translate(-121)"/><path class="a" d="M203.494,70a1.247,1.247,0,0,0-1.247,1.247v16.67a2.494,2.494,0,1,0,2.494,0V71.247A1.247,1.247,0,0,0,203.494,70Z" transform="translate(-196.012 -65.636)"/></svg>