<svg xmlns="http://www.w3.org/2000/svg" viewBox="0 0 36.01 20"><path d="M35.1 4.5h-1.11v-.56c0-2.18-1.76-3.94-3.94-3.94H3.94C1.76 0 0 1.76 0 3.94v12.12C0 18.23 1.76 20 3.94 20h26.11c2.17 0 3.94-1.76 3.94-3.94v-.61h1.11c.5 0 .91-.4.91-.9V5.46a.92.92 0 0 0-.88-.96zm-2.98 11.57c0 1.17-.95 2.11-2.12 2.12H3.89c-1.17 0-2.11-.95-2.12-2.12V3.94c0-1.17.95-2.11 2.12-2.12H30c1.17 0 2.11.95 2.12 2.12v12.12Z" style="fill:#fff"/><path d="M4.57 3.06c-.89 0-1.6.71-1.6 1.59v10.71c0 .88.72 1.59 1.6 1.59h.28V3.06z" style="fill:#ff0a7c"/></svg>