<svg xmlns="http://www.w3.org/2000/svg" id="Battery_middle" viewBox="0 0 36.01 20"><defs><style>.cls-1{fill:#fff}</style></defs><path id="_路径_771" d="M35.1 4.49h-1.11v-.56c0-2.17-1.76-3.94-3.94-3.94H3.94A3.95 3.95 0 0 0 0 3.94v12.12C0 18.23 1.76 20 3.94 20h26.11c2.17 0 3.94-1.76 3.94-3.94v-.61h1.11c.5 0 .91-.4.91-.9V5.46a.92.92 0 0 0-.88-.96h-.03Zm-2.98 11.57c0 1.17-.95 2.11-2.12 2.12H3.89c-1.17 0-2.11-.95-2.12-2.12V3.94c0-1.17.95-2.11 2.12-2.12H30c1.17 0 2.11.95 2.12 2.12z" class="cls-1"/><path d="M4.57 3.06c-.89 0-1.6.71-1.6 1.59v10.71c0 .88.72 1.59 1.6 1.59h12.51V3.06z" class="cls-1"/></svg>