<svg xmlns="http://www.w3.org/2000/svg" width="36.01" height="20" data-name="Battery middle"><path fill="#fff" d="M35.1 4.495h-1.11v-.556A3.944 3.944 0 0 0 30.051 0H3.939A3.944 3.944 0 0 0 0 3.939v12.122A3.944 3.944 0 0 0 3.939 20H30.05a3.944 3.944 0 0 0 3.939-3.939v-.606H35.1a.905.905 0 0 0 .909-.909V5.455a.92.92 0 0 0-.909-.96m-2.98 11.566a2.134 2.134 0 0 1-2.121 2.121H3.889a2.134 2.134 0 0 1-2.121-2.121V3.939a2.134 2.134 0 0 1 2.121-2.121H30a2.134 2.134 0 0 1 2.121 2.121v12.122Z" data-name="路径 771"/><path fill="#fff" d="M8.549 2.929H4.394a1.49 1.49 0 0 0-1.515 1.515v11.111a1.49 1.49 0 0 0 1.515 1.515h4.155a1.49 1.49 0 0 0 1.515-1.515V4.444a1.46 1.46 0 0 0-1.515-1.515" data-name="路径 772"/></svg>