<svg xmlns="http://www.w3.org/2000/svg" id="Battery_middle" viewBox="0 0 36.01 20"><defs><style>.cls-1{fill:#fff}</style></defs><path d="M8.61 3.06H4.57c-.89 0-1.6.71-1.6 1.59v10.71c0 .88.72 1.59 1.6 1.59h5.45V3.06z" style="fill:#62c471"/><path id="_路径_771" d="M35.13 4.49h-1.14v-.55c0-2.18-1.76-3.94-3.94-3.94h-9.11c.2.35.28.76.23 1.18l-.08.63H30c1.17.01 2.11.96 2.12 2.13v12.12A2.134 2.134 0 0 1 30 18.18H18.23L17.09 20h12.96c2.17-.01 3.94-1.77 3.94-3.94v-.61h1.11c.5 0 .91-.4.91-.9v-9.1c.02-.5-.37-.93-.88-.96M3.89 1.81h12.93L17.92 0H3.94C1.76 0 0 1.76 0 3.94v12.12c0 2.17 1.76 3.93 3.94 3.94h10.22a1.92 1.92 0 0 1-.22-1.41l.08-.41H3.89a2.13 2.13 0 0 1-2.12-2.12V3.94c0-1.17.95-2.12 2.12-2.13" class="cls-1"/><path id="_路径_770" d="m22.81 8.53-5.99 9.57-.81 1.26a.5.5 0 0 1-.4.25c-.1 0-.15 0-.2-.05a.7.7 0 0 1-.25-.7l.15-.76 1.56-6.95h-3.28a.53.53 0 0 1-.45-.35c-.09-.2-.07-.42.05-.6l5.09-8.36.76-1.26c.13-.2.38-.28.6-.2.21.15.33.4.3.66l-.1.81-.76 5.74h3.33c.21.02.38.16.45.35.11.19.09.43-.04.6Z" class="cls-1"/></svg>