<svg xmlns="http://www.w3.org/2000/svg" width="36.01" height="20"><path fill="#272d3b" d="M35.1 4.495h-1.11v-.556A3.945 3.945 0 0 0 30.051 0H3.939A3.945 3.945 0 0 0 0 3.939V16.06a3.945 3.945 0 0 0 3.939 3.939H30.05a3.945 3.945 0 0 0 3.939-3.939v-.606H35.1a.9.9 0 0 0 .909-.9v-9.1a.92.92 0 0 0-.875-.959zM32.12 16.06A2.134 2.134 0 0 1 30 18.182H3.889a2.134 2.134 0 0 1-2.121-2.122V3.939a2.134 2.134 0 0 1 2.121-2.121H30a2.134 2.134 0 0 1 2.121 2.121V16.06Z" data-name="路径 819"/><path fill="#62c471" d="M29.432 3.055H4.561a1.59 1.59 0 0 0-1.6 1.586V15.36a1.59 1.59 0 0 0 1.6 1.586h24.871a1.59 1.59 0 0 0 1.6-1.586V4.641a1.59 1.59 0 0 0-1.6-1.586" data-name="路径 820"/></svg>