<svg xmlns="http://www.w3.org/2000/svg" width="36.01" height="20"><path fill="#272d3b" d="M35.1 4.495h-1.11v-.556A3.945 3.945 0 0 0 30.051 0H3.939A3.945 3.945 0 0 0 0 3.939v12.122A3.945 3.945 0 0 0 3.939 20H30.05a3.945 3.945 0 0 0 3.939-3.939v-.606H35.1a.9.9 0 0 0 .909-.9v-9.1a.92.92 0 0 0-.875-.959zm-2.98 11.565A2.134 2.134 0 0 1 30 18.182H3.889a2.134 2.134 0 0 1-2.121-2.121V3.939a2.134 2.134 0 0 1 2.121-2.121H30a2.134 2.134 0 0 1 2.121 2.121v12.122Z" data-name="路径 817"/><path fill="#62c471" d="M4.57 3.056a1.6 1.6 0 0 0-1.605 1.586V15.36a1.6 1.6 0 0 0 1.605 1.586h19.561V3.056Z" data-name="路径 818"/></svg>