<svg xmlns="http://www.w3.org/2000/svg" width="36.011" height="20"><path fill="#62c471" d="M29.432 3.055H4.561a1.59 1.59 0 0 0-1.6 1.586V15.36a1.59 1.59 0 0 0 1.6 1.586h24.871a1.59 1.59 0 0 0 1.6-1.586V4.641a1.59 1.59 0 0 0-1.6-1.586" data-name="路径 833"/><path fill="#272d3b" d="M35.13 4.49h-1.14v-.55A3.935 3.935 0 0 0 30.05 0h-9.11a1.9 1.9 0 0 1 .23 1.18l-.08.63H30a2.143 2.143 0 0 1 2.12 2.13v12.12A2.134 2.134 0 0 1 30 18.18H18.23L17.09 20h12.96a3.954 3.954 0 0 0 3.94-3.94v-.61h1.11a.9.9 0 0 0 .91-.9v-9.1a.93.93 0 0 0-.88-.96M3.89 1.81h12.93L17.92 0H3.94A3.935 3.935 0 0 0 0 3.94v12.12A3.95 3.95 0 0 0 3.94 20h10.22a1.92 1.92 0 0 1-.22-1.41l.08-.41H3.89a2.13 2.13 0 0 1-2.12-2.12V3.94a2.136 2.136 0 0 1 2.12-2.13" data-name="路径 834"/><path fill="#ffd524" d="m22.808 8.535-5.995 9.572-.806 1.259a.51.51 0 0 1-.4.252c-.1 0-.151 0-.2-.05a.7.7 0 0 1-.252-.7l.151-.756 1.564-6.952h-3.28a.54.54 0 0 1-.453-.353.64.64 0 0 1 .05-.6l5.088-8.363.756-1.259a.5.5 0 0 1 .6-.2.69.69 0 0 1 .3.655l-.1.806-.756 5.743H22.4a.54.54 0 0 1 .453.353.53.53 0 0 1-.045.6" data-name="路径 835"/></svg>