<svg xmlns="http://www.w3.org/2000/svg" width="36.011" height="20"><path fill="#62c471" d="M4.57 3.051a1.6 1.6 0 0 0-1.6 1.586v10.718a1.6 1.6 0 0 0 1.6 1.586h.276V3.051Z" data-name="路径 821"/><path fill="#272d3b" d="M35.13 4.49h-1.14v-.55a3.935 3.935 0 0 0-3.94-3.944h-9.11a1.9 1.9 0 0 1 .23 1.18l-.08.63H30a2.143 2.143 0 0 1 2.12 2.13v12.12a2.134 2.134 0 0 1-2.12 2.12H18.23l-1.14 1.82h12.96a3.954 3.954 0 0 0 3.94-3.94v-.61h1.11a.9.9 0 0 0 .91-.9v-9.1a.93.93 0 0 0-.88-.96M3.89 1.81h12.93l1.1-1.814H3.94A3.935 3.935 0 0 0 0 3.936v12.12a3.95 3.95 0 0 0 3.94 3.94h10.22a1.92 1.92 0 0 1-.22-1.41l.08-.41H3.89a2.13 2.13 0 0 1-2.12-2.12V3.94a2.136 2.136 0 0 1 2.12-2.13" data-name="路径 822"/><path fill="#ffd524" d="m22.808 8.534-5.995 9.572-.806 1.259a.51.51 0 0 1-.4.252c-.1 0-.151 0-.2-.05a.7.7 0 0 1-.252-.7l.151-.756 1.564-6.957h-3.28a.54.54 0 0 1-.453-.353.64.64 0 0 1 .05-.6l5.088-8.363.756-1.259a.5.5 0 0 1 .6-.2.69.69 0 0 1 .3.655l-.1.806-.756 5.743H22.4a.54.54 0 0 1 .453.353.53.53 0 0 1-.045.6" data-name="路径 823"/></svg>