<svg xmlns="http://www.w3.org/2000/svg" width="25.699" height="21.131"><g data-name="组 204"><g data-name="组 203" transform="translate(11.143 17.818)"><circle cx="1.656" cy="1.656" r="1.656" fill="#272d3b" data-name="椭圆 203"/></g></g><g data-name="组 206" opacity=".2"><g data-name="组 205"><path fill="#272d3b" d="M25.43 5.489a17.16 17.16 0 0 0-25.16 0 1.004 1.004 0 1 0 1.469 1.369 15.15 15.15 0 0 1 22.222 0 1.004 1.004 0 1 0 1.469-1.369" data-name="路径 290"/></g></g><g data-name="组 208" opacity=".2"><g data-name="组 207"><path fill="#272d3b" d="M21.743 9.635a12.286 12.286 0 0 0-17.788 0 1.004 1.004 0 1 0 1.425 1.414 10.28 10.28 0 0 1 14.938 0 1.004 1.004 0 0 0 1.425-1.414" data-name="路径 291"/></g></g><g data-name="组 210"><g data-name="组 209"><path fill="#272d3b" d="M17.726 13.795a7.24 7.24 0 0 0-4.886-2.1h-.074a7.24 7.24 0 0 0-4.886 2.1 1.004 1.004 0 1 0 1.413 1.426 5.24 5.24 0 0 1 3.473-1.516h.074a5.24 5.24 0 0 1 3.473 1.516 1.004 1.004 0 1 0 1.413-1.426" data-name="路径 292"/></g></g></svg>