<svg xmlns="http://www.w3.org/2000/svg" width="36.01" height="20"><path fill="#272d3b" d="M35.1 4.495h-1.11v-.556A3.945 3.945 0 0 0 30.051 0H3.939A3.945 3.945 0 0 0 0 3.939v12.126a3.945 3.945 0 0 0 3.939 3.939H30.05a3.945 3.945 0 0 0 3.939-3.939v-.61H35.1a.9.9 0 0 0 .909-.9v-9.1a.92.92 0 0 0-.875-.959zm-2.98 11.569A2.134 2.134 0 0 1 30 18.182H3.889a2.134 2.134 0 0 1-2.121-2.117V3.939a2.134 2.134 0 0 1 2.121-2.121H30a2.134 2.134 0 0 1 2.121 2.121v12.126Z" data-name="路径 813"/><path fill="#62c471" d="M8.61 3.055H4.571a1.6 1.6 0 0 0-1.605 1.587v10.717a1.6 1.6 0 0 0 1.605 1.587h5.45V3.055Z" data-name="路径 814"/></svg>