<svg xmlns="http://www.w3.org/2000/svg" width="25.699" height="21.131"><defs><style>.a{fill:#fff}</style></defs><circle cx="1.656" cy="1.656" r="1.656" class="a" transform="translate(11.143 17.818)"/><path d="M25.43 5.489a17.16 17.16 0 0 0-25.16 0 1.004 1.004 0 1 0 1.469 1.369 15.15 15.15 0 0 1 22.222 0 1.004 1.004 0 1 0 1.469-1.369" class="a"/><path d="M21.743 9.635a12.286 12.286 0 0 0-17.788 0 1.004 1.004 0 1 0 1.425 1.414 10.28 10.28 0 0 1 14.938 0 1.004 1.004 0 0 0 1.425-1.414M17.726 13.795a7.24 7.24 0 0 0-4.886-2.1h-.074a7.24 7.24 0 0 0-4.886 2.1 1.004 1.004 0 1 0 1.413 1.426 5.24 5.24 0 0 1 3.473-1.516h.074a5.24 5.24 0 0 1 3.473 1.516 1.004 1.004 0 1 0 1.413-1.426" class="a"/></svg>