<svg xmlns="http://www.w3.org/2000/svg" xmlns:xlink="http://www.w3.org/1999/xlink" width="0" height="0" style="display:none;"><symbol id="wlan-icons-battery-50"><path fill="#fff" d="M35.1 4.495h-1.11v-.556A3.944 3.944 0 0 0 30.051 0H3.939A3.944 3.944 0 0 0 0 3.939v12.122A3.944 3.944 0 0 0 3.939 20H30.05a3.944 3.944 0 0 0 3.939-3.939v-.606H35.1a.905.905 0 0 0 .909-.909V5.455a.92.92 0 0 0-.909-.96m-2.98 11.566a2.134 2.134 0 0 1-2.121 2.121H3.889a2.134 2.134 0 0 1-2.121-2.121V3.939a2.134 2.134 0 0 1 2.121-2.121H30a2.134 2.134 0 0 1 2.121 2.121v12.122Z" data-name="路径 771"></path><path fill="#fff" d="M8.549 2.929H4.394a1.49 1.49 0 0 0-1.515 1.515v11.111a1.49 1.49 0 0 0 1.515 1.515h4.155a1.49 1.49 0 0 0 1.515-1.515V4.444a1.46 1.46 0 0 0-1.515-1.515" data-name="路径 772"></path></symbol><symbol id="wlan-icons-bell"><path fill="#00d7ff" d="M26.315 11.489a.923.923 0 0 1-.925-.882 13.3 13.3 0 0 0-3.274-7.918.943.943 0 0 1 .035-1.283.935.935 0 0 1 1.362.044 15.14 15.14 0 0 1 3.745 9.036.953.953 0 0 1-.943 1.003" data-name="路径 305"></path><path fill="#00d7ff" d="M.923 11.489a.927.927 0 0 1-.925-1 15.1 15.1 0 0 1 3.745-9.036.935.935 0 0 1 1.362-.044.943.943 0 0 1 .035 1.283 13.23 13.23 0 0 0-3.283 7.918.955.955 0 0 1-.934.879" data-name="路径 306"></path><path fill="#00d7ff" d="M13.62 28.87a4.657 4.657 0 0 1-4.653-4.653h1.86a2.794 2.794 0 1 0 5.587 0h1.86a4.663 4.663 0 0 1-4.654 4.653" data-name="路径 307"></path><path fill="#00d7ff" d="M23.862 25.143H3.381a2.173 2.173 0 0 1-1.414-3.824 8.33 8.33 0 0 0 2.968-6.373v-3.461a8.7 8.7 0 0 1 17.391 0v3.466a8.33 8.33 0 0 0 2.951 6.364 2.15 2.15 0 0 1 .768 1.659 2.187 2.187 0 0 1-2.183 2.169M13.621 4.653a6.837 6.837 0 0 0-6.827 6.827v3.466a10.2 10.2 0 0 1-3.614 7.787.3.3 0 0 0-.113.236.32.32 0 0 0 .314.314h20.49a.32.32 0 0 0 .314-.314.3.3 0 0 0-.113-.236 10.2 10.2 0 0 1-3.614-7.787v-3.461a6.85 6.85 0 0 0-6.837-6.832" data-name="路径 308"></path><path fill="#00d7ff" d="M13.621 0a.935.935 0 0 1 .934.934v1.86a.935.935 0 0 1-.934.934.935.935 0 0 1-.934-.934V.934A.935.935 0 0 1 13.621 0" data-name="路径 309"></path></symbol><symbol id="wlan-icons-bluetooth-fill-disabled"><g fill="#a9adb0" data-name="组 602"><path d="M7.45 5.852v2.611l1.865-1.132Z" data-name="路径 734"></path><path d="M7.45 0A7.46 7.46 0 0 0 0 7.45v4.967a7.45 7.45 0 1 0 14.9 0V7.45A7.46 7.46 0 0 0 7.45 0m3.831 13.032-4.139 3.34a.828.828 0 0 1-1.348-.644v-3.8l-1.055 1.056a.828.828 0 0 1-1.171-1.171L5.455 9.93 3.55 8a.828.828 0 1 1 1.177-1.165l1.067 1.08V4.139a.828.828 0 0 1 1.342-.649l4.139 3.282a.827.827 0 0 1-.084 1.356L8.249 9.914l2.939 1.763a.828.828 0 0 1 .094 1.354Z" data-name="路径 735"></path><path d="m7.45 13.996 1.869-1.508-1.869-1.122Z" data-name="路径 736"></path></g></symbol><symbol id="wlan-icons-bluetooth-fill"><g fill="#00d7ff" data-name="组 602"><path d="M7.45 5.852v2.611l1.865-1.132Z" data-name="路径 734"></path><path d="M7.45 0A7.46 7.46 0 0 0 0 7.45v4.967a7.45 7.45 0 1 0 14.9 0V7.45A7.46 7.46 0 0 0 7.45 0m3.831 13.032-4.139 3.34a.828.828 0 0 1-1.348-.644v-3.8l-1.055 1.056a.828.828 0 0 1-1.171-1.171L5.455 9.93 3.55 8a.828.828 0 1 1 1.177-1.165l1.067 1.08V4.139a.828.828 0 0 1 1.342-.649l4.139 3.282a.827.827 0 0 1-.084 1.356L8.249 9.914l2.939 1.763a.828.828 0 0 1 .094 1.354Z" data-name="路径 735"></path><path d="m7.45 13.996 1.869-1.508-1.869-1.122Z" data-name="路径 736"></path></g></symbol><symbol id="wlan-icons-bluetooth"><path fill="#fff" d="M9.355 28.828a1.02 1.02 0 0 1-1.019-1.013V16.858l-6.6 4.969a1 1 0 0 1-.714.3.98.98 0 0 1-.714-.3 1.01 1.01 0 0 1 0-1.434l7.612-5.982L.303 8.429a1.016 1.016 0 0 1 .714-1.733.98.98 0 0 1 .714.3l6.6 4.969V1.013A1.02 1.02 0 0 1 9.349 0a.98.98 0 0 1 .639.236l9.673 6.7a1.014 1.014 0 0 1 0 1.555l-8.728 5.919 8.74 5.919a1.014 1.014 0 0 1 0 1.555L10 28.584a.98.98 0 0 1-.645.242Zm1.008-3.178 7.076-4.537-7.076-4.537Zm0-13.4 7.076-4.537-7.077-4.535Z" opacity=".6"></path></symbol><symbol id="wlan-icons-charge-high"><g fill="#fff" data-name="组 636"><path d="M3.929.05A3.935 3.935 0 0 0 0 3.98v12.091A3.935 3.935 0 0 0 3.929 20h10.428a1.82 1.82 0 0 1-.252-1.36l.1-.5H3.879a2.13 2.13 0 0 1-2.116-2.116V3.98a2.13 2.13 0 0 1 2.116-2.116h13.149L18.136.05a.05.05 0 0 1 .05-.05H3.929Z" data-name="路径 766"></path><path d="M35.969 5.491v9.068a.9.9 0 0 1-.907.907h-1.108v.6A3.935 3.935 0 0 1 30.025 20H16.977l1.159-1.814h11.889a2.13 2.13 0 0 0 2.116-2.116V3.98a2.13 2.13 0 0 0-2.116-2.116h-9.068l.1-.655A1.95 1.95 0 0 0 20.806 0h9.219a3.935 3.935 0 0 1 3.929 3.929v.6h1.108a.98.98 0 0 1 .907.962" data-name="路径 767"></path></g><g data-name="组 637"><path fill="#62c471" d="M23.817 17.078H4.484a1.484 1.484 0 0 1-1.511-1.512V4.483a1.484 1.484 0 0 1 1.511-1.511h19.332a1.484 1.484 0 0 1 1.511 1.511v11.083a1.516 1.516 0 0 1-1.51 1.512" data-name="路径 768"></path></g><g data-name="组 642"><g data-name="组 639"><g data-name="组 638"><path fill="none" d="M20.758.05h-2.569M16.93 20h-2.572" data-name="路径 769"></path></g></g><g data-name="组 641"><g data-name="组 640"><path fill="#fff" d="m22.821 8.563-5.995 9.572-.806 1.259a.51.51 0 0 1-.4.252c-.1 0-.151 0-.2-.05a.7.7 0 0 1-.252-.705l.151-.756 1.562-6.952h-3.278a.54.54 0 0 1-.453-.353.64.64 0 0 1 .05-.6l5.088-8.363.756-1.259a.5.5 0 0 1 .6-.2.69.69 0 0 1 .3.655l-.1.806-.756 5.743h3.325a.54.54 0 0 1 .453.353.53.53 0 0 1-.045.598" data-name="路径 770"></path></g></g></g></symbol><symbol id="wlan-icons-charge-low"><g fill="#fff" data-name="组 636"><path d="M3.929.05A3.935 3.935 0 0 0 0 3.98v12.091A3.935 3.935 0 0 0 3.929 20h10.428a1.82 1.82 0 0 1-.252-1.36l.1-.5H3.879a2.13 2.13 0 0 1-2.116-2.116V3.98a2.13 2.13 0 0 1 2.116-2.116h13.149L18.136.05a.05.05 0 0 1 .05-.05H3.929Z" data-name="路径 766"></path><path d="M35.969 5.491v9.068a.9.9 0 0 1-.907.907h-1.108v.6A3.935 3.935 0 0 1 30.025 20H16.977l1.159-1.814h11.889a2.13 2.13 0 0 0 2.116-2.116V3.98a2.13 2.13 0 0 0-2.116-2.116h-9.068l.1-.655A1.95 1.95 0 0 0 20.806 0h9.219a3.935 3.935 0 0 1 3.929 3.929v.6h1.108a.98.98 0 0 1 .907.962" data-name="路径 767"></path></g><g data-name="组 637"><path fill="#62c471" d="M5.673 17.078H4.48a1.484 1.484 0 0 1-1.507-1.512V4.483a1.484 1.484 0 0 1 1.511-1.511h1.189a1.484 1.484 0 0 1 1.511 1.511v11.083a1.516 1.516 0 0 1-1.511 1.512" data-name="路径 768"></path></g><g data-name="组 642"><g data-name="组 639"><g data-name="组 638"><path fill="none" d="M20.758.05h-2.569M16.93 20h-2.572" data-name="路径 769"></path></g></g><g data-name="组 641"><g data-name="组 640"><path fill="#fff" d="m22.821 8.563-5.995 9.572-.806 1.259a.51.51 0 0 1-.4.252c-.1 0-.151 0-.2-.05a.7.7 0 0 1-.252-.705l.151-.756 1.562-6.952h-3.278a.54.54 0 0 1-.453-.353.64.64 0 0 1 .05-.6l5.088-8.363.756-1.259a.5.5 0 0 1 .6-.2.69.69 0 0 1 .3.655l-.1.806-.756 5.743h3.325a.54.54 0 0 1 .453.353.53.53 0 0 1-.045.598" data-name="路径 770"></path></g></g></g></symbol><symbol id="wlan-icons-charge-middle"><g fill="#fff" data-name="组 636"><path d="M3.929.05A3.935 3.935 0 0 0 0 3.98v12.091A3.935 3.935 0 0 0 3.929 20h10.428a1.82 1.82 0 0 1-.252-1.36l.1-.5H3.879a2.13 2.13 0 0 1-2.116-2.116V3.98a2.13 2.13 0 0 1 2.116-2.116h13.149L18.136.05a.05.05 0 0 1 .05-.05H3.929Z" data-name="路径 766"></path><path d="M35.969 5.491v9.068a.9.9 0 0 1-.907.907h-1.108v.6A3.935 3.935 0 0 1 30.025 20H16.977l1.159-1.814h11.889a2.13 2.13 0 0 0 2.116-2.116V3.98a2.13 2.13 0 0 0-2.116-2.116h-9.068l.1-.655A1.95 1.95 0 0 0 20.806 0h9.219a3.935 3.935 0 0 1 3.929 3.929v.6h1.108a.98.98 0 0 1 .907.962" data-name="路径 767"></path></g><g data-name="组 637"><path fill="#62c471" d="M8.817 17.078H4.485a1.484 1.484 0 0 1-1.512-1.512V4.483a1.484 1.484 0 0 1 1.511-1.511h4.332a1.484 1.484 0 0 1 1.511 1.511v11.083a1.516 1.516 0 0 1-1.51 1.512" data-name="路径 768"></path></g><g data-name="组 642"><g data-name="组 639"><g data-name="组 638"><path fill="none" d="M20.758.05h-2.569M16.93 20h-2.572" data-name="路径 769"></path></g></g><g data-name="组 641"><g data-name="组 640"><path fill="#fff" d="m22.821 8.563-5.995 9.572-.806 1.259a.51.51 0 0 1-.4.252c-.1 0-.151 0-.2-.05a.7.7 0 0 1-.252-.705l.151-.756 1.562-6.952h-3.278a.54.54 0 0 1-.453-.353.64.64 0 0 1 .05-.6l5.088-8.363.756-1.259a.5.5 0 0 1 .6-.2.69.69 0 0 1 .3.655l-.1.806-.756 5.743h3.325a.54.54 0 0 1 .453.353.53.53 0 0 1-.045.598" data-name="路径 770"></path></g></g></g></symbol><symbol id="wlan-icons-cloud"><g fill="#fff" data-name="组 39" opacity=".6"><path d="M25.4 7.529a9.051 9.051 0 0 0-16.764-3 5 5 0 0 0-.951-.09 4.955 4.955 0 0 0-4.952 4.945 5.4 5.4 0 0 0 .1 1.026A6.88 6.88 0 0 0 0 15.957a7.35 7.35 0 0 0 1.869 4.868 6.67 6.67 0 0 0 4.625 2.322h5.575a.866.866 0 1 0 0-1.732h-5.5a5.464 5.464 0 0 1-4.835-5.465 5.14 5.14 0 0 1 2.55-4.425.87.87 0 0 0 .379-1.052 3.1 3.1 0 0 1-.193-1.1A3.22 3.22 0 0 1 7.688 6.16a3.2 3.2 0 0 1 1.1.192.87.87 0 0 0 1.085-.443 7.315 7.315 0 0 1 13.893 2.405.865.865 0 0 0 .719.77 6.24 6.24 0 0 1-.591 12.327H19.16a.866.866 0 1 0 0 1.732h4.83a7.7 7.7 0 0 0 5.151-2.543A7.977 7.977 0 0 0 25.4 7.529" data-name="路径 85"></path><path d="M20.823 16.777a.86.86 0 0 0 0-1.225l-4.592-4.586a.88.88 0 0 0-.61-.257.85.85 0 0 0-.61.257l-4.592 4.586a.86.86 0 0 0 0 1.225.87.87 0 0 0 .61.257.85.85 0 0 0 .61-.257l3.115-3.111v14.3a.867.867 0 0 0 1.734 0v-14.3l3.115 3.111a.86.86 0 0 0 1.22 0" data-name="路径 86"></path></g></symbol><symbol id="wlan-icons-fan"><defs><style>.a{fill:#fff}</style></defs><path d="M11.821 4.249a6 6 0 0 1 3.572-.262 6.9 6.9 0 0 1 2.4.906.646.646 0 0 0 .876-.195.637.637 0 0 0-.18-.876 8.1 8.1 0 0 0-2.846-1.086 7.1 7.1 0 0 0-4.456.4.64.64 0 0 0-.232.876.63.63 0 0 0 .869.232Z" class="a"></path><path d="M18.591 25.836a9.33 9.33 0 0 0 5.367-3.277c1.827-2.112 2.748-4.613 2.419-6.538-.337-2.022-3.13-3.093-8.3-3.19a4.43 4.43 0 0 0-1.917-3.108c.681-1.76 2.366-2.194 3.879-2.576 1.1-.285 2.052-.524 2.4-1.326a1.92 1.92 0 0 0-.232-1.73A8.66 8.66 0 0 0 16.119.219c-2.733-.531-5.376-.083-6.881 1.169-1.58 1.311-1.116 4.261 1.37 8.755a4.4 4.4 0 0 0-1.243 2 4.6 4.6 0 0 0-.187 1.161c-2.059.509-3.355-.816-4.516-2.007-.794-.816-1.483-1.52-2.351-1.423a1.93 1.93 0 0 0-1.386 1.062 8.7 8.7 0 0 0-.292 7.234c.914 2.637 2.625 4.688 4.456 5.366a2.3 2.3 0 0 0 .816.142 4.58 4.58 0 0 0 3.053-1.628l1.46-1.722a30 30 0 0 0 1.748-2.692c.067.022.135.052.2.067a4.7 4.7 0 0 0 1.281.195 4.3 4.3 0 0 0 1.76-.374c1.543 1.543 1.033 3.362.584 4.972-.307 1.1-.577 2.044-.052 2.748a1.8 1.8 0 0 0 1.37.637Zm-.659-11.128a5 5 0 0 0 .127-.592c4.216.082 6.845.861 7.054 2.127.27 1.535-.569 3.692-2.119 5.489a7.46 7.46 0 0 1-5.4 2.906c-.412-.007-.584-.1-.622-.142-.142-.195.09-1.033.255-1.64.449-1.61 1.1-3.977-.7-6a4.47 4.47 0 0 0 1.408-2.149ZM10.046 2.377c1.2-1 3.49-1.348 5.826-.9a7.4 7.4 0 0 1 5.2 3.228c.195.359.21.554.18.607-.1.225-.936.442-1.55.6-1.535.389-3.767.974-4.71 3.258-.03-.007-.06-.022-.09-.03a4.43 4.43 0 0 0-3.258.285c-1.97-3.625-2.576-6.238-1.6-7.047Zm.539 10.14a3.2 3.2 0 1 1 .255 2.426 3.12 3.12 0 0 1-.254-2.426Zm-8.567-.906c.27-.434.419-.464.434-.464.24-.022.854.592 1.3 1.048 1.172 1.205 2.906 2.965 5.576 2.381a4.4 4.4 0 0 0 1.707 2.471c-2.217 3.767-4.261 5.744-5.5 5.295-1.46-.539-2.906-2.336-3.684-4.583a7.38 7.38 0 0 1 .172-6.148Z" class="a"></path><path d="M5.613 20.971a.6.6 0 0 0 .322.09.634.634 0 0 0 .614-.472.645.645 0 0 0-.292-.719 5.83 5.83 0 0 1-2-2.951 6.9 6.9 0 0 1-.419-2.546.63.63 0 0 0-.165-.457.63.63 0 0 0-.442-.21.65.65 0 0 0-.667.607 8.2 8.2 0 0 0 .487 3.025 6.95 6.95 0 0 0 2.561 3.632ZM21.055 20.05a6.9 6.9 0 0 1-1.992 1.633.63.63 0 0 0-.344.539.67.67 0 0 0 .292.569.63.63 0 0 0 .637.03 8.2 8.2 0 0 0 2.374-1.932 7 7 0 0 0 1.865-4.051.637.637 0 0 0-1.273 0 5.8 5.8 0 0 1-1.559 3.212" class="a"></path></symbol><symbol id="wlan-icons-home"><path fill="#fff" d="M31.711 13.779 16.649.31a.4.4 0 0 0-.086-.066.89.89 0 0 0-1.2-.02L.3 13.693a.891.891 0 0 0 1.185 1.33l2.712-2.429v15.707a2.24 2.24 0 0 0 2.235 2.238h4.753a2.1 2.1 0 0 0 2.1-2.1v-7.98a.323.323 0 0 1 .323-.323h4.8a.323.323 0 0 1 .323.323v7.98a2.1 2.1 0 0 0 2.1 2.1h4.753a2.544 2.544 0 0 0 2.238-2.8V12.68l2.712 2.429a.9.9 0 0 0 1.257-.072.906.906 0 0 0-.08-1.258m-5.674 4.391v9.552c0 .639-.316 1.027-.461 1.027h-4.753a.323.323 0 0 1-.323-.323v-7.967a2.1 2.1 0 0 0-2.1-2.1h-4.8a2.1 2.1 0 0 0-2.1 2.1v7.98a.323.323 0 0 1-.323.323H6.426a.46.46 0 0 1-.461-.461v-17.3l9.993-8.926 10.078 9.012z" data-name="路径 801" opacity=".6"></path></symbol><symbol id="wlan-icons-info"><g data-name="information (1)" opacity=".6"><g data-name="组 254"><g fill="#fff" data-name="组 253"><circle cx="1.225" cy="1.225" r="1.225" data-name="椭圆 214" transform="translate(13.828 6.737)"></circle><path d="M25.7 4.409A15.054 15.054 0 0 0 4.409 25.7a15.06 15.06 0 0 0 18.434 2.24 1.176 1.176 0 0 0-1.219-2.012A12.814 12.814 0 1 1 25.6 22.1a1.176 1.176 0 0 0 1.955 1.307 15.02 15.02 0 0 0-1.859-19Z" data-name="路径 425"></path><path d="M15.054 11.273a1.17 1.17 0 0 0-1.169 1.169v10.406a1.169 1.169 0 1 0 2.338 0V12.442a1.17 1.17 0 0 0-1.169-1.169" data-name="路径 426"></path></g></g></g></symbol><symbol id="wlan-icons-lock"><g data-name="lock-padlock-symbol-for-security-interface" opacity=".6"><g data-name="组 399"><path fill="#fff" d="M5 0A4.05 4.05 0 0 0 .957 4.043v2.31a.11.11 0 0 1-.058.079c-.219.073-.4.136-.559.2a.56.56 0 0 0-.34.5v5.306a.56.56 0 0 0 .338.5 12.66 12.66 0 0 0 9.324 0 .56.56 0 0 0 .338-.5V7.13a.56.56 0 0 0-.34-.5c-.163-.063-.34-.126-.559-.2a.11.11 0 0 1-.058-.079V4.043A4.05 4.05 0 0 0 5 0m2.653 4.043v1.993a12.6 12.6 0 0 0-5.306 0V4.043a2.653 2.653 0 0 1 5.306 0" data-name="路径 435"></path></g></g></symbol><symbol id="wlan-icons-pitmaster"><path fill="#fff" d="M24.616 15.337a10.25 10.25 0 0 0-2.3-4.8.765.765 0 0 0-.9-.2.735.735 0 0 0-.4.8 6 6 0 0 1-.2 3.2 11 11 0 0 1-.5 1.3 17.6 17.6 0 0 0-1.9-3.9 7 7 0 0 0-.6-.9 18 18 0 0 1-2.2-4.4 5.28 5.28 0 0 1 .9-5.2.633.633 0 0 0 .1-.9.81.81 0 0 0-.9-.3 20.7 20.7 0 0 0-8.3 5.2 12.6 12.6 0 0 0-2.4 4.4l-.3 1.2v-.8a.75.75 0 0 0-.5-.7.96.96 0 0 0-.9.2 14 14 0 0 0-3.1 6.5 12.42 12.42 0 0 0 3 10.6 11.8 11.8 0 0 0 3.3 3h.1a1.4 1.4 0 0 0 1.8-.4 1.5 1.5 0 0 0 0-1.8 4.62 4.62 0 0 1-1.5-2.7 5.7 5.7 0 0 1 .6-2.5 4.64 4.64 0 0 0 1.6 1.8.746.746 0 0 0 .9 0 .765.765 0 0 0 .2-.9 7.3 7.3 0 0 1-.6-5 6.7 6.7 0 0 1 1.6-3 9.1 9.1 0 0 0 1.3 3.3c.4.6.8 1.2 1.1 1.6.4.6.9 1.2 1.3 1.9a5.2 5.2 0 0 1 .1 4.4.81.81 0 0 0 .3.9.633.633 0 0 0 .9-.1 7.1 7.1 0 0 0 2-2.4 4.2 4.2 0 0 1-.6 2.1 5.1 5.1 0 0 1-1.9 2.2 1.1 1.1 0 0 0-.4 1.5 1.21 1.21 0 0 0 1.2.7h.3a12.1 12.1 0 0 0 6.1-4.4 13.24 13.24 0 0 0 2-5.9 30.4 30.4 0 0 0-.3-5.6m-5.4 10.8a6.43 6.43 0 0 0-.6-4.9.1.1 0 0 0-.1-.1v-.1a.82.82 0 0 0-.6-.4h-.1a.85.85 0 0 0-.7.8 4.3 4.3 0 0 1-.4 2.5 6 6 0 0 0-.7-2.7 17 17 0 0 0-1.3-2v-.1c-.4-.5-.7-.9-1.1-1.5-1-1.7-1.3-3-1-4.2a.83.83 0 0 0-.3-.8.75.75 0 0 0-.9 0 8.64 8.64 0 0 0-3.4 5.1 6.5 6.5 0 0 0-.2 2 .9.9 0 0 0-.7.3 6.87 6.87 0 0 0-1.8 4.8 5.15 5.15 0 0 0 1.5 3.2 14 14 0 0 1-2.5-2.4 11.11 11.11 0 0 1-2.7-9.4 14.3 14.3 0 0 1 1.7-4.3 6.6 6.6 0 0 0 1.6 2.8.96.96 0 0 0 .9.2.68.68 0 0 0 .4-.8 8.6 8.6 0 0 1 .2-4.2 9.5 9.5 0 0 1 2.1-3.8 16.1 16.1 0 0 1 5.6-4 7.03 7.03 0 0 0 0 4.6 19.6 19.6 0 0 0 2.4 4.8l.6.9c1 1.7 2.1 3.5 2.1 5.4a.86.86 0 0 0 .6.7.68.68 0 0 0 .8-.4.37.37 0 0 0 .1-.3c0-.1.1-.2.1-.3a19.5 19.5 0 0 0 1.4-2.9 7 7 0 0 0 .3-1.2 6.6 6.6 0 0 1 .6 2 17 17 0 0 1 .1 5.1 12.25 12.25 0 0 1-1.8 5.3 9.64 9.64 0 0 1-3.9 3.2 6.06 6.06 0 0 0 1.7-2.9" opacity=".6"></path></symbol><symbol id="wlan-icons-refresh"><g data-name="组 412" opacity=".6"><path fill="#f3f3f3" fill-rule="evenodd" d="M6.098 8.754c.314-.239.158-.478-.238-.478H4.441a5.676 5.676 0 0 1 9.61-4.011l1.9-1.9A8.54 8.54 0 0 0 10.038.001a8.276 8.276 0 0 0-8.273 8.273H.428c-.471 0-.552.239-.232.478l1.181 1.257 1.255 1.182a.678.678 0 0 0 1.029 0l1.262-1.182Zm13.709-1.346-1.179-1.182-1.187-1.181a.763.763 0 0 0-1.1 0L15.16 6.226l-1.255 1.182c-.238.327-.163.554.233.554h1.419a5.59 5.59 0 0 1-5.593 5.684 5.46 5.46 0 0 1-3.942-1.66l-1.889 1.9a8.25 8.25 0 0 0 14.1-5.922h1.418c.389 0 .471-.226.157-.554Z" data-name="路径 440"></path></g></symbol><symbol id="wlan-icons-remote-cloud"><defs><style>.a{fill:#00d7ff;stroke:#00cbf3;stroke-width:.5px}</style></defs><path d="M6.498 22.417a1 1 0 0 1-.079 0 6.939 6.939 0 0 1 .294-13.822 10.4 10.4 0 0 1 19.428-2.732 8.312 8.312 0 0 1 1.362 16.265.694.694 0 0 1-.371-1.338 6.923 6.923 0 0 0-1.476-13.573.69.69 0 0 1-.591-.4A9.011 9.011 0 0 0 7.988 9.37a.7.7 0 0 1-.687.6 5.551 5.551 0 0 0-.727 11.067.694.694 0 0 1-.076 1.384Z" class="a"></path><path d="M13.436 23.847a.7.7 0 0 1-.491-.2l-2.779-2.779a.7.7 0 0 1 0-.981l2.779-2.78a.694.694 0 0 1 .981.981l-2.285 2.289 2.285 2.285a.7.7 0 0 1 0 .981.69.69 0 0 1-.49.204Z" class="a"></path><path d="M23.153 21.071H11.006a.694.694 0 0 1 0-1.388h12.147a.694.694 0 0 1 0 1.388ZM20.377 30.788a.693.693 0 0 1-.491-1.184l2.285-2.285-2.288-2.285a.694.694 0 0 1 .981-.981l2.776 2.776a.7.7 0 0 1 0 .981l-2.776 2.776a.7.7 0 0 1-.49.2Z" class="a"></path><path d="M22.807 28.011H10.66a.694.694 0 0 1 0-1.388h12.147a.694.694 0 1 1 0 1.388Z" class="a"></path></symbol><symbol id="wlan-icons-settings"><g fill="#fff" data-name="组 35" opacity=".6"><path d="m30.362 12.641-2.246-.381a12.7 12.7 0 0 0-.9-2.179l1.321-1.852a1.97 1.97 0 0 0-.214-2.547L26.331 3.69a1.96 1.96 0 0 0-1.4-.582 1.94 1.94 0 0 0-1.143.368l-1.855 1.323a12.6 12.6 0 0 0-2.259-.929L19.3 1.651a1.975 1.975 0 0 0-1.953-1.652h-2.814a1.975 1.975 0 0 0-1.952 1.651l-.388 2.273a12.4 12.4 0 0 0-2.173.916L8.182 3.516a1.974 1.974 0 0 0-2.547.214l-2 1.992a1.98 1.98 0 0 0-.212 2.547l1.337 1.878a12.4 12.4 0 0 0-.889 2.186l-2.219.374A1.975 1.975 0 0 0 0 14.66v2.814a1.975 1.975 0 0 0 1.651 1.952l2.273.388a12.4 12.4 0 0 0 .916 2.173l-1.317 1.831a1.97 1.97 0 0 0 .214 2.547l1.992 1.992a1.96 1.96 0 0 0 1.4.582 1.94 1.94 0 0 0 1.143-.368l1.878-1.337a12.7 12.7 0 0 0 2.112.869l.374 2.246a1.975 1.975 0 0 0 1.95 1.65h2.821a1.975 1.975 0 0 0 1.952-1.651l.381-2.249a12.7 12.7 0 0 0 2.179-.9l1.852 1.324a1.96 1.96 0 0 0 1.15.368 1.96 1.96 0 0 0 1.4-.582l1.992-1.992a1.98 1.98 0 0 0 .214-2.547L27.2 21.913a12.6 12.6 0 0 0 .9-2.179l2.246-.374A1.975 1.975 0 0 0 32 17.407v-2.814a1.95 1.95 0 0 0-1.638-1.952m-.154 4.766a.173.173 0 0 1-.147.174l-2.808.468a.9.9 0 0 0-.722.662 10.7 10.7 0 0 1-1.163 2.8.9.9 0 0 0 .04.983l1.651 2.326a.18.18 0 0 1-.02.227l-1.992 1.992a.17.17 0 0 1-.127.053.16.16 0 0 1-.1-.033l-2.32-1.65a.9.9 0 0 0-.983-.04 10.7 10.7 0 0 1-2.8 1.163.89.89 0 0 0-.662.722l-.475 2.808a.173.173 0 0 1-.174.147h-2.813a.173.173 0 0 1-.174-.147l-.468-2.808a.9.9 0 0 0-.662-.722 11.1 11.1 0 0 1-2.741-1.123.9.9 0 0 0-.455-.12.88.88 0 0 0-.521.167l-2.34 1.664a.2.2 0 0 1-.1.033.18.18 0 0 1-.127-.053l-1.991-1.992a.18.18 0 0 1-.02-.227l1.644-2.306a.92.92 0 0 0 .04-.989A10.6 10.6 0 0 1 5.5 18.791a.92.92 0 0 0-.722-.662l-2.828-.481a.173.173 0 0 1-.147-.174V14.66a.173.173 0 0 1 .147-.174l2.788-.468a.9.9 0 0 0 .729-.668 10.7 10.7 0 0 1 1.143-2.808.89.89 0 0 0-.047-.976L4.9 7.226a.18.18 0 0 1 .02-.227l1.992-1.992a.17.17 0 0 1 .127-.053.16.16 0 0 1 .1.033l2.307 1.644a.92.92 0 0 0 .989.04 10.6 10.6 0 0 1 2.794-1.172.92.92 0 0 0 .662-.722l.481-2.828a.173.173 0 0 1 .174-.147h2.814a.173.173 0 0 1 .174.147L18 4.733a.9.9 0 0 0 .668.729 10.9 10.9 0 0 1 2.868 1.177.9.9 0 0 0 .983-.04l2.306-1.658a.2.2 0 0 1 .1-.033.18.18 0 0 1 .127.053l1.992 1.992a.18.18 0 0 1 .02.227l-1.649 2.319a.9.9 0 0 0-.04.983 10.7 10.7 0 0 1 1.163 2.8.89.89 0 0 0 .722.662l2.808.475a.173.173 0 0 1 .147.174v2.814Z" data-name="路径 70"></path><path d="M16.003 9.078a6.917 6.917 0 1 0 6.917 6.917 6.92 6.92 0 0 0-6.917-6.917m0 12.027a5.109 5.109 0 1 1 5.109-5.109 5.113 5.113 0 0 1-5.109 5.11Z" data-name="路径 71"></path></g></symbol><symbol id="wlan-icons-temp-down"><g data-name="组 1252" transform="translate(7690.241 4804)"><circle cx="17.256" cy="17.256" r="17.256" fill="#455060" data-name="椭圆 64" transform="translate(-7690.241 -4804)"></circle><g fill="none" stroke="#00d7ff" stroke-linecap="round" stroke-width="3" data-name="组 116"><path d="M-7672.615-4795.38v17.959" data-name="直线 26"></path><path d="m-7665.954-4784.605-6.661 7.184" data-name="直线 28"></path><path d="m-7680.016-4784.605 7.401 7.184" data-name="直线 29"></path></g></g></symbol><symbol id="wlan-icons-temp-up"><circle cx="17.256" cy="17.256" r="17.256" fill="#455060" data-name="椭圆 64"></circle><g fill="none" stroke="#ff0a7c" stroke-linecap="round" stroke-width="3" data-name="组 654"><path d="M17.625 26.177V8.49" data-name="路径 427"></path><path d="M24.286 15.565 17.625 8.49" data-name="直线 28"></path><path d="m10.225 15.565 7.401-7.075" data-name="直线 29"></path></g></symbol><symbol id="wlan-icons-temperature"><defs><style>.a{fill:#fff}</style></defs><path d="M15.587 11.971a1.247 1.247 0 1 0 0-2.494h-2.494V7.544h2.494a1.247 1.247 0 1 0 0-2.494h-2.522a5.612 5.612 0 0 0-11.195.561v13.881a7.482 7.482 0 1 0 11.706.609 1.247 1.247 0 1 0-2.03 1.448 4.988 4.988 0 1 1-7.556-.67 1.25 1.25 0 0 0 .374-.89V5.611a3.118 3.118 0 1 1 6.235 0v9.477a1.247 1.247 0 0 0 1.247 1.247h3.741a1.247 1.247 0 1 0 0-2.494h-2.494v-1.87Z" class="a"></path><path d="M7.482 4.364a1.247 1.247 0 0 0-1.247 1.247v16.67a2.494 2.494 0 1 0 2.494 0V5.611a1.247 1.247 0 0 0-1.247-1.247" class="a"></path></symbol><symbol id="wlan-icons-wifi-1"><g data-name="组 204" opacity=".2"><g data-name="组 203" transform="translate(11.143 17.818)"><circle cx="1.656" cy="1.656" r="1.656" fill="#fff" data-name="椭圆 203"></circle></g></g><g data-name="组 206" opacity=".2"><g data-name="组 205"><path fill="#fff" d="M25.43 5.489a17.16 17.16 0 0 0-25.16 0 1.004 1.004 0 1 0 1.469 1.369 15.15 15.15 0 0 1 22.222 0 1.004 1.004 0 1 0 1.469-1.369" data-name="路径 290"></path></g></g><g data-name="组 208" opacity=".2"><g data-name="组 207"><path fill="#fff" d="M21.743 9.635a12.286 12.286 0 0 0-17.788 0 1.004 1.004 0 1 0 1.425 1.414 10.28 10.28 0 0 1 14.938 0 1.004 1.004 0 0 0 1.425-1.414" data-name="路径 291"></path></g></g><g data-name="组 210" opacity=".2"><g data-name="组 209"><path fill="#fff" d="M17.726 13.795a7.24 7.24 0 0 0-4.886-2.1h-.074a7.24 7.24 0 0 0-4.886 2.1 1.004 1.004 0 1 0 1.413 1.426 5.24 5.24 0 0 1 3.473-1.516h.074a5.24 5.24 0 0 1 3.473 1.516 1.004 1.004 0 1 0 1.413-1.426" data-name="路径 292"></path></g></g><path fill="#fff" d="M22.035 20.225a.75.75 0 0 1-.52-.209L3.145 2.344a.75.75 0 0 1-.021-1.061.75.75 0 0 1 1.061-.021l18.37 17.672a.75.75 0 0 1-.52 1.291" data-name="路径 802"></path></symbol><symbol id="wlan-icons-wifi-10"><g data-name="组 204"><g data-name="组 203" transform="translate(11.143 17.818)"><circle cx="1.656" cy="1.656" r="1.656" fill="#fff" data-name="椭圆 203"></circle></g></g><g data-name="组 206" opacity=".2"><g data-name="组 205"><path fill="#fff" d="M25.43 5.489a17.16 17.16 0 0 0-25.16 0 1.004 1.004 0 1 0 1.469 1.369 15.15 15.15 0 0 1 22.222 0 1.004 1.004 0 1 0 1.469-1.369" data-name="路径 290"></path></g></g><g data-name="组 208" opacity=".2"><g data-name="组 207"><path fill="#fff" d="M21.743 9.635a12.286 12.286 0 0 0-17.788 0 1.004 1.004 0 1 0 1.425 1.414 10.28 10.28 0 0 1 14.938 0 1.004 1.004 0 0 0 1.425-1.414" data-name="路径 291"></path></g></g><g data-name="组 210"><g data-name="组 209"><path fill="#fff" d="M17.726 13.795a7.24 7.24 0 0 0-4.886-2.1h-.074a7.24 7.24 0 0 0-4.886 2.1 1.004 1.004 0 1 0 1.413 1.426 5.24 5.24 0 0 1 3.473-1.516h.074a5.24 5.24 0 0 1 3.473 1.516 1.004 1.004 0 1 0 1.413-1.426" data-name="路径 292"></path></g></g></symbol><symbol id="wlan-icons-wifi-100"><defs><style>.a{fill:#fff}</style></defs><circle cx="1.656" cy="1.656" r="1.656" class="a" transform="translate(11.143 17.818)"></circle><path d="M25.43 5.489a17.16 17.16 0 0 0-25.16 0 1.004 1.004 0 1 0 1.469 1.369 15.15 15.15 0 0 1 22.222 0 1.004 1.004 0 1 0 1.469-1.369" class="a"></path><path d="M21.743 9.635a12.286 12.286 0 0 0-17.788 0 1.004 1.004 0 1 0 1.425 1.414 10.28 10.28 0 0 1 14.938 0 1.004 1.004 0 0 0 1.425-1.414m-4.017 4.16a7.24 7.24 0 0 0-4.886-2.1h-.074a7.24 7.24 0 0 0-4.886 2.1 1.004 1.004 0 1 0 1.413 1.426 5.24 5.24 0 0 1 3.473-1.516h.074a5.24 5.24 0 0 1 3.473 1.516 1.004 1.004 0 1 0 1.413-1.426" class="a"></path></symbol><symbol id="wlan-icons-wifi-3"><g data-name="组 204"><g data-name="组 203" transform="translate(11.143 17.818)"><circle cx="1.656" cy="1.656" r="1.656" fill="#fff" data-name="椭圆 203"></circle></g></g><g data-name="组 206" opacity=".2"><g data-name="组 205"><path fill="#fff" d="M25.43 5.489a17.16 17.16 0 0 0-25.16 0 1.004 1.004 0 1 0 1.469 1.369 15.15 15.15 0 0 1 22.222 0 1.004 1.004 0 1 0 1.469-1.369" data-name="路径 290"></path></g></g><g data-name="组 208"><g data-name="组 207"><path fill="#fff" d="M21.743 9.635a12.286 12.286 0 0 0-17.788 0 1.004 1.004 0 1 0 1.425 1.414 10.28 10.28 0 0 1 14.938 0 1.004 1.004 0 0 0 1.425-1.414" data-name="路径 291"></path></g></g><g data-name="组 210"><g data-name="组 209"><path fill="#fff" d="M17.726 13.795a7.24 7.24 0 0 0-4.886-2.1h-.074a7.24 7.24 0 0 0-4.886 2.1 1.004 1.004 0 1 0 1.413 1.426 5.24 5.24 0 0 1 3.473-1.516h.074a5.24 5.24 0 0 1 3.473 1.516 1.004 1.004 0 1 0 1.413-1.426" data-name="路径 292"></path></g></g></symbol><symbol id="wlan-icons-wifi-5"><g opacity=".6"><g data-name="组 204"><g data-name="组 203" transform="translate(14.045 22.459)"><circle cx="2.088" cy="2.088" r="2.088" fill="#fff" data-name="椭圆 203"></circle></g></g><g data-name="组 206"><g data-name="组 205"><path fill="#fff" d="M32.052 6.919a21.63 21.63 0 0 0-31.712 0 1.265 1.265 0 0 0 1.851 1.725 19.1 19.1 0 0 1 28.01 0 1.265 1.265 0 0 0 1.851-1.725" data-name="路径 290"></path></g></g><g data-name="组 208"><g data-name="组 207"><path fill="#fff" d="M27.406 12.144a15.485 15.485 0 0 0-22.421 0 1.266 1.266 0 0 0 1.8 1.782 12.956 12.956 0 0 1 18.828 0 1.267 1.267 0 0 0 1.8-1.783Z" data-name="路径 291"></path></g></g><g data-name="组 210"><g data-name="组 209"><path fill="#fff" d="M22.342 17.385a9.13 9.13 0 0 0-6.16-2.644h-.093a9.13 9.13 0 0 0-6.158 2.644 1.266 1.266 0 1 0 1.781 1.8 6.6 6.6 0 0 1 4.377-1.911h.093a6.6 6.6 0 0 1 4.377 1.911 1.266 1.266 0 0 0 1.781-1.8Z" data-name="路径 292"></path></g></g></g></symbol><symbol id="wlan-icons-wifi-50"><g data-name="组 204"><g data-name="组 203" transform="translate(11.143 17.818)"><circle cx="1.656" cy="1.656" r="1.656" fill="#fff" data-name="椭圆 203"></circle></g></g><g data-name="组 206" opacity=".2"><g data-name="组 205"><path fill="#fff" d="M25.43 5.489a17.16 17.16 0 0 0-25.16 0 1.004 1.004 0 1 0 1.469 1.369 15.15 15.15 0 0 1 22.222 0 1.004 1.004 0 1 0 1.469-1.369" data-name="路径 290"></path></g></g><g data-name="组 208"><g data-name="组 207"><path fill="#fff" d="M21.743 9.635a12.286 12.286 0 0 0-17.788 0 1.004 1.004 0 1 0 1.425 1.414 10.28 10.28 0 0 1 14.938 0 1.004 1.004 0 0 0 1.425-1.414" data-name="路径 291"></path></g></g><g data-name="组 210"><g data-name="组 209"><path fill="#fff" d="M17.726 13.795a7.24 7.24 0 0 0-4.886-2.1h-.074a7.24 7.24 0 0 0-4.886 2.1 1.004 1.004 0 1 0 1.413 1.426 5.24 5.24 0 0 1 3.473-1.516h.074a5.24 5.24 0 0 1 3.473 1.516 1.004 1.004 0 1 0 1.413-1.426" data-name="路径 292"></path></g></g></symbol><symbol id="wlan-icons-wifi"><g opacity=".6"><g data-name="组 204"><g data-name="组 203" transform="translate(14.045 22.459)"><circle cx="2.088" cy="2.088" r="2.088" fill="#fff" data-name="椭圆 203"></circle></g></g><g data-name="组 206"><g data-name="组 205"><path fill="#fff" d="M32.052 6.919a21.63 21.63 0 0 0-31.712 0 1.265 1.265 0 0 0 1.851 1.725 19.1 19.1 0 0 1 28.01 0 1.265 1.265 0 0 0 1.851-1.725" data-name="路径 290"></path></g></g><g data-name="组 208"><g data-name="组 207"><path fill="#fff" d="M27.406 12.144a15.485 15.485 0 0 0-22.421 0 1.266 1.266 0 0 0 1.8 1.782 12.956 12.956 0 0 1 18.828 0 1.267 1.267 0 0 0 1.8-1.783Z" data-name="路径 291"></path></g></g><g data-name="组 210"><g data-name="组 209"><path fill="#fff" d="M22.342 17.385a9.13 9.13 0 0 0-6.16-2.644h-.093a9.13 9.13 0 0 0-6.158 2.644 1.266 1.266 0 1 0 1.781 1.8 6.6 6.6 0 0 1 4.377-1.911h.093a6.6 6.6 0 0 1 4.377 1.911 1.266 1.266 0 0 0 1.781-1.8Z" data-name="路径 292"></path></g></g></g></symbol></svg>