<svg xmlns="http://www.w3.org/2000/svg" width="27.259" height="28.871"><path fill="#00d7ff" d="M26.315 11.489a.923.923 0 0 1-.925-.882 13.3 13.3 0 0 0-3.274-7.918.943.943 0 0 1 .035-1.283.935.935 0 0 1 1.362.044 15.14 15.14 0 0 1 3.745 9.036.953.953 0 0 1-.943 1.003" data-name="路径 305"/><path fill="#00d7ff" d="M.923 11.489a.927.927 0 0 1-.925-1 15.1 15.1 0 0 1 3.745-9.036.935.935 0 0 1 1.362-.044.943.943 0 0 1 .035 1.283 13.23 13.23 0 0 0-3.283 7.918.955.955 0 0 1-.934.879" data-name="路径 306"/><path fill="#00d7ff" d="M13.62 28.87a4.657 4.657 0 0 1-4.653-4.653h1.86a2.794 2.794 0 1 0 5.587 0h1.86a4.663 4.663 0 0 1-4.654 4.653" data-name="路径 307"/><path fill="#00d7ff" d="M23.862 25.143H3.381a2.173 2.173 0 0 1-1.414-3.824 8.33 8.33 0 0 0 2.968-6.373v-3.461a8.7 8.7 0 0 1 17.391 0v3.466a8.33 8.33 0 0 0 2.951 6.364 2.15 2.15 0 0 1 .768 1.659 2.187 2.187 0 0 1-2.183 2.169M13.621 4.653a6.837 6.837 0 0 0-6.827 6.827v3.466a10.2 10.2 0 0 1-3.614 7.787.3.3 0 0 0-.113.236.32.32 0 0 0 .314.314h20.49a.32.32 0 0 0 .314-.314.3.3 0 0 0-.113-.236 10.2 10.2 0 0 1-3.614-7.787v-3.461a6.85 6.85 0 0 0-6.837-6.832" data-name="路径 308"/><path fill="#00d7ff" d="M13.621 0a.935.935 0 0 1 .934.934v1.86a.935.935 0 0 1-.934.934.935.935 0 0 1-.934-.934V.934A.935.935 0 0 1 13.621 0" data-name="路径 309"/></svg>