<svg xmlns="http://www.w3.org/2000/svg" width="30.107" height="30.107"><g data-name="information (1)" opacity=".6"><g data-name="组 254"><g fill="#fff" data-name="组 253"><circle cx="1.225" cy="1.225" r="1.225" data-name="椭圆 214" transform="translate(13.828 6.737)"/><path d="M25.7 4.409A15.054 15.054 0 0 0 4.409 25.7a15.06 15.06 0 0 0 18.434 2.24 1.176 1.176 0 0 0-1.219-2.012A12.814 12.814 0 1 1 25.6 22.1a1.176 1.176 0 0 0 1.955 1.307 15.02 15.02 0 0 0-1.859-19Z" data-name="路径 425"/><path d="M15.054 11.273a1.17 1.17 0 0 0-1.169 1.169v10.406a1.169 1.169 0 1 0 2.338 0V12.442a1.17 1.17 0 0 0-1.169-1.169" data-name="路径 426"/></g></g></g></svg>