<svg xmlns="http://www.w3.org/2000/svg" width="24.916" height="31.238"><path fill="#fff" d="M24.616 15.337a10.25 10.25 0 0 0-2.3-4.8.765.765 0 0 0-.9-.2.735.735 0 0 0-.4.8 6 6 0 0 1-.2 3.2 11 11 0 0 1-.5 1.3 17.6 17.6 0 0 0-1.9-3.9 7 7 0 0 0-.6-.9 18 18 0 0 1-2.2-4.4 5.28 5.28 0 0 1 .9-5.2.633.633 0 0 0 .1-.9.81.81 0 0 0-.9-.3 20.7 20.7 0 0 0-8.3 5.2 12.6 12.6 0 0 0-2.4 4.4l-.3 1.2v-.8a.75.75 0 0 0-.5-.7.96.96 0 0 0-.9.2 14 14 0 0 0-3.1 6.5 12.42 12.42 0 0 0 3 10.6 11.8 11.8 0 0 0 3.3 3h.1a1.4 1.4 0 0 0 1.8-.4 1.5 1.5 0 0 0 0-1.8 4.62 4.62 0 0 1-1.5-2.7 5.7 5.7 0 0 1 .6-2.5 4.64 4.64 0 0 0 1.6 1.8.746.746 0 0 0 .9 0 .765.765 0 0 0 .2-.9 7.3 7.3 0 0 1-.6-5 6.7 6.7 0 0 1 1.6-3 9.1 9.1 0 0 0 1.3 3.3c.4.6.8 1.2 1.1 1.6.4.6.9 1.2 1.3 1.9a5.2 5.2 0 0 1 .1 4.4.81.81 0 0 0 .3.9.633.633 0 0 0 .9-.1 7.1 7.1 0 0 0 2-2.4 4.2 4.2 0 0 1-.6 2.1 5.1 5.1 0 0 1-1.9 2.2 1.1 1.1 0 0 0-.4 1.5 1.21 1.21 0 0 0 1.2.7h.3a12.1 12.1 0 0 0 6.1-4.4 13.24 13.24 0 0 0 2-5.9 30.4 30.4 0 0 0-.3-5.6m-5.4 10.8a6.43 6.43 0 0 0-.6-4.9.1.1 0 0 0-.1-.1v-.1a.82.82 0 0 0-.6-.4h-.1a.85.85 0 0 0-.7.8 4.3 4.3 0 0 1-.4 2.5 6 6 0 0 0-.7-2.7 17 17 0 0 0-1.3-2v-.1c-.4-.5-.7-.9-1.1-1.5-1-1.7-1.3-3-1-4.2a.83.83 0 0 0-.3-.8.75.75 0 0 0-.9 0 8.64 8.64 0 0 0-3.4 5.1 6.5 6.5 0 0 0-.2 2 .9.9 0 0 0-.7.3 6.87 6.87 0 0 0-1.8 4.8 5.15 5.15 0 0 0 1.5 3.2 14 14 0 0 1-2.5-2.4 11.11 11.11 0 0 1-2.7-9.4 14.3 14.3 0 0 1 1.7-4.3 6.6 6.6 0 0 0 1.6 2.8.96.96 0 0 0 .9.2.68.68 0 0 0 .4-.8 8.6 8.6 0 0 1 .2-4.2 9.5 9.5 0 0 1 2.1-3.8 16.1 16.1 0 0 1 5.6-4 7.03 7.03 0 0 0 0 4.6 19.6 19.6 0 0 0 2.4 4.8l.6.9c1 1.7 2.1 3.5 2.1 5.4a.86.86 0 0 0 .6.7.68.68 0 0 0 .8-.4.37.37 0 0 0 .1-.3c0-.1.1-.2.1-.3a19.5 19.5 0 0 0 1.4-2.9 7 7 0 0 0 .3-1.2 6.6 6.6 0 0 1 .6 2 17 17 0 0 1 .1 5.1 12.25 12.25 0 0 1-1.8 5.3 9.64 9.64 0 0 1-3.9 3.2 6.06 6.06 0 0 0 1.7-2.9" opacity=".6"/></svg>