<svg xmlns="http://www.w3.org/2000/svg" width="32" height="32"><g fill="#fff" data-name="组 35" opacity=".6"><path d="m30.362 12.641-2.246-.381a12.7 12.7 0 0 0-.9-2.179l1.321-1.852a1.97 1.97 0 0 0-.214-2.547L26.331 3.69a1.96 1.96 0 0 0-1.4-.582 1.94 1.94 0 0 0-1.143.368l-1.855 1.323a12.6 12.6 0 0 0-2.259-.929L19.3 1.651a1.975 1.975 0 0 0-1.953-1.652h-2.814a1.975 1.975 0 0 0-1.952 1.651l-.388 2.273a12.4 12.4 0 0 0-2.173.916L8.182 3.516a1.974 1.974 0 0 0-2.547.214l-2 1.992a1.98 1.98 0 0 0-.212 2.547l1.337 1.878a12.4 12.4 0 0 0-.889 2.186l-2.219.374A1.975 1.975 0 0 0 0 14.66v2.814a1.975 1.975 0 0 0 1.651 1.952l2.273.388a12.4 12.4 0 0 0 .916 2.173l-1.317 1.831a1.97 1.97 0 0 0 .214 2.547l1.992 1.992a1.96 1.96 0 0 0 1.4.582 1.94 1.94 0 0 0 1.143-.368l1.878-1.337a12.7 12.7 0 0 0 2.112.869l.374 2.246a1.975 1.975 0 0 0 1.95 1.65h2.821a1.975 1.975 0 0 0 1.952-1.651l.381-2.249a12.7 12.7 0 0 0 2.179-.9l1.852 1.324a1.96 1.96 0 0 0 1.15.368 1.96 1.96 0 0 0 1.4-.582l1.992-1.992a1.98 1.98 0 0 0 .214-2.547L27.2 21.913a12.6 12.6 0 0 0 .9-2.179l2.246-.374A1.975 1.975 0 0 0 32 17.407v-2.814a1.95 1.95 0 0 0-1.638-1.952m-.154 4.766a.173.173 0 0 1-.147.174l-2.808.468a.9.9 0 0 0-.722.662 10.7 10.7 0 0 1-1.163 2.8.9.9 0 0 0 .04.983l1.651 2.326a.18.18 0 0 1-.02.227l-1.992 1.992a.17.17 0 0 1-.127.053.16.16 0 0 1-.1-.033l-2.32-1.65a.9.9 0 0 0-.983-.04 10.7 10.7 0 0 1-2.8 1.163.89.89 0 0 0-.662.722l-.475 2.808a.173.173 0 0 1-.174.147h-2.813a.173.173 0 0 1-.174-.147l-.468-2.808a.9.9 0 0 0-.662-.722 11.1 11.1 0 0 1-2.741-1.123.9.9 0 0 0-.455-.12.88.88 0 0 0-.521.167l-2.34 1.664a.2.2 0 0 1-.1.033.18.18 0 0 1-.127-.053l-1.991-1.992a.18.18 0 0 1-.02-.227l1.644-2.306a.92.92 0 0 0 .04-.989A10.6 10.6 0 0 1 5.5 18.791a.92.92 0 0 0-.722-.662l-2.828-.481a.173.173 0 0 1-.147-.174V14.66a.173.173 0 0 1 .147-.174l2.788-.468a.9.9 0 0 0 .729-.668 10.7 10.7 0 0 1 1.143-2.808.89.89 0 0 0-.047-.976L4.9 7.226a.18.18 0 0 1 .02-.227l1.992-1.992a.17.17 0 0 1 .127-.053.16.16 0 0 1 .1.033l2.307 1.644a.92.92 0 0 0 .989.04 10.6 10.6 0 0 1 2.794-1.172.92.92 0 0 0 .662-.722l.481-2.828a.173.173 0 0 1 .174-.147h2.814a.173.173 0 0 1 .174.147L18 4.733a.9.9 0 0 0 .668.729 10.9 10.9 0 0 1 2.868 1.177.9.9 0 0 0 .983-.04l2.306-1.658a.2.2 0 0 1 .1-.033.18.18 0 0 1 .127.053l1.992 1.992a.18.18 0 0 1 .02.227l-1.649 2.319a.9.9 0 0 0-.04.983 10.7 10.7 0 0 1 1.163 2.8.89.89 0 0 0 .722.662l2.808.475a.173.173 0 0 1 .147.174v2.814Z" data-name="路径 70"/><path d="M16.003 9.078a6.917 6.917 0 1 0 6.917 6.917 6.92 6.92 0 0 0-6.917-6.917m0 12.027a5.109 5.109 0 1 1 5.109-5.109 5.113 5.113 0 0 1-5.109 5.11Z" data-name="路径 71"/></g></svg>