<svg xmlns="http://www.w3.org/2000/svg" width="32.392" height="26.635"><g opacity=".6"><g data-name="组 204"><g data-name="组 203" transform="translate(14.045 22.459)"><circle cx="2.088" cy="2.088" r="2.088" fill="#fff" data-name="椭圆 203"/></g></g><g data-name="组 206"><g data-name="组 205"><path fill="#fff" d="M32.052 6.919a21.63 21.63 0 0 0-31.712 0 1.265 1.265 0 0 0 1.851 1.725 19.1 19.1 0 0 1 28.01 0 1.265 1.265 0 0 0 1.851-1.725" data-name="路径 290"/></g></g><g data-name="组 208"><g data-name="组 207"><path fill="#fff" d="M27.406 12.144a15.485 15.485 0 0 0-22.421 0 1.266 1.266 0 0 0 1.8 1.782 12.956 12.956 0 0 1 18.828 0 1.267 1.267 0 0 0 1.8-1.783Z" data-name="路径 291"/></g></g><g data-name="组 210"><g data-name="组 209"><path fill="#fff" d="M22.342 17.385a9.13 9.13 0 0 0-6.16-2.644h-.093a9.13 9.13 0 0 0-6.158 2.644 1.266 1.266 0 1 0 1.781 1.8 6.6 6.6 0 0 1 4.377-1.911h.093a6.6 6.6 0 0 1 4.377 1.911 1.266 1.266 0 0 0 1.781-1.8Z" data-name="路径 292"/></g></g></g></svg>